<ttFont>
    <TTGlyph name="A" xMin="-36" yMin="-3" xMax="662" yMax="682">
      <contour>
        <pt x="153" y="152" on="1"/>
        <pt x="136" y="124" on="0"/>
        <pt x="149" y="80" on="0"/>
        <pt x="181" y="75" on="1"/>
        <pt x="183" y="57" on="0"/>
        <pt x="184" y="18" on="0"/>
        <pt x="179" y="-3" on="1"/>
        <pt x="171" y="-2" on="0"/>
        <pt x="140" y="-1" on="0"/>
        <pt x="104" y="0" on="0"/>
        <pt x="68" y="0" on="0"/>
        <pt x="56" y="0" on="1"/>
        <pt x="31" y="0" on="0"/>
        <pt x="-20" y="-1" on="0"/>
        <pt x="-36" y="-3" on="1"/>
        <pt x="-35" y="20" on="0"/>
        <pt x="-29" y="56" on="0"/>
        <pt x="-21" y="75" on="1"/>
        <pt x="-9" y="77" on="0"/>
        <pt x="13" y="88" on="0"/>
        <pt x="35" y="110" on="0"/>
        <pt x="63" y="147" on="0"/>
        <pt x="81" y="176" on="1"/>
        <pt x="99" y="204" on="0"/>
        <pt x="148" y="283" on="0"/>
        <pt x="217" y="399" on="0"/>
        <pt x="314" y="562" on="0"/>
        <pt x="380" y="676" on="1"/>
        <pt x="400" y="681" on="0"/>
        <pt x="434" y="682" on="0"/>
        <pt x="457" y="682" on="1"/>
        <pt x="480" y="609" on="0"/>
        <pt x="522" y="469" on="0"/>
        <pt x="557" y="343" on="0"/>
        <pt x="585" y="235" on="0"/>
        <pt x="594" y="195" on="1"/>
        <pt x="603" y="156" on="0"/>
        <pt x="617" y="110" on="0"/>
        <pt x="632" y="85" on="0"/>
        <pt x="647" y="76" on="0"/>
        <pt x="658" y="75" on="1"/>
        <pt x="661" y="61" on="0"/>
        <pt x="662" y="20" on="0"/>
        <pt x="659" y="-3" on="1"/>
        <pt x="644" y="-2" on="0"/>
        <pt x="600" y="-1" on="0"/>
        <pt x="553" y="0" on="0"/>
        <pt x="512" y="0" on="0"/>
        <pt x="500" y="0" on="1"/>
        <pt x="488" y="0" on="0"/>
        <pt x="441" y="0" on="0"/>
        <pt x="388" y="-1" on="0"/>
        <pt x="338" y="-2" on="0"/>
        <pt x="323" y="-3" on="1"/>
        <pt x="324" y="44" on="0"/>
        <pt x="337" y="75" on="1"/>
        <pt x="379" y="83" on="0"/>
        <pt x="397" y="117" on="0"/>
        <pt x="389" y="151" on="1"/>
        <pt x="385" y="166" on="1"/>
        <pt x="330" y="166" on="0"/>
        <pt x="216" y="162" on="0"/>
        <pt x="156" y="156" on="1"/>
      </contour>
      <contour>
        <pt x="369" y="231" on="1"/>
        <pt x="361" y="261" on="0"/>
        <pt x="345" y="322" on="0"/>
        <pt x="336" y="352" on="1"/>
        <pt x="330" y="372" on="0"/>
        <pt x="321" y="425" on="0"/>
        <pt x="318" y="454" on="1"/>
        <pt x="304" y="425" on="0"/>
        <pt x="278" y="374" on="0"/>
        <pt x="268" y="354" on="1"/>
        <pt x="251" y="323" on="0"/>
        <pt x="217" y="262" on="0"/>
        <pt x="200" y="231" on="1"/>
      </contour>
    </TTGlyph>
    <TTGlyph name="AE" xMin="-36" yMin="-3" xMax="937" yMax="679">
      <contour>
        <pt x="611" y="352" on="1"/>
        <pt x="620" y="352" on="1"/>
        <pt x="665" y="352" on="0"/>
        <pt x="700" y="383" on="0"/>
        <pt x="705" y="425" on="1"/>
        <pt x="749" y="434" on="0"/>
        <pt x="796" y="430" on="1"/>
        <pt x="789" y="402" on="0"/>
        <pt x="777" y="339" on="0"/>
        <pt x="772" y="301" on="1"/>
        <pt x="768" y="274" on="0"/>
        <pt x="763" y="217" on="0"/>
        <pt x="762" y="191" on="1"/>
        <pt x="738" y="192" on="0"/>
        <pt x="696" y="198" on="0"/>
        <pt x="676" y="206" on="1"/>
        <pt x="676" y="221" on="0"/>
        <pt x="672" y="249" on="0"/>
        <pt x="658" y="272" on="0"/>
        <pt x="632" y="286" on="0"/>
        <pt x="610" y="286" on="1"/>
        <pt x="600" y="286" on="1"/>
        <pt x="583" y="182" on="1"/>
        <pt x="577" y="144" on="0"/>
        <pt x="577" y="102" on="0"/>
        <pt x="594" y="80" on="0"/>
        <pt x="628" y="75" on="0"/>
        <pt x="656" y="75" on="1"/>
        <pt x="707" y="75" on="0"/>
        <pt x="775" y="138" on="0"/>
        <pt x="800" y="218" on="1"/>
        <pt x="831" y="213" on="0"/>
        <pt x="875" y="197" on="0"/>
        <pt x="897" y="180" on="1"/>
        <pt x="885" y="145" on="0"/>
        <pt x="860" y="47" on="0"/>
        <pt x="854" y="-3" on="1"/>
        <pt x="831" y="-2" on="0"/>
        <pt x="767" y="-1" on="0"/>
        <pt x="695" y="0" on="0"/>
        <pt x="621" y="0" on="0"/>
        <pt x="589" y="0" on="1"/>
        <pt x="563" y="0" on="0"/>
        <pt x="480" y="0" on="0"/>
        <pt x="393" y="-1" on="0"/>
        <pt x="313" y="-2" on="0"/>
        <pt x="289" y="-3" on="1"/>
        <pt x="290" y="17" on="0"/>
        <pt x="298" y="55" on="0"/>
        <pt x="308" y="76" on="1"/>
        <pt x="327" y="77" on="0"/>
        <pt x="352" y="86" on="0"/>
        <pt x="368" y="110" on="0"/>
        <pt x="380" y="155" on="0"/>
        <pt x="386" y="193" on="1"/>
        <pt x="402" y="285" on="1"/>
        <pt x="354" y="284" on="0"/>
        <pt x="287" y="281" on="0"/>
        <pt x="259" y="278" on="1"/>
        <pt x="178" y="163" on="1"/>
        <pt x="144" y="116" on="0"/>
        <pt x="149" y="80" on="0"/>
        <pt x="181" y="75" on="1"/>
        <pt x="183" y="57" on="0"/>
        <pt x="184" y="18" on="0"/>
        <pt x="179" y="-3" on="1"/>
        <pt x="171" y="-2" on="0"/>
        <pt x="140" y="-1" on="0"/>
        <pt x="104" y="0" on="0"/>
        <pt x="68" y="0" on="0"/>
        <pt x="56" y="0" on="1"/>
        <pt x="31" y="0" on="0"/>
        <pt x="-20" y="-1" on="0"/>
        <pt x="-36" y="-3" on="1"/>
        <pt x="-35" y="20" on="0"/>
        <pt x="-29" y="56" on="0"/>
        <pt x="-21" y="75" on="1"/>
        <pt x="-9" y="77" on="0"/>
        <pt x="14" y="86" on="0"/>
        <pt x="39" y="105" on="0"/>
        <pt x="70" y="139" on="0"/>
        <pt x="91" y="166" on="1"/>
        <pt x="108" y="188" on="0"/>
        <pt x="151" y="247" on="0"/>
        <pt x="211" y="330" on="0"/>
        <pt x="289" y="440" on="0"/>
        <pt x="342" y="514" on="1"/>
        <pt x="364" y="545" on="0"/>
        <pt x="349" y="597" on="0"/>
        <pt x="303" y="601" on="1"/>
        <pt x="298" y="618" on="0"/>
        <pt x="298" y="662" on="0"/>
        <pt x="302" y="679" on="1"/>
        <pt x="340" y="678" on="0"/>
        <pt x="417" y="677" on="0"/>
        <pt x="500" y="676" on="0"/>
        <pt x="595" y="676" on="0"/>
        <pt x="651" y="676" on="1"/>
        <pt x="708" y="676" on="0"/>
        <pt x="796" y="676" on="0"/>
        <pt x="863" y="677" on="0"/>
        <pt x="915" y="678" on="0"/>
        <pt x="937" y="679" on="1"/>
        <pt x="930" y="637" on="0"/>
        <pt x="924" y="542" on="0"/>
        <pt x="928" y="497" on="1"/>
        <pt x="881" y="485" on="0"/>
        <pt x="830" y="485" on="1"/>
        <pt x="828" y="511" on="0"/>
        <pt x="818" y="554" on="0"/>
        <pt x="792" y="584" on="0"/>
        <pt x="746" y="601" on="0"/>
        <pt x="709" y="601" on="1"/>
        <pt x="652" y="601" on="1"/>
      </contour>
      <contour>
        <pt x="460" y="580" on="1"/>
        <pt x="431" y="531" on="0"/>
        <pt x="361" y="424" on="0"/>
        <pt x="311" y="352" on="1"/>
        <pt x="413" y="352" on="1"/>
        <pt x="431" y="451" on="1"/>
        <pt x="436" y="483" on="0"/>
        <pt x="452" y="551" on="0"/>
        <pt x="461" y="580" on="1"/>
      </contour>
    </TTGlyph>
    <TTGlyph name="Aacute" xMin="-36" yMin="-3" xMax="662" yMax="944">
      <component glyphName="A" x="0" y="0" flags="0x204"/>
      <component glyphName="acute" x="156" y="218" flags="0x4"/>
    </TTGlyph>
    <TTGlyph name="Acircumflex" xMin="-36" yMin="-3" xMax="662" yMax="940">
      <component glyphName="A" x="0" y="0" flags="0x204"/>
      <component glyphName="circumflex" x="202" y="218" flags="0x4"/>
    </TTGlyph>
    <TTGlyph name="Adieresis" xMin="-36" yMin="-3" xMax="662" yMax="897">
      <component glyphName="A" x="0" y="0" flags="0x204"/>
      <component glyphName="dieresis" x="107" y="218" flags="0x4"/>
    </TTGlyph>
    <TTGlyph name="Agrave" xMin="-36" yMin="-3" xMax="662" yMax="931">
      <component glyphName="A" x="0" y="0" flags="0x204"/>
      <component glyphName="grave" x="175" y="218" flags="0x4"/>
    </TTGlyph>
    <TTGlyph name="Aring" xMin="-36" yMin="-3" xMax="662" yMax="947">
      <component glyphName="A" x="0" y="0" flags="0x204"/>
      <component glyphName="ring" x="162" y="218" flags="0x4"/>
    </TTGlyph>
    <TTGlyph name="Atilde" xMin="-36" yMin="-3" xMax="664" yMax="905">
      <component glyphName="A" x="0" y="0" flags="0x204"/>
      <component glyphName="tilde" x="193" y="218" flags="0x4"/>
    </TTGlyph>
    <TTGlyph name="B" xMin="9" yMin="-3" xMax="709" yMax="679">
      <contour>
        <pt x="159" y="501" on="1"/>
        <pt x="164" y="531" on="0"/>
        <pt x="165" y="567" on="0"/>
        <pt x="153" y="588" on="0"/>
        <pt x="128" y="598" on="0"/>
        <pt x="109" y="601" on="1"/>
        <pt x="104" y="618" on="0"/>
        <pt x="106" y="659" on="0"/>
        <pt x="108" y="679" on="1"/>
        <pt x="131" y="677" on="0"/>
        <pt x="193" y="676" on="0"/>
        <pt x="219" y="676" on="1"/>
        <pt x="259" y="676" on="0"/>
        <pt x="382" y="679" on="0"/>
        <pt x="445" y="679" on="1"/>
        <pt x="527" y="679" on="0"/>
        <pt x="634" y="655" on="0"/>
        <pt x="693" y="610" on="0"/>
        <pt x="709" y="545" on="0"/>
        <pt x="702" y="503" on="1"/>
        <pt x="694" y="452" on="0"/>
        <pt x="603" y="380" on="0"/>
        <pt x="520" y="368" on="1"/>
        <pt x="571" y="365" on="0"/>
        <pt x="639" y="336" on="0"/>
        <pt x="678" y="285" on="0"/>
        <pt x="688" y="216" on="0"/>
        <pt x="681" y="174" on="1"/>
        <pt x="674" y="134" on="0"/>
        <pt x="630" y="70" on="0"/>
        <pt x="549" y="25" on="0"/>
        <pt x="427" y="0" on="0"/>
        <pt x="342" y="0" on="1"/>
        <pt x="250" y="0" on="0"/>
        <pt x="78" y="-1" on="0"/>
        <pt x="9" y="-3" on="1"/>
        <pt x="11" y="19" on="0"/>
        <pt x="21" y="57" on="0"/>
        <pt x="29" y="75" on="1"/>
        <pt x="48" y="76" on="0"/>
        <pt x="72" y="85" on="0"/>
        <pt x="88" y="110" on="0"/>
        <pt x="99" y="157" on="0"/>
        <pt x="106" y="197" on="1"/>
      </contour>
      <contour>
        <pt x="371" y="389" on="1"/>
        <pt x="420" y="389" on="0"/>
        <pt x="494" y="455" on="0"/>
        <pt x="505" y="516" on="1"/>
        <pt x="512" y="558" on="0"/>
        <pt x="470" y="601" on="0"/>
        <pt x="431" y="601" on="1"/>
        <pt x="413" y="601" on="0"/>
        <pt x="387" y="592" on="0"/>
        <pt x="373" y="586" on="1"/>
        <pt x="339" y="389" on="1"/>
      </contour>
      <contour>
        <pt x="301" y="168" on="1"/>
        <pt x="295" y="135" on="0"/>
        <pt x="298" y="97" on="0"/>
        <pt x="311" y="78" on="0"/>
        <pt x="333" y="74" on="0"/>
        <pt x="345" y="74" on="1"/>
        <pt x="385" y="74" on="0"/>
        <pt x="455" y="143" on="0"/>
        <pt x="466" y="203" on="1"/>
        <pt x="471" y="234" on="0"/>
        <pt x="462" y="274" on="0"/>
        <pt x="434" y="297" on="0"/>
        <pt x="387" y="306" on="0"/>
        <pt x="354" y="306" on="1"/>
        <pt x="325" y="306" on="1"/>
      </contour>
    </TTGlyph>
    <TTGlyph name="C" xMin="37" yMin="-9" xMax="660" yMax="685">
      <contour>
        <pt x="442" y="685" on="1"/>
        <pt x="503" y="685" on="0"/>
        <pt x="612" y="662" on="0"/>
        <pt x="660" y="632" on="1"/>
        <pt x="636" y="561" on="0"/>
        <pt x="627" y="477" on="1"/>
        <pt x="607" y="469" on="0"/>
        <pt x="557" y="465" on="0"/>
        <pt x="532" y="470" on="1"/>
        <pt x="537" y="512" on="0"/>
        <pt x="528" y="565" on="0"/>
        <pt x="504" y="596" on="0"/>
        <pt x="467" y="608" on="0"/>
        <pt x="444" y="608" on="1"/>
        <pt x="405" y="608" on="0"/>
        <pt x="342" y="564" on="0"/>
        <pt x="294" y="491" on="0"/>
        <pt x="262" y="397" on="0"/>
        <pt x="253" y="347" on="1"/>
        <pt x="243" y="291" on="0"/>
        <pt x="248" y="195" on="0"/>
        <pt x="283" y="125" on="0"/>
        <pt x="349" y="85" on="0"/>
        <pt x="400" y="85" on="1"/>
        <pt x="432" y="85" on="0"/>
        <pt x="505" y="102" on="0"/>
        <pt x="548" y="123" on="1"/>
        <pt x="560" y="110" on="0"/>
        <pt x="571" y="75" on="0"/>
        <pt x="573" y="54" on="1"/>
        <pt x="525" y="23" on="0"/>
        <pt x="413" y="-9" on="0"/>
        <pt x="343" y="-9" on="1"/>
        <pt x="261" y="-9" on="0"/>
        <pt x="138" y="46" on="0"/>
        <pt x="63" y="144" on="0"/>
        <pt x="37" y="280" on="0"/>
        <pt x="51" y="362" on="1"/>
        <pt x="65" y="443" on="0"/>
        <pt x="142" y="564" on="0"/>
        <pt x="250" y="645" on="0"/>
        <pt x="377" y="685" on="0"/>
      </contour>
    </TTGlyph>
    <TTGlyph name="Ccedilla" xMin="38" yMin="-244" xMax="660" yMax="685">
      <contour>
        <pt x="277" y="-4" on="1"/>
        <pt x="211" y="6" on="0"/>
        <pt x="115" y="69" on="0"/>
        <pt x="56" y="164" on="0"/>
        <pt x="38" y="289" on="0"/>
        <pt x="51" y="362" on="1"/>
        <pt x="65" y="443" on="0"/>
        <pt x="142" y="564" on="0"/>
        <pt x="250" y="645" on="0"/>
        <pt x="377" y="685" on="0"/>
        <pt x="442" y="685" on="1"/>
        <pt x="503" y="685" on="0"/>
        <pt x="612" y="662" on="0"/>
        <pt x="660" y="632" on="1"/>
        <pt x="636" y="561" on="0"/>
        <pt x="627" y="477" on="1"/>
        <pt x="607" y="469" on="0"/>
        <pt x="557" y="465" on="0"/>
        <pt x="532" y="470" on="1"/>
        <pt x="537" y="512" on="0"/>
        <pt x="528" y="565" on="0"/>
        <pt x="504" y="596" on="0"/>
        <pt x="467" y="608" on="0"/>
        <pt x="444" y="608" on="1"/>
        <pt x="405" y="608" on="0"/>
        <pt x="342" y="564" on="0"/>
        <pt x="294" y="491" on="0"/>
        <pt x="262" y="397" on="0"/>
        <pt x="253" y="347" on="1"/>
        <pt x="243" y="291" on="0"/>
        <pt x="248" y="195" on="0"/>
        <pt x="283" y="125" on="0"/>
        <pt x="349" y="85" on="0"/>
        <pt x="400" y="85" on="1"/>
        <pt x="432" y="85" on="0"/>
        <pt x="505" y="102" on="0"/>
        <pt x="548" y="123" on="1"/>
        <pt x="560" y="110" on="0"/>
        <pt x="571" y="75" on="0"/>
        <pt x="573" y="54" on="1"/>
        <pt x="528" y="25" on="0"/>
        <pt x="427" y="-7" on="0"/>
        <pt x="364" y="-9" on="1"/>
        <pt x="328" y="-46" on="1"/>
        <pt x="365" y="-58" on="0"/>
        <pt x="390" y="-112" on="0"/>
        <pt x="383" y="-148" on="1"/>
        <pt x="374" y="-195" on="0"/>
        <pt x="276" y="-244" on="0"/>
        <pt x="189" y="-242" on="1"/>
        <pt x="185" y="-231" on="0"/>
        <pt x="187" y="-202" on="0"/>
        <pt x="190" y="-191" on="1"/>
        <pt x="223" y="-192" on="0"/>
        <pt x="275" y="-172" on="0"/>
        <pt x="278" y="-155" on="1"/>
        <pt x="283" y="-132" on="0"/>
        <pt x="251" y="-110" on="0"/>
        <pt x="226" y="-110" on="1"/>
        <pt x="214" y="-89" on="0"/>
        <pt x="217" y="-63" on="1"/>
      </contour>
    </TTGlyph>
    <TTGlyph name="D" xMin="10" yMin="-3" xMax="746" yMax="679">
      <contour>
        <pt x="157" y="501" on="1"/>
        <pt x="162" y="531" on="0"/>
        <pt x="163" y="568" on="0"/>
        <pt x="152" y="589" on="0"/>
        <pt x="127" y="599" on="0"/>
        <pt x="108" y="601" on="1"/>
        <pt x="104" y="621" on="0"/>
        <pt x="104" y="664" on="0"/>
        <pt x="108" y="679" on="1"/>
        <pt x="125" y="678" on="0"/>
        <pt x="172" y="677" on="0"/>
        <pt x="226" y="676" on="0"/>
        <pt x="283" y="676" on="0"/>
        <pt x="310" y="676" on="1"/>
        <pt x="333" y="676" on="0"/>
        <pt x="387" y="678" on="0"/>
        <pt x="420" y="678" on="1"/>
        <pt x="495" y="678" on="0"/>
        <pt x="623" y="650" on="0"/>
        <pt x="711" y="574" on="0"/>
        <pt x="746" y="441" on="0"/>
        <pt x="728" y="335" on="1"/>
        <pt x="714" y="257" on="0"/>
        <pt x="655" y="146" on="0"/>
        <pt x="578" y="71" on="0"/>
        <pt x="491" y="28" on="0"/>
        <pt x="407" y="6" on="0"/>
        <pt x="333" y="0" on="0"/>
        <pt x="308" y="0" on="1"/>
        <pt x="306" y="0" on="1"/>
        <pt x="279" y="0" on="0"/>
        <pt x="195" y="0" on="0"/>
        <pt x="107" y="-1" on="0"/>
        <pt x="30" y="-2" on="0"/>
        <pt x="10" y="-3" on="1"/>
        <pt x="11" y="17" on="0"/>
        <pt x="19" y="55" on="0"/>
        <pt x="28" y="75" on="1"/>
        <pt x="47" y="76" on="0"/>
        <pt x="72" y="86" on="0"/>
        <pt x="88" y="112" on="0"/>
        <pt x="99" y="159" on="0"/>
        <pt x="105" y="197" on="1"/>
      </contour>
      <contour>
        <pt x="301" y="182" on="1"/>
        <pt x="295" y="147" on="0"/>
        <pt x="294" y="105" on="0"/>
        <pt x="307" y="83" on="0"/>
        <pt x="334" y="75" on="0"/>
        <pt x="357" y="75" on="1"/>
        <pt x="369" y="75" on="0"/>
        <pt x="413" y="93" on="0"/>
        <pt x="464" y="151" on="0"/>
        <pt x="513" y="263" on="0"/>
        <pt x="530" y="357" on="1"/>
        <pt x="543" y="433" on="0"/>
        <pt x="535" y="529" on="0"/>
        <pt x="503" y="583" on="0"/>
        <pt x="452" y="603" on="0"/>
        <pt x="423" y="603" on="1"/>
        <pt x="409" y="603" on="0"/>
        <pt x="383" y="598" on="0"/>
        <pt x="369" y="591" on="1"/>
      </contour>
    </TTGlyph>
    <TTGlyph name="E" xMin="10" yMin="-3" xMax="658" yMax="679">
      <contour>
        <pt x="337" y="382" on="1"/>
        <pt x="343" y="382" on="1"/>
        <pt x="365" y="382" on="0"/>
        <pt x="396" y="387" on="0"/>
        <pt x="415" y="402" on="0"/>
        <pt x="425" y="428" on="0"/>
        <pt x="428" y="449" on="1"/>
        <pt x="472" y="458" on="0"/>
        <pt x="519" y="454" on="1"/>
        <pt x="512" y="426" on="0"/>
        <pt x="500" y="363" on="0"/>
        <pt x="495" y="325" on="1"/>
        <pt x="491" y="298" on="0"/>
        <pt x="486" y="241" on="0"/>
        <pt x="485" y="215" on="1"/>
        <pt x="461" y="216" on="0"/>
        <pt x="419" y="222" on="0"/>
        <pt x="399" y="230" on="1"/>
        <pt x="399" y="245" on="0"/>
        <pt x="395" y="272" on="0"/>
        <pt x="381" y="294" on="0"/>
        <pt x="355" y="307" on="0"/>
        <pt x="333" y="307" on="1"/>
        <pt x="325" y="307" on="1"/>
        <pt x="304" y="182" on="1"/>
        <pt x="298" y="147" on="0"/>
        <pt x="298" y="105" on="0"/>
        <pt x="311" y="83" on="0"/>
        <pt x="340" y="75" on="0"/>
        <pt x="363" y="75" on="1"/>
        <pt x="377" y="75" on="1"/>
        <pt x="428" y="75" on="0"/>
        <pt x="496" y="138" on="0"/>
        <pt x="521" y="218" on="1"/>
        <pt x="552" y="213" on="0"/>
        <pt x="596" y="197" on="0"/>
        <pt x="618" y="180" on="1"/>
        <pt x="606" y="145" on="0"/>
        <pt x="581" y="47" on="0"/>
        <pt x="575" y="-3" on="1"/>
        <pt x="552" y="-2" on="0"/>
        <pt x="488" y="-1" on="0"/>
        <pt x="416" y="0" on="0"/>
        <pt x="342" y="0" on="0"/>
        <pt x="310" y="0" on="1"/>
        <pt x="284" y="0" on="0"/>
        <pt x="201" y="0" on="0"/>
        <pt x="114" y="-1" on="0"/>
        <pt x="34" y="-2" on="0"/>
        <pt x="10" y="-3" on="1"/>
        <pt x="11" y="17" on="0"/>
        <pt x="19" y="55" on="0"/>
        <pt x="29" y="76" on="1"/>
        <pt x="48" y="77" on="0"/>
        <pt x="73" y="87" on="0"/>
        <pt x="89" y="112" on="0"/>
        <pt x="100" y="159" on="0"/>
        <pt x="107" y="197" on="1"/>
        <pt x="160" y="501" on="1"/>
        <pt x="165" y="531" on="0"/>
        <pt x="165" y="567" on="0"/>
        <pt x="153" y="588" on="0"/>
        <pt x="127" y="598" on="0"/>
        <pt x="108" y="601" on="1"/>
        <pt x="105" y="620" on="0"/>
        <pt x="104" y="656" on="0"/>
        <pt x="108" y="679" on="1"/>
        <pt x="131" y="678" on="0"/>
        <pt x="200" y="677" on="0"/>
        <pt x="276" y="676" on="0"/>
        <pt x="350" y="676" on="0"/>
        <pt x="379" y="676" on="1"/>
        <pt x="434" y="676" on="0"/>
        <pt x="520" y="676" on="0"/>
        <pt x="586" y="677" on="0"/>
        <pt x="637" y="678" on="0"/>
        <pt x="658" y="679" on="1"/>
        <pt x="651" y="637" on="0"/>
        <pt x="645" y="542" on="0"/>
        <pt x="649" y="497" on="1"/>
        <pt x="602" y="485" on="0"/>
        <pt x="551" y="485" on="1"/>
        <pt x="549" y="511" on="0"/>
        <pt x="539" y="554" on="0"/>
        <pt x="513" y="584" on="0"/>
        <pt x="467" y="601" on="0"/>
        <pt x="430" y="601" on="1"/>
        <pt x="374" y="601" on="1"/>
      </contour>
    </TTGlyph>
    <TTGlyph name="Eacute" xMin="10" yMin="-3" xMax="658" yMax="944">
      <component glyphName="E" x="0" y="0" flags="0x204"/>
      <component glyphName="acute" x="120" y="218" flags="0x4"/>
    </TTGlyph>
    <TTGlyph name="Ecircumflex" xMin="10" yMin="-3" xMax="658" yMax="940">
      <component glyphName="E" x="0" y="0" flags="0x204"/>
      <component glyphName="circumflex" x="166" y="218" flags="0x4"/>
    </TTGlyph>
    <TTGlyph name="Edieresis" xMin="10" yMin="-3" xMax="658" yMax="897">
      <component glyphName="E" x="0" y="0" flags="0x204"/>
      <component glyphName="dieresis" x="71" y="218" flags="0x4"/>
    </TTGlyph>
    <TTGlyph name="Egrave" xMin="10" yMin="-3" xMax="658" yMax="931">
      <component glyphName="E" x="0" y="0" flags="0x204"/>
      <component glyphName="grave" x="139" y="218" flags="0x4"/>
    </TTGlyph>
    <TTGlyph name="Eth" xMin="10" yMin="-3" xMax="746" yMax="679">
      <contour>
        <pt x="157" y="501" on="1"/>
        <pt x="162" y="531" on="0"/>
        <pt x="163" y="568" on="0"/>
        <pt x="152" y="589" on="0"/>
        <pt x="127" y="599" on="0"/>
        <pt x="108" y="601" on="1"/>
        <pt x="104" y="621" on="0"/>
        <pt x="104" y="664" on="0"/>
        <pt x="108" y="679" on="1"/>
        <pt x="125" y="678" on="0"/>
        <pt x="172" y="677" on="0"/>
        <pt x="226" y="676" on="0"/>
        <pt x="283" y="676" on="0"/>
        <pt x="310" y="676" on="1"/>
        <pt x="333" y="676" on="0"/>
        <pt x="387" y="678" on="0"/>
        <pt x="420" y="678" on="1"/>
        <pt x="495" y="678" on="0"/>
        <pt x="623" y="650" on="0"/>
        <pt x="711" y="574" on="0"/>
        <pt x="746" y="441" on="0"/>
        <pt x="728" y="335" on="1"/>
        <pt x="714" y="257" on="0"/>
        <pt x="655" y="146" on="0"/>
        <pt x="578" y="71" on="0"/>
        <pt x="491" y="28" on="0"/>
        <pt x="407" y="6" on="0"/>
        <pt x="333" y="0" on="0"/>
        <pt x="308" y="0" on="1"/>
        <pt x="305" y="0" on="1"/>
        <pt x="278" y="0" on="0"/>
        <pt x="194" y="0" on="0"/>
        <pt x="107" y="-1" on="0"/>
        <pt x="30" y="-2" on="0"/>
        <pt x="10" y="-3" on="1"/>
        <pt x="11" y="17" on="0"/>
        <pt x="19" y="55" on="0"/>
        <pt x="28" y="75" on="1"/>
        <pt x="47" y="76" on="0"/>
        <pt x="72" y="86" on="0"/>
        <pt x="88" y="112" on="0"/>
        <pt x="99" y="159" on="0"/>
        <pt x="105" y="197" on="1"/>
        <pt x="121" y="288" on="1"/>
        <pt x="99" y="288" on="0"/>
        <pt x="78" y="288" on="0"/>
        <pt x="52" y="286" on="1"/>
        <pt x="50" y="307" on="0"/>
        <pt x="56" y="347" on="0"/>
        <pt x="67" y="366" on="1"/>
        <pt x="134" y="366" on="1"/>
      </contour>
      <contour>
        <pt x="301" y="182" on="1"/>
        <pt x="295" y="147" on="0"/>
        <pt x="294" y="105" on="0"/>
        <pt x="307" y="83" on="0"/>
        <pt x="334" y="75" on="0"/>
        <pt x="357" y="75" on="1"/>
        <pt x="369" y="75" on="0"/>
        <pt x="413" y="93" on="0"/>
        <pt x="464" y="151" on="0"/>
        <pt x="513" y="263" on="0"/>
        <pt x="530" y="357" on="1"/>
        <pt x="543" y="433" on="0"/>
        <pt x="535" y="529" on="0"/>
        <pt x="503" y="583" on="0"/>
        <pt x="452" y="603" on="0"/>
        <pt x="423" y="603" on="1"/>
        <pt x="409" y="603" on="0"/>
        <pt x="383" y="598" on="0"/>
        <pt x="369" y="591" on="1"/>
        <pt x="332" y="366" on="1"/>
        <pt x="412" y="366" on="1"/>
        <pt x="415" y="346" on="0"/>
        <pt x="410" y="306" on="0"/>
        <pt x="401" y="289" on="1"/>
        <pt x="319" y="289" on="1"/>
      </contour>
    </TTGlyph>
    <TTGlyph name="Euro" xMin="32" yMin="-9" xMax="719" yMax="685">
      <contour>
        <pt x="127" y="430" on="1"/>
        <pt x="149" y="494" on="0"/>
        <pt x="229" y="589" on="0"/>
        <pt x="329" y="653" on="0"/>
        <pt x="444" y="685" on="0"/>
        <pt x="501" y="685" on="1"/>
        <pt x="562" y="685" on="0"/>
        <pt x="671" y="662" on="0"/>
        <pt x="719" y="632" on="1"/>
        <pt x="695" y="561" on="0"/>
        <pt x="686" y="477" on="1"/>
        <pt x="666" y="469" on="0"/>
        <pt x="616" y="465" on="0"/>
        <pt x="591" y="470" on="1"/>
        <pt x="596" y="512" on="0"/>
        <pt x="587" y="565" on="0"/>
        <pt x="563" y="596" on="0"/>
        <pt x="526" y="608" on="0"/>
        <pt x="503" y="608" on="1"/>
        <pt x="472" y="608" on="0"/>
        <pt x="420" y="580" on="0"/>
        <pt x="377" y="532" on="0"/>
        <pt x="344" y="467" on="0"/>
        <pt x="332" y="430" on="1"/>
        <pt x="537" y="430" on="1"/>
        <pt x="539" y="380" on="0"/>
        <pt x="514" y="343" on="1"/>
        <pt x="311" y="343" on="1"/>
        <pt x="308" y="325" on="0"/>
        <pt x="305" y="291" on="0"/>
        <pt x="304" y="274" on="1"/>
        <pt x="519" y="274" on="1"/>
        <pt x="521" y="251" on="0"/>
        <pt x="510" y="205" on="0"/>
        <pt x="498" y="187" on="1"/>
        <pt x="314" y="187" on="1"/>
        <pt x="328" y="139" on="0"/>
        <pt x="398" y="85" on="0"/>
        <pt x="459" y="85" on="1"/>
        <pt x="491" y="85" on="0"/>
        <pt x="564" y="102" on="0"/>
        <pt x="607" y="123" on="1"/>
        <pt x="619" y="110" on="0"/>
        <pt x="630" y="75" on="0"/>
        <pt x="632" y="54" on="1"/>
        <pt x="584" y="23" on="0"/>
        <pt x="472" y="-9" on="0"/>
        <pt x="402" y="-9" on="1"/>
        <pt x="287" y="-9" on="0"/>
        <pt x="141" y="94" on="0"/>
        <pt x="115" y="183" on="1"/>
        <pt x="41" y="183" on="1"/>
        <pt x="32" y="233" on="0"/>
        <pt x="55" y="274" on="1"/>
        <pt x="102" y="274" on="1"/>
        <pt x="102" y="290" on="0"/>
        <pt x="104" y="322" on="0"/>
        <pt x="106" y="339" on="1"/>
        <pt x="53" y="339" on="1"/>
        <pt x="51" y="363" on="0"/>
        <pt x="63" y="411" on="0"/>
        <pt x="77" y="430" on="1"/>
      </contour>
    </TTGlyph>
    <TTGlyph name="F" xMin="6" yMin="-3" xMax="657" yMax="679">
      <contour>
        <pt x="159" y="501" on="1"/>
        <pt x="164" y="531" on="0"/>
        <pt x="165" y="567" on="0"/>
        <pt x="153" y="588" on="0"/>
        <pt x="128" y="598" on="0"/>
        <pt x="109" y="601" on="1"/>
        <pt x="106" y="618" on="0"/>
        <pt x="106" y="658" on="0"/>
        <pt x="108" y="679" on="1"/>
        <pt x="141" y="678" on="0"/>
        <pt x="214" y="677" on="0"/>
        <pt x="286" y="676" on="0"/>
        <pt x="352" y="676" on="0"/>
        <pt x="378" y="676" on="1"/>
        <pt x="433" y="676" on="0"/>
        <pt x="519" y="676" on="0"/>
        <pt x="585" y="677" on="0"/>
        <pt x="636" y="678" on="0"/>
        <pt x="657" y="679" on="1"/>
        <pt x="650" y="637" on="0"/>
        <pt x="644" y="542" on="0"/>
        <pt x="648" y="497" on="1"/>
        <pt x="601" y="485" on="0"/>
        <pt x="550" y="485" on="1"/>
        <pt x="548" y="511" on="0"/>
        <pt x="538" y="554" on="0"/>
        <pt x="512" y="584" on="0"/>
        <pt x="466" y="601" on="0"/>
        <pt x="429" y="601" on="1"/>
        <pt x="373" y="601" on="1"/>
        <pt x="329" y="339" on="1"/>
        <pt x="345" y="339" on="1"/>
        <pt x="367" y="339" on="0"/>
        <pt x="398" y="344" on="0"/>
        <pt x="417" y="359" on="0"/>
        <pt x="427" y="385" on="0"/>
        <pt x="430" y="406" on="1"/>
        <pt x="474" y="415" on="0"/>
        <pt x="521" y="411" on="1"/>
        <pt x="514" y="383" on="0"/>
        <pt x="502" y="320" on="0"/>
        <pt x="497" y="282" on="1"/>
        <pt x="493" y="255" on="0"/>
        <pt x="488" y="194" on="0"/>
        <pt x="487" y="168" on="1"/>
        <pt x="463" y="169" on="0"/>
        <pt x="421" y="175" on="0"/>
        <pt x="401" y="183" on="1"/>
        <pt x="402" y="220" on="0"/>
        <pt x="379" y="264" on="0"/>
        <pt x="335" y="264" on="1"/>
        <pt x="317" y="264" on="1"/>
        <pt x="304" y="187" on="1"/>
        <pt x="298" y="155" on="0"/>
        <pt x="297" y="116" on="0"/>
        <pt x="313" y="92" on="0"/>
        <pt x="352" y="80" on="0"/>
        <pt x="386" y="75" on="1"/>
        <pt x="389" y="58" on="0"/>
        <pt x="390" y="17" on="0"/>
        <pt x="388" y="-3" on="1"/>
        <pt x="346" y="-1" on="0"/>
        <pt x="249" y="0" on="0"/>
        <pt x="197" y="0" on="1"/>
        <pt x="147" y="0" on="0"/>
        <pt x="48" y="-1" on="0"/>
        <pt x="6" y="-3" on="1"/>
        <pt x="11" y="42" on="0"/>
        <pt x="25" y="75" on="1"/>
        <pt x="44" y="76" on="0"/>
        <pt x="70" y="86" on="0"/>
        <pt x="87" y="112" on="0"/>
        <pt x="100" y="159" on="0"/>
        <pt x="106" y="197" on="1"/>
      </contour>
    </TTGlyph>
    <TTGlyph name="G" xMin="37" yMin="-9" xMax="676" yMax="685">
      <contour>
        <pt x="452" y="685" on="1"/>
        <pt x="520" y="685" on="0"/>
        <pt x="633" y="660" on="0"/>
        <pt x="674" y="634" on="1"/>
        <pt x="664" y="603" on="0"/>
        <pt x="647" y="518" on="0"/>
        <pt x="642" y="480" on="1"/>
        <pt x="619" y="470" on="0"/>
        <pt x="567" y="465" on="0"/>
        <pt x="542" y="469" on="1"/>
        <pt x="548" y="546" on="0"/>
        <pt x="503" y="607" on="0"/>
        <pt x="448" y="607" on="1"/>
        <pt x="407" y="607" on="0"/>
        <pt x="341" y="563" on="0"/>
        <pt x="292" y="490" on="0"/>
        <pt x="260" y="396" on="0"/>
        <pt x="251" y="347" on="1"/>
        <pt x="240" y="286" on="0"/>
        <pt x="244" y="184" on="0"/>
        <pt x="270" y="111" on="0"/>
        <pt x="319" y="71" on="0"/>
        <pt x="354" y="71" on="1"/>
        <pt x="371" y="71" on="0"/>
        <pt x="390" y="75" on="0"/>
        <pt x="398" y="80" on="1"/>
        <pt x="410" y="87" on="0"/>
        <pt x="423" y="118" on="0"/>
        <pt x="429" y="155" on="1"/>
        <pt x="434" y="184" on="0"/>
        <pt x="433" y="221" on="0"/>
        <pt x="419" y="242" on="0"/>
        <pt x="391" y="252" on="0"/>
        <pt x="370" y="255" on="1"/>
        <pt x="367" y="272" on="0"/>
        <pt x="366" y="313" on="0"/>
        <pt x="369" y="333" on="1"/>
        <pt x="406" y="331" on="0"/>
        <pt x="486" y="330" on="0"/>
        <pt x="519" y="330" on="1"/>
        <pt x="558" y="330" on="0"/>
        <pt x="631" y="331" on="0"/>
        <pt x="676" y="333" on="1"/>
        <pt x="676" y="293" on="0"/>
        <pt x="662" y="255" on="1"/>
        <pt x="648" y="253" on="0"/>
        <pt x="630" y="247" on="0"/>
        <pt x="617" y="224" on="0"/>
        <pt x="605" y="177" on="0"/>
        <pt x="598" y="135" on="1"/>
        <pt x="595" y="110" on="0"/>
        <pt x="597" y="77" on="0"/>
        <pt x="602" y="54" on="1"/>
        <pt x="552" y="27" on="0"/>
        <pt x="416" y="-9" on="0"/>
        <pt x="343" y="-9" on="1"/>
        <pt x="261" y="-9" on="0"/>
        <pt x="138" y="46" on="0"/>
        <pt x="63" y="145" on="0"/>
        <pt x="37" y="281" on="0"/>
        <pt x="51" y="363" on="1"/>
        <pt x="65" y="445" on="0"/>
        <pt x="142" y="566" on="0"/>
        <pt x="251" y="646" on="0"/>
        <pt x="383" y="685" on="0"/>
      </contour>
    </TTGlyph>
    <TTGlyph name="Germandbls" xMin="-23" yMin="-9" xMax="730" yMax="679">
      <contour>
        <pt x="112" y="422" on="1"/>
        <pt x="126" y="503" on="0"/>
        <pt x="187" y="604" on="0"/>
        <pt x="274" y="659" on="0"/>
        <pt x="382" y="679" on="0"/>
        <pt x="442" y="679" on="1"/>
        <pt x="484" y="679" on="0"/>
        <pt x="568" y="676" on="0"/>
        <pt x="603" y="676" on="1"/>
        <pt x="630" y="676" on="0"/>
        <pt x="680" y="677" on="0"/>
        <pt x="709" y="679" on="1"/>
        <pt x="718" y="666" on="0"/>
        <pt x="730" y="617" on="0"/>
        <pt x="728" y="595" on="1"/>
        <pt x="697" y="547" on="0"/>
        <pt x="618" y="445" on="0"/>
        <pt x="576" y="398" on="1"/>
        <pt x="651" y="378" on="0"/>
        <pt x="716" y="274" on="0"/>
        <pt x="701" y="185" on="1"/>
        <pt x="684" y="90" on="0"/>
        <pt x="554" y="-9" on="0"/>
        <pt x="433" y="-9" on="1"/>
        <pt x="379" y="-9" on="0"/>
        <pt x="307" y="19" on="0"/>
        <pt x="279" y="44" on="1"/>
        <pt x="289" y="75" on="0"/>
        <pt x="304" y="154" on="0"/>
        <pt x="306" y="183" on="1"/>
        <pt x="328" y="191" on="0"/>
        <pt x="381" y="193" on="0"/>
        <pt x="409" y="186" on="1"/>
        <pt x="406" y="152" on="0"/>
        <pt x="407" y="109" on="0"/>
        <pt x="414" y="84" on="0"/>
        <pt x="428" y="75" on="0"/>
        <pt x="437" y="75" on="1"/>
        <pt x="456" y="75" on="0"/>
        <pt x="488" y="116" on="0"/>
        <pt x="496" y="158" on="1"/>
        <pt x="503" y="201" on="0"/>
        <pt x="491" y="265" on="0"/>
        <pt x="457" y="308" on="0"/>
        <pt x="405" y="332" on="0"/>
        <pt x="372" y="337" on="1"/>
        <pt x="361" y="354" on="0"/>
        <pt x="352" y="398" on="0"/>
        <pt x="354" y="421" on="1"/>
        <pt x="391" y="456" on="0"/>
        <pt x="470" y="551" on="0"/>
        <pt x="507" y="603" on="1"/>
        <pt x="489" y="604" on="0"/>
        <pt x="456" y="604" on="0"/>
        <pt x="440" y="604" on="1"/>
        <pt x="415" y="604" on="0"/>
        <pt x="375" y="585" on="0"/>
        <pt x="344" y="541" on="0"/>
        <pt x="319" y="466" on="0"/>
        <pt x="310" y="411" on="1"/>
        <pt x="242" y="0" on="1"/>
        <pt x="187" y="0" on="0"/>
        <pt x="49" y="-1" on="0"/>
        <pt x="-23" y="-3" on="1"/>
        <pt x="-21" y="19" on="0"/>
        <pt x="-12" y="55" on="0"/>
        <pt x="-4" y="75" on="1"/>
        <pt x="14" y="78" on="0"/>
        <pt x="38" y="87" on="0"/>
        <pt x="54" y="108" on="0"/>
        <pt x="65" y="145" on="0"/>
        <pt x="70" y="177" on="1"/>
      </contour>
    </TTGlyph>
    <TTGlyph name="H" xMin="10" yMin="-3" xMax="844" yMax="679">
      <contour>
        <pt x="554" y="501" on="1"/>
        <pt x="559" y="530" on="0"/>
        <pt x="561" y="567" on="0"/>
        <pt x="551" y="588" on="0"/>
        <pt x="526" y="598" on="0"/>
        <pt x="505" y="601" on="1"/>
        <pt x="502" y="618" on="0"/>
        <pt x="501" y="659" on="0"/>
        <pt x="504" y="679" on="1"/>
        <pt x="541" y="677" on="0"/>
        <pt x="624" y="676" on="0"/>
        <pt x="672" y="676" on="1"/>
        <pt x="711" y="676" on="0"/>
        <pt x="799" y="677" on="0"/>
        <pt x="844" y="679" on="1"/>
        <pt x="844" y="639" on="0"/>
        <pt x="830" y="601" on="1"/>
        <pt x="809" y="599" on="0"/>
        <pt x="785" y="589" on="0"/>
        <pt x="769" y="564" on="0"/>
        <pt x="758" y="519" on="0"/>
        <pt x="751" y="481" on="1"/>
        <pt x="699" y="180" on="1"/>
        <pt x="693" y="148" on="0"/>
        <pt x="692" y="110" on="0"/>
        <pt x="701" y="88" on="0"/>
        <pt x="724" y="78" on="0"/>
        <pt x="742" y="75" on="1"/>
        <pt x="745" y="55" on="0"/>
        <pt x="746" y="18" on="0"/>
        <pt x="744" y="-3" on="1"/>
        <pt x="701" y="-1" on="0"/>
        <pt x="630" y="0" on="0"/>
        <pt x="581" y="0" on="1"/>
        <pt x="526" y="0" on="0"/>
        <pt x="441" y="-1" on="0"/>
        <pt x="406" y="-3" on="1"/>
        <pt x="408" y="19" on="0"/>
        <pt x="417" y="55" on="0"/>
        <pt x="425" y="75" on="1"/>
        <pt x="443" y="78" on="0"/>
        <pt x="467" y="87" on="0"/>
        <pt x="483" y="108" on="0"/>
        <pt x="493" y="145" on="0"/>
        <pt x="499" y="177" on="1"/>
        <pt x="519" y="296" on="1"/>
        <pt x="470" y="295" on="0"/>
        <pt x="369" y="293" on="0"/>
        <pt x="322" y="290" on="1"/>
        <pt x="303" y="180" on="1"/>
        <pt x="297" y="148" on="0"/>
        <pt x="296" y="110" on="0"/>
        <pt x="305" y="88" on="0"/>
        <pt x="328" y="78" on="0"/>
        <pt x="346" y="75" on="1"/>
        <pt x="349" y="55" on="0"/>
        <pt x="350" y="18" on="0"/>
        <pt x="348" y="-3" on="1"/>
        <pt x="305" y="-1" on="0"/>
        <pt x="234" y="0" on="0"/>
        <pt x="185" y="0" on="1"/>
        <pt x="130" y="0" on="0"/>
        <pt x="45" y="-1" on="0"/>
        <pt x="10" y="-3" on="1"/>
        <pt x="12" y="19" on="0"/>
        <pt x="21" y="55" on="0"/>
        <pt x="29" y="75" on="1"/>
        <pt x="47" y="78" on="0"/>
        <pt x="71" y="87" on="0"/>
        <pt x="87" y="108" on="0"/>
        <pt x="97" y="145" on="0"/>
        <pt x="103" y="177" on="1"/>
        <pt x="158" y="501" on="1"/>
        <pt x="163" y="530" on="0"/>
        <pt x="165" y="567" on="0"/>
        <pt x="155" y="588" on="0"/>
        <pt x="130" y="598" on="0"/>
        <pt x="109" y="601" on="1"/>
        <pt x="106" y="618" on="0"/>
        <pt x="105" y="659" on="0"/>
        <pt x="108" y="679" on="1"/>
        <pt x="145" y="677" on="0"/>
        <pt x="228" y="676" on="0"/>
        <pt x="276" y="676" on="1"/>
        <pt x="315" y="676" on="0"/>
        <pt x="403" y="677" on="0"/>
        <pt x="448" y="679" on="1"/>
        <pt x="448" y="639" on="0"/>
        <pt x="434" y="601" on="1"/>
        <pt x="413" y="599" on="0"/>
        <pt x="389" y="589" on="0"/>
        <pt x="373" y="564" on="0"/>
        <pt x="362" y="519" on="0"/>
        <pt x="355" y="481" on="1"/>
        <pt x="337" y="377" on="1"/>
        <pt x="533" y="377" on="1"/>
      </contour>
    </TTGlyph>
    <TTGlyph name="I" xMin="10" yMin="-3" xMax="448" yMax="679">
      <contour>
        <pt x="158" y="501" on="1"/>
        <pt x="163" y="530" on="0"/>
        <pt x="165" y="567" on="0"/>
        <pt x="155" y="588" on="0"/>
        <pt x="130" y="598" on="0"/>
        <pt x="109" y="601" on="1"/>
        <pt x="106" y="618" on="0"/>
        <pt x="105" y="659" on="0"/>
        <pt x="108" y="679" on="1"/>
        <pt x="145" y="677" on="0"/>
        <pt x="228" y="676" on="0"/>
        <pt x="276" y="676" on="1"/>
        <pt x="315" y="676" on="0"/>
        <pt x="403" y="677" on="0"/>
        <pt x="448" y="679" on="1"/>
        <pt x="448" y="639" on="0"/>
        <pt x="434" y="601" on="1"/>
        <pt x="413" y="599" on="0"/>
        <pt x="389" y="589" on="0"/>
        <pt x="373" y="564" on="0"/>
        <pt x="362" y="519" on="0"/>
        <pt x="355" y="481" on="1"/>
        <pt x="303" y="180" on="1"/>
        <pt x="297" y="148" on="0"/>
        <pt x="296" y="110" on="0"/>
        <pt x="305" y="88" on="0"/>
        <pt x="328" y="78" on="0"/>
        <pt x="346" y="75" on="1"/>
        <pt x="349" y="55" on="0"/>
        <pt x="350" y="18" on="0"/>
        <pt x="348" y="-3" on="1"/>
        <pt x="305" y="-1" on="0"/>
        <pt x="234" y="0" on="0"/>
        <pt x="185" y="0" on="1"/>
        <pt x="130" y="0" on="0"/>
        <pt x="45" y="-1" on="0"/>
        <pt x="10" y="-3" on="1"/>
        <pt x="12" y="19" on="0"/>
        <pt x="21" y="55" on="0"/>
        <pt x="29" y="75" on="1"/>
        <pt x="47" y="78" on="0"/>
        <pt x="71" y="87" on="0"/>
        <pt x="87" y="108" on="0"/>
        <pt x="97" y="145" on="0"/>
        <pt x="103" y="177" on="1"/>
      </contour>
    </TTGlyph>
    <TTGlyph name="Iacute" xMin="10" yMin="-3" xMax="464" yMax="944">
      <component glyphName="I" x="0" y="0" flags="0x204"/>
      <component glyphName="acute" x="15" y="218" flags="0x4"/>
    </TTGlyph>
    <TTGlyph name="Icircumflex" xMin="10" yMin="-3" xMax="508" yMax="940">
      <component glyphName="I" x="0" y="0" flags="0x204"/>
      <component glyphName="circumflex" x="61" y="218" flags="0x4"/>
    </TTGlyph>
    <TTGlyph name="Idieresis" xMin="10" yMin="-3" xMax="515" yMax="897">
      <component glyphName="dieresis" x="-33" y="218" flags="0x4"/>
      <component glyphName="I" x="0" y="0" flags="0x4"/>
      <component glyphName="I" x="0" y="0" flags="0x4"/>
    </TTGlyph>
    <TTGlyph name="Igrave" xMin="10" yMin="-3" xMax="448" yMax="931">
      <component glyphName="I" x="0" y="0" flags="0x204"/>
      <component glyphName="grave" x="34" y="218" flags="0x4"/>
    </TTGlyph>
    <TTGlyph name="J" xMin="-55" yMin="-246" xMax="456" yMax="679">
      <contour>
        <pt x="165" y="498" on="1"/>
        <pt x="171" y="529" on="0"/>
        <pt x="173" y="568" on="0"/>
        <pt x="163" y="590" on="0"/>
        <pt x="139" y="599" on="0"/>
        <pt x="118" y="601" on="1"/>
        <pt x="113" y="620" on="0"/>
        <pt x="114" y="659" on="0"/>
        <pt x="116" y="679" on="1"/>
        <pt x="152" y="677" on="0"/>
        <pt x="242" y="676" on="0"/>
        <pt x="288" y="676" on="1"/>
        <pt x="333" y="676" on="0"/>
        <pt x="423" y="677" on="0"/>
        <pt x="456" y="679" on="1"/>
        <pt x="454" y="635" on="0"/>
        <pt x="444" y="601" on="1"/>
        <pt x="424" y="599" on="0"/>
        <pt x="399" y="591" on="0"/>
        <pt x="382" y="567" on="0"/>
        <pt x="369" y="519" on="0"/>
        <pt x="362" y="478" on="1"/>
        <pt x="300" y="125" on="1"/>
        <pt x="288" y="56" on="0"/>
        <pt x="250" y="-56" on="0"/>
        <pt x="179" y="-146" on="0"/>
        <pt x="64" y="-218" on="0"/>
        <pt x="-24" y="-246" on="1"/>
        <pt x="-43" y="-230" on="0"/>
        <pt x="-55" y="-185" on="0"/>
        <pt x="-55" y="-159" on="1"/>
        <pt x="-25" y="-144" on="0"/>
        <pt x="21" y="-108" on="0"/>
        <pt x="56" y="-55" on="0"/>
        <pt x="82" y="19" on="0"/>
        <pt x="91" y="72" on="1"/>
      </contour>
    </TTGlyph>
    <TTGlyph name="K" xMin="10" yMin="-9" xMax="798" yMax="679">
      <contour>
        <pt x="494" y="516" on="1"/>
        <pt x="521" y="539" on="0"/>
        <pt x="550" y="569" on="0"/>
        <pt x="559" y="587" on="0"/>
        <pt x="549" y="597" on="0"/>
        <pt x="536" y="601" on="1"/>
        <pt x="533" y="618" on="0"/>
        <pt x="533" y="659" on="0"/>
        <pt x="535" y="679" on="1"/>
        <pt x="564" y="677" on="0"/>
        <pt x="635" y="676" on="0"/>
        <pt x="661" y="676" on="1"/>
        <pt x="677" y="676" on="0"/>
        <pt x="717" y="676" on="0"/>
        <pt x="756" y="677" on="0"/>
        <pt x="789" y="678" on="0"/>
        <pt x="798" y="679" on="1"/>
        <pt x="798" y="660" on="0"/>
        <pt x="792" y="621" on="0"/>
        <pt x="784" y="600" on="1"/>
        <pt x="763" y="598" on="0"/>
        <pt x="732" y="592" on="0"/>
        <pt x="698" y="575" on="0"/>
        <pt x="657" y="544" on="0"/>
        <pt x="627" y="519" on="1"/>
        <pt x="474" y="392" on="1"/>
        <pt x="516" y="351" on="0"/>
        <pt x="583" y="249" on="0"/>
        <pt x="612" y="182" on="1"/>
        <pt x="626" y="147" on="0"/>
        <pt x="653" y="122" on="0"/>
        <pt x="672" y="122" on="1"/>
        <pt x="685" y="122" on="0"/>
        <pt x="711" y="128" on="0"/>
        <pt x="721" y="134" on="1"/>
        <pt x="732" y="123" on="0"/>
        <pt x="750" y="84" on="0"/>
        <pt x="752" y="67" on="1"/>
        <pt x="717" y="30" on="0"/>
        <pt x="625" y="-9" on="0"/>
        <pt x="573" y="-9" on="1"/>
        <pt x="508" y="-9" on="0"/>
        <pt x="434" y="46" on="0"/>
        <pt x="412" y="114" on="1"/>
        <pt x="395" y="170" on="0"/>
        <pt x="353" y="258" on="0"/>
        <pt x="324" y="303" on="1"/>
        <pt x="302" y="177" on="1"/>
        <pt x="297" y="146" on="0"/>
        <pt x="295" y="109" on="0"/>
        <pt x="303" y="87" on="0"/>
        <pt x="321" y="78" on="0"/>
        <pt x="336" y="75" on="1"/>
        <pt x="339" y="55" on="0"/>
        <pt x="340" y="18" on="0"/>
        <pt x="338" y="-3" on="1"/>
        <pt x="317" y="-2" on="0"/>
        <pt x="282" y="-1" on="0"/>
        <pt x="247" y="0" on="0"/>
        <pt x="209" y="0" on="0"/>
        <pt x="185" y="0" on="1"/>
        <pt x="130" y="0" on="0"/>
        <pt x="45" y="-1" on="0"/>
        <pt x="10" y="-3" on="1"/>
        <pt x="12" y="19" on="0"/>
        <pt x="21" y="55" on="0"/>
        <pt x="29" y="75" on="1"/>
        <pt x="51" y="76" on="0"/>
        <pt x="76" y="89" on="0"/>
        <pt x="91" y="117" on="0"/>
        <pt x="100" y="162" on="0"/>
        <pt x="106" y="197" on="1"/>
        <pt x="158" y="501" on="1"/>
        <pt x="163" y="530" on="0"/>
        <pt x="165" y="567" on="0"/>
        <pt x="155" y="588" on="0"/>
        <pt x="130" y="598" on="0"/>
        <pt x="109" y="601" on="1"/>
        <pt x="106" y="618" on="0"/>
        <pt x="105" y="659" on="0"/>
        <pt x="108" y="679" on="1"/>
        <pt x="145" y="677" on="0"/>
        <pt x="228" y="676" on="0"/>
        <pt x="276" y="676" on="1"/>
        <pt x="315" y="676" on="0"/>
        <pt x="403" y="677" on="0"/>
        <pt x="448" y="679" on="1"/>
        <pt x="448" y="639" on="0"/>
        <pt x="434" y="601" on="1"/>
        <pt x="413" y="599" on="0"/>
        <pt x="389" y="589" on="0"/>
        <pt x="373" y="564" on="0"/>
        <pt x="362" y="519" on="0"/>
        <pt x="355" y="481" on="1"/>
        <pt x="338" y="382" on="1"/>
      </contour>
    </TTGlyph>
    <TTGlyph name="L" xMin="10" yMin="-3" xMax="620" yMax="679">
      <contour>
        <pt x="376" y="75" on="1"/>
        <pt x="427" y="75" on="0"/>
        <pt x="494" y="151" on="0"/>
        <pt x="518" y="225" on="1"/>
        <pt x="580" y="212" on="0"/>
        <pt x="620" y="179" on="1"/>
        <pt x="614" y="164" on="0"/>
        <pt x="600" y="122" on="0"/>
        <pt x="588" y="74" on="0"/>
        <pt x="577" y="22" on="0"/>
        <pt x="574" y="-3" on="1"/>
        <pt x="548" y="-2" on="0"/>
        <pt x="483" y="-1" on="0"/>
        <pt x="414" y="0" on="0"/>
        <pt x="344" y="0" on="0"/>
        <pt x="314" y="0" on="1"/>
        <pt x="286" y="0" on="0"/>
        <pt x="197" y="0" on="0"/>
        <pt x="105" y="-1" on="0"/>
        <pt x="27" y="-2" on="0"/>
        <pt x="10" y="-3" on="1"/>
        <pt x="12" y="18" on="0"/>
        <pt x="21" y="55" on="0"/>
        <pt x="29" y="75" on="1"/>
        <pt x="49" y="77" on="0"/>
        <pt x="73" y="87" on="0"/>
        <pt x="89" y="112" on="0"/>
        <pt x="99" y="159" on="0"/>
        <pt x="106" y="197" on="1"/>
        <pt x="159" y="501" on="1"/>
        <pt x="164" y="530" on="0"/>
        <pt x="166" y="567" on="0"/>
        <pt x="155" y="588" on="0"/>
        <pt x="130" y="598" on="0"/>
        <pt x="109" y="601" on="1"/>
        <pt x="105" y="618" on="0"/>
        <pt x="105" y="659" on="0"/>
        <pt x="108" y="679" on="1"/>
        <pt x="145" y="677" on="0"/>
        <pt x="228" y="676" on="0"/>
        <pt x="281" y="676" on="1"/>
        <pt x="300" y="676" on="0"/>
        <pt x="347" y="676" on="0"/>
        <pt x="397" y="677" on="0"/>
        <pt x="446" y="678" on="0"/>
        <pt x="468" y="679" on="1"/>
        <pt x="468" y="660" on="0"/>
        <pt x="462" y="621" on="0"/>
        <pt x="454" y="601" on="1"/>
        <pt x="427" y="598" on="0"/>
        <pt x="394" y="588" on="0"/>
        <pt x="374" y="563" on="0"/>
        <pt x="361" y="518" on="0"/>
        <pt x="355" y="481" on="1"/>
        <pt x="303" y="182" on="1"/>
        <pt x="297" y="147" on="0"/>
        <pt x="296" y="105" on="0"/>
        <pt x="309" y="83" on="0"/>
        <pt x="336" y="75" on="0"/>
        <pt x="359" y="75" on="1"/>
      </contour>
    </TTGlyph>
    <TTGlyph name="M" xMin="-36" yMin="-9" xMax="976" yMax="679">
      <contour>
        <pt x="894" y="475" on="1"/>
        <pt x="890" y="406" on="0"/>
        <pt x="883" y="270" on="0"/>
        <pt x="877" y="201" on="1"/>
        <pt x="874" y="165" on="0"/>
        <pt x="873" y="118" on="0"/>
        <pt x="883" y="90" on="0"/>
        <pt x="904" y="77" on="0"/>
        <pt x="923" y="75" on="1"/>
        <pt x="927" y="58" on="0"/>
        <pt x="927" y="17" on="0"/>
        <pt x="924" y="-3" on="1"/>
        <pt x="887" y="-1" on="0"/>
        <pt x="804" y="0" on="0"/>
        <pt x="751" y="0" on="1"/>
        <pt x="712" y="0" on="0"/>
        <pt x="619" y="-1" on="0"/>
        <pt x="574" y="-3" on="1"/>
        <pt x="574" y="16" on="0"/>
        <pt x="580" y="55" on="0"/>
        <pt x="588" y="75" on="1"/>
        <pt x="614" y="78" on="0"/>
        <pt x="645" y="91" on="0"/>
        <pt x="663" y="121" on="0"/>
        <pt x="672" y="171" on="0"/>
        <pt x="676" y="210" on="1"/>
        <pt x="684" y="276" on="0"/>
        <pt x="692" y="408" on="0"/>
        <pt x="696" y="475" on="1"/>
        <pt x="633" y="354" on="0"/>
        <pt x="500" y="115" on="0"/>
        <pt x="428" y="-3" on="1"/>
        <pt x="405" y="-8" on="0"/>
        <pt x="369" y="-9" on="0"/>
        <pt x="352" y="-9" on="1"/>
        <pt x="323" y="117" on="0"/>
        <pt x="258" y="363" on="0"/>
        <pt x="220" y="484" on="1"/>
        <pt x="212" y="450" on="0"/>
        <pt x="195" y="378" on="0"/>
        <pt x="178" y="309" on="0"/>
        <pt x="161" y="245" on="0"/>
        <pt x="154" y="218" on="1"/>
        <pt x="144" y="180" on="0"/>
        <pt x="136" y="130" on="0"/>
        <pt x="143" y="98" on="0"/>
        <pt x="167" y="80" on="0"/>
        <pt x="190" y="75" on="1"/>
        <pt x="193" y="57" on="0"/>
        <pt x="193" y="17" on="0"/>
        <pt x="191" y="-3" on="1"/>
        <pt x="171" y="-1" on="0"/>
        <pt x="117" y="0" on="0"/>
        <pt x="88" y="0" on="1"/>
        <pt x="53" y="0" on="0"/>
        <pt x="-14" y="-1" on="0"/>
        <pt x="-36" y="-3" on="1"/>
        <pt x="-36" y="17" on="0"/>
        <pt x="-29" y="58" on="0"/>
        <pt x="-21" y="75" on="1"/>
        <pt x="-5" y="80" on="0"/>
        <pt x="18" y="97" on="0"/>
        <pt x="39" y="129" on="0"/>
        <pt x="59" y="178" on="0"/>
        <pt x="71" y="216" on="1"/>
        <pt x="84" y="258" on="0"/>
        <pt x="107" y="333" on="0"/>
        <pt x="126" y="404" on="0"/>
        <pt x="143" y="475" on="0"/>
        <pt x="152" y="514" on="1"/>
        <pt x="158" y="540" on="0"/>
        <pt x="160" y="572" on="0"/>
        <pt x="151" y="590" on="0"/>
        <pt x="127" y="598" on="0"/>
        <pt x="107" y="601" on="1"/>
        <pt x="103" y="618" on="0"/>
        <pt x="103" y="659" on="0"/>
        <pt x="106" y="679" on="1"/>
        <pt x="119" y="678" on="0"/>
        <pt x="157" y="677" on="0"/>
        <pt x="195" y="676" on="0"/>
        <pt x="229" y="676" on="0"/>
        <pt x="240" y="676" on="1"/>
        <pt x="267" y="676" on="0"/>
        <pt x="343" y="677" on="0"/>
        <pt x="380" y="679" on="1"/>
        <pt x="411" y="575" on="0"/>
        <pt x="466" y="367" on="0"/>
        <pt x="489" y="261" on="1"/>
        <pt x="551" y="365" on="0"/>
        <pt x="664" y="573" on="0"/>
        <pt x="718" y="679" on="1"/>
        <pt x="760" y="677" on="0"/>
        <pt x="836" y="676" on="0"/>
        <pt x="857" y="676" on="1"/>
        <pt x="884" y="676" on="0"/>
        <pt x="939" y="677" on="0"/>
        <pt x="976" y="679" on="1"/>
        <pt x="976" y="638" on="0"/>
        <pt x="963" y="601" on="1"/>
        <pt x="943" y="597" on="0"/>
        <pt x="918" y="582" on="0"/>
        <pt x="903" y="553" on="0"/>
        <pt x="896" y="508" on="0"/>
      </contour>
    </TTGlyph>
    <TTGlyph name="N" xMin="6" yMin="-9" xMax="775" yMax="679">
      <contour>
        <pt x="175" y="573" on="1"/>
        <pt x="166" y="588" on="0"/>
        <pt x="141" y="599" on="0"/>
        <pt x="109" y="601" on="1"/>
        <pt x="105" y="619" on="0"/>
        <pt x="105" y="656" on="0"/>
        <pt x="108" y="679" on="1"/>
        <pt x="139" y="677" on="0"/>
        <pt x="206" y="676" on="0"/>
        <pt x="235" y="676" on="1"/>
        <pt x="263" y="676" on="0"/>
        <pt x="325" y="677" on="0"/>
        <pt x="351" y="679" on="1"/>
        <pt x="410" y="586" on="0"/>
        <pt x="520" y="391" on="0"/>
        <pt x="569" y="292" on="1"/>
        <pt x="576" y="334" on="0"/>
        <pt x="587" y="417" on="0"/>
        <pt x="592" y="458" on="1"/>
        <pt x="596" y="497" on="0"/>
        <pt x="598" y="547" on="0"/>
        <pt x="586" y="578" on="0"/>
        <pt x="557" y="595" on="0"/>
        <pt x="530" y="601" on="1"/>
        <pt x="527" y="619" on="0"/>
        <pt x="527" y="659" on="0"/>
        <pt x="529" y="679" on="1"/>
        <pt x="563" y="677" on="0"/>
        <pt x="625" y="676" on="0"/>
        <pt x="648" y="676" on="1"/>
        <pt x="677" y="676" on="0"/>
        <pt x="743" y="677" on="0"/>
        <pt x="775" y="679" on="1"/>
        <pt x="774" y="659" on="0"/>
        <pt x="766" y="616" on="0"/>
        <pt x="760" y="601" on="1"/>
        <pt x="739" y="594" on="0"/>
        <pt x="710" y="577" on="0"/>
        <pt x="690" y="547" on="0"/>
        <pt x="677" y="497" on="0"/>
        <pt x="671" y="458" on="1"/>
        <pt x="654" y="343" on="0"/>
        <pt x="616" y="116" on="0"/>
        <pt x="592" y="1" on="1"/>
        <pt x="571" y="-5" on="0"/>
        <pt x="528" y="-9" on="0"/>
        <pt x="500" y="-9" on="1"/>
        <pt x="438" y="112" on="0"/>
        <pt x="309" y="347" on="0"/>
        <pt x="240" y="464" on="1"/>
        <pt x="219" y="339" on="0"/>
        <pt x="195" y="218" on="1"/>
        <pt x="187" y="179" on="0"/>
        <pt x="183" y="129" on="0"/>
        <pt x="195" y="98" on="0"/>
        <pt x="224" y="81" on="0"/>
        <pt x="251" y="75" on="1"/>
        <pt x="254" y="57" on="0"/>
        <pt x="254" y="17" on="0"/>
        <pt x="252" y="-3" on="1"/>
        <pt x="218" y="-1" on="0"/>
        <pt x="156" y="0" on="0"/>
        <pt x="133" y="0" on="1"/>
        <pt x="104" y="0" on="0"/>
        <pt x="38" y="-1" on="0"/>
        <pt x="6" y="-3" on="1"/>
        <pt x="7" y="17" on="0"/>
        <pt x="15" y="60" on="0"/>
        <pt x="21" y="75" on="1"/>
        <pt x="43" y="82" on="0"/>
        <pt x="73" y="99" on="0"/>
        <pt x="95" y="130" on="0"/>
        <pt x="111" y="179" on="0"/>
        <pt x="119" y="218" on="1"/>
        <pt x="136" y="303" on="0"/>
        <pt x="167" y="475" on="0"/>
        <pt x="181" y="563" on="1"/>
      </contour>
    </TTGlyph>
    <TTGlyph name="Ntilde" xMin="6" yMin="-9" xMax="775" yMax="905">
      <component glyphName="N" x="0" y="0" flags="0x204"/>
      <component glyphName="tilde" x="219" y="218" flags="0x4"/>
    </TTGlyph>
    <TTGlyph name="O" xMin="34" yMin="-9" xMax="752" yMax="685">
      <contour>
        <pt x="444" y="685" on="1"/>
        <pt x="524" y="685" on="0"/>
        <pt x="647" y="635" on="0"/>
        <pt x="724" y="543" on="0"/>
        <pt x="752" y="413" on="0"/>
        <pt x="737" y="334" on="1"/>
        <pt x="722" y="257" on="0"/>
        <pt x="653" y="131" on="0"/>
        <pt x="549" y="41" on="0"/>
        <pt x="417" y="-9" on="0"/>
        <pt x="339" y="-9" on="1"/>
        <pt x="256" y="-9" on="0"/>
        <pt x="134" y="45" on="0"/>
        <pt x="59" y="141" on="0"/>
        <pt x="34" y="273" on="0"/>
        <pt x="49" y="351" on="1"/>
        <pt x="64" y="431" on="0"/>
        <pt x="136" y="555" on="0"/>
        <pt x="239" y="641" on="0"/>
        <pt x="370" y="685" on="0"/>
      </contour>
      <contour>
        <pt x="434" y="610" on="1"/>
        <pt x="370" y="610" on="0"/>
        <pt x="277" y="473" on="0"/>
        <pt x="254" y="355" on="1"/>
        <pt x="242" y="295" on="0"/>
        <pt x="240" y="191" on="0"/>
        <pt x="262" y="113" on="0"/>
        <pt x="310" y="69" on="0"/>
        <pt x="348" y="69" on="1"/>
        <pt x="381" y="69" on="0"/>
        <pt x="438" y="110" on="0"/>
        <pt x="486" y="184" on="0"/>
        <pt x="523" y="289" on="0"/>
        <pt x="535" y="353" on="1"/>
        <pt x="545" y="407" on="0"/>
        <pt x="541" y="500" on="0"/>
        <pt x="516" y="570" on="0"/>
        <pt x="468" y="610" on="0"/>
      </contour>
    </TTGlyph>
    <TTGlyph name="Oacute" xMin="34" yMin="-9" xMax="752" yMax="944">
      <component glyphName="O" x="0" y="0" flags="0x204"/>
      <component glyphName="acute" x="181" y="218" flags="0x4"/>
    </TTGlyph>
    <TTGlyph name="Ocircumflex" xMin="34" yMin="-9" xMax="752" yMax="940">
      <component glyphName="O" x="0" y="0" flags="0x204"/>
      <component glyphName="circumflex" x="227" y="218" flags="0x4"/>
    </TTGlyph>
    <TTGlyph name="Odieresis" xMin="34" yMin="-9" xMax="752" yMax="897">
      <component glyphName="O" x="0" y="0" flags="0x204"/>
      <component glyphName="dieresis" x="132" y="218" flags="0x4"/>
    </TTGlyph>
    <TTGlyph name="Ograve" xMin="34" yMin="-9" xMax="752" yMax="931">
      <component glyphName="O" x="0" y="0" flags="0x204"/>
      <component glyphName="grave" x="200" y="218" flags="0x4"/>
    </TTGlyph>
    <TTGlyph name="Oslash" xMin="34" yMin="-9" xMax="752" yMax="685">
      <contour>
        <pt x="97" y="92" on="1"/>
        <pt x="59" y="140" on="0"/>
        <pt x="34" y="272" on="0"/>
        <pt x="49" y="351" on="1"/>
        <pt x="64" y="431" on="0"/>
        <pt x="136" y="555" on="0"/>
        <pt x="239" y="641" on="0"/>
        <pt x="370" y="685" on="0"/>
        <pt x="444" y="685" on="1"/>
        <pt x="496" y="685" on="0"/>
        <pt x="585" y="663" on="0"/>
        <pt x="620" y="643" on="1"/>
        <pt x="660" y="685" on="1"/>
        <pt x="721" y="685" on="0"/>
        <pt x="743" y="648" on="1"/>
        <pt x="684" y="591" on="1"/>
        <pt x="724" y="544" on="0"/>
        <pt x="752" y="415" on="0"/>
        <pt x="737" y="334" on="1"/>
        <pt x="722" y="257" on="0"/>
        <pt x="653" y="131" on="0"/>
        <pt x="549" y="41" on="0"/>
        <pt x="417" y="-9" on="0"/>
        <pt x="339" y="-9" on="1"/>
        <pt x="285" y="-9" on="0"/>
        <pt x="197" y="14" on="0"/>
        <pt x="162" y="35" on="1"/>
        <pt x="124" y="-9" on="1"/>
        <pt x="98" y="-9" on="0"/>
        <pt x="51" y="15" on="0"/>
        <pt x="43" y="35" on="1"/>
      </contour>
      <contour>
        <pt x="526" y="543" on="1"/>
        <pt x="512" y="575" on="0"/>
        <pt x="466" y="610" on="0"/>
        <pt x="434" y="610" on="1"/>
        <pt x="370" y="610" on="0"/>
        <pt x="277" y="473" on="0"/>
        <pt x="254" y="355" on="1"/>
        <pt x="248" y="325" on="0"/>
        <pt x="242" y="270" on="0"/>
        <pt x="241" y="244" on="1"/>
      </contour>
      <contour>
        <pt x="543" y="450" on="1"/>
        <pt x="468" y="373" on="0"/>
        <pt x="327" y="221" on="0"/>
        <pt x="255" y="140" on="1"/>
        <pt x="267" y="107" on="0"/>
        <pt x="313" y="69" on="0"/>
        <pt x="348" y="69" on="1"/>
        <pt x="381" y="69" on="0"/>
        <pt x="438" y="110" on="0"/>
        <pt x="486" y="184" on="0"/>
        <pt x="523" y="289" on="0"/>
        <pt x="535" y="353" on="1"/>
        <pt x="540" y="379" on="0"/>
        <pt x="544" y="427" on="0"/>
      </contour>
    </TTGlyph>
    <TTGlyph name="Otilde" xMin="34" yMin="-9" xMax="752" yMax="905">
      <component glyphName="O" x="0" y="0" flags="0x204"/>
      <component glyphName="tilde" x="218" y="218" flags="0x4"/>
    </TTGlyph>
    <TTGlyph name="P" xMin="12" yMin="-3" xMax="707" yMax="679">
      <contour>
        <pt x="160" y="501" on="1"/>
        <pt x="165" y="531" on="0"/>
        <pt x="166" y="567" on="0"/>
        <pt x="154" y="588" on="0"/>
        <pt x="129" y="598" on="0"/>
        <pt x="110" y="601" on="1"/>
        <pt x="107" y="617" on="0"/>
        <pt x="106" y="658" on="0"/>
        <pt x="108" y="679" on="1"/>
        <pt x="154" y="677" on="0"/>
        <pt x="239" y="676" on="0"/>
        <pt x="281" y="676" on="1"/>
        <pt x="329" y="676" on="0"/>
        <pt x="431" y="679" on="0"/>
        <pt x="499" y="679" on="1"/>
        <pt x="611" y="679" on="0"/>
        <pt x="707" y="547" on="0"/>
        <pt x="687" y="428" on="1"/>
        <pt x="679" y="381" on="0"/>
        <pt x="632" y="303" on="0"/>
        <pt x="559" y="246" on="0"/>
        <pt x="460" y="215" on="0"/>
        <pt x="399" y="215" on="1"/>
        <pt x="385" y="215" on="0"/>
        <pt x="360" y="219" on="0"/>
        <pt x="350" y="224" on="1"/>
        <pt x="350" y="231" on="0"/>
        <pt x="351" y="251" on="0"/>
        <pt x="355" y="271" on="0"/>
        <pt x="360" y="290" on="0"/>
        <pt x="363" y="297" on="1"/>
        <pt x="365" y="296" on="0"/>
        <pt x="372" y="295" on="0"/>
        <pt x="380" y="295" on="1"/>
        <pt x="397" y="295" on="0"/>
        <pt x="434" y="313" on="0"/>
        <pt x="466" y="347" on="0"/>
        <pt x="491" y="399" on="0"/>
        <pt x="497" y="432" on="1"/>
        <pt x="511" y="507" on="0"/>
        <pt x="470" y="601" on="0"/>
        <pt x="415" y="601" on="1"/>
        <pt x="394" y="601" on="0"/>
        <pt x="375" y="593" on="1"/>
        <pt x="305" y="187" on="1"/>
        <pt x="299" y="155" on="0"/>
        <pt x="299" y="115" on="0"/>
        <pt x="317" y="91" on="0"/>
        <pt x="355" y="79" on="0"/>
        <pt x="387" y="75" on="1"/>
        <pt x="391" y="56" on="0"/>
        <pt x="391" y="17" on="0"/>
        <pt x="389" y="-3" on="1"/>
        <pt x="347" y="-1" on="0"/>
        <pt x="253" y="0" on="0"/>
        <pt x="208" y="0" on="1"/>
        <pt x="151" y="0" on="0"/>
        <pt x="54" y="-1" on="0"/>
        <pt x="12" y="-3" on="1"/>
        <pt x="14" y="15" on="0"/>
        <pt x="22" y="56" on="0"/>
        <pt x="30" y="76" on="1"/>
        <pt x="49" y="77" on="0"/>
        <pt x="73" y="87" on="0"/>
        <pt x="89" y="112" on="0"/>
        <pt x="100" y="159" on="0"/>
        <pt x="107" y="197" on="1"/>
      </contour>
    </TTGlyph>
    <TTGlyph name="Q" xMin="34" yMin="-219" xMax="752" yMax="685">
      <contour>
        <pt x="715" y="-79" on="1"/>
        <pt x="726" y="-90" on="0"/>
        <pt x="746" y="-128" on="0"/>
        <pt x="748" y="-145" on="1"/>
        <pt x="679" y="-219" on="0"/>
        <pt x="573" y="-219" on="1"/>
        <pt x="515" y="-219" on="0"/>
        <pt x="446" y="-166" on="0"/>
        <pt x="428" y="-109" on="1"/>
        <pt x="413" y="-61" on="0"/>
        <pt x="365" y="-15" on="0"/>
        <pt x="320" y="-9" on="1"/>
        <pt x="242" y="-6" on="0"/>
        <pt x="127" y="51" on="0"/>
        <pt x="57" y="146" on="0"/>
        <pt x="34" y="275" on="0"/>
        <pt x="49" y="351" on="1"/>
        <pt x="64" y="431" on="0"/>
        <pt x="136" y="555" on="0"/>
        <pt x="239" y="641" on="0"/>
        <pt x="370" y="685" on="0"/>
        <pt x="444" y="685" on="1"/>
        <pt x="524" y="685" on="0"/>
        <pt x="647" y="635" on="0"/>
        <pt x="724" y="543" on="0"/>
        <pt x="752" y="413" on="0"/>
        <pt x="737" y="334" on="1"/>
        <pt x="726" y="275" on="0"/>
        <pt x="680" y="174" on="0"/>
        <pt x="613" y="91" on="0"/>
        <pt x="527" y="31" on="0"/>
        <pt x="476" y="13" on="1"/>
        <pt x="492" y="10" on="0"/>
        <pt x="519" y="-1" on="0"/>
        <pt x="550" y="-20" on="0"/>
        <pt x="587" y="-50" on="0"/>
        <pt x="612" y="-72" on="1"/>
        <pt x="630" y="-88" on="0"/>
        <pt x="654" y="-98" on="0"/>
        <pt x="668" y="-98" on="1"/>
        <pt x="693" y="-98" on="0"/>
      </contour>
      <contour>
        <pt x="254" y="355" on="1"/>
        <pt x="242" y="295" on="0"/>
        <pt x="240" y="191" on="0"/>
        <pt x="262" y="113" on="0"/>
        <pt x="310" y="69" on="0"/>
        <pt x="348" y="69" on="1"/>
        <pt x="381" y="69" on="0"/>
        <pt x="438" y="110" on="0"/>
        <pt x="486" y="184" on="0"/>
        <pt x="523" y="289" on="0"/>
        <pt x="535" y="353" on="1"/>
        <pt x="545" y="407" on="0"/>
        <pt x="541" y="500" on="0"/>
        <pt x="516" y="570" on="0"/>
        <pt x="468" y="610" on="0"/>
        <pt x="434" y="610" on="1"/>
        <pt x="370" y="610" on="0"/>
        <pt x="277" y="473" on="0"/>
      </contour>
    </TTGlyph>
    <TTGlyph name="R" xMin="10" yMin="-9" xMax="724" yMax="681">
      <contour>
        <pt x="158" y="501" on="1"/>
        <pt x="163" y="530" on="0"/>
        <pt x="165" y="567" on="0"/>
        <pt x="155" y="588" on="0"/>
        <pt x="130" y="598" on="0"/>
        <pt x="109" y="601" on="1"/>
        <pt x="106" y="618" on="0"/>
        <pt x="105" y="659" on="0"/>
        <pt x="108" y="679" on="1"/>
        <pt x="145" y="677" on="0"/>
        <pt x="235" y="676" on="0"/>
        <pt x="283" y="676" on="1"/>
        <pt x="312" y="676" on="0"/>
        <pt x="425" y="681" on="0"/>
        <pt x="487" y="681" on="1"/>
        <pt x="553" y="681" on="0"/>
        <pt x="646" y="647" on="0"/>
        <pt x="700" y="590" on="0"/>
        <pt x="719" y="515" on="0"/>
        <pt x="712" y="473" on="1"/>
        <pt x="706" y="435" on="0"/>
        <pt x="669" y="371" on="0"/>
        <pt x="616" y="322" on="0"/>
        <pt x="549" y="288" on="0"/>
        <pt x="513" y="280" on="1"/>
        <pt x="537" y="265" on="0"/>
        <pt x="577" y="210" on="0"/>
        <pt x="596" y="165" on="1"/>
        <pt x="607" y="136" on="0"/>
        <pt x="631" y="118" on="0"/>
        <pt x="648" y="118" on="1"/>
        <pt x="661" y="118" on="0"/>
        <pt x="683" y="126" on="0"/>
        <pt x="691" y="131" on="1"/>
        <pt x="702" y="120" on="0"/>
        <pt x="722" y="82" on="0"/>
        <pt x="724" y="65" on="1"/>
        <pt x="689" y="28" on="0"/>
        <pt x="591" y="-9" on="0"/>
        <pt x="539" y="-9" on="1"/>
        <pt x="509" y="-9" on="0"/>
        <pt x="465" y="6" on="0"/>
        <pt x="429" y="41" on="0"/>
        <pt x="400" y="98" on="0"/>
        <pt x="386" y="141" on="1"/>
        <pt x="370" y="187" on="0"/>
        <pt x="346" y="238" on="0"/>
        <pt x="329" y="259" on="1"/>
        <pt x="316" y="259" on="1"/>
        <pt x="302" y="177" on="1"/>
        <pt x="297" y="146" on="0"/>
        <pt x="294" y="109" on="0"/>
        <pt x="300" y="87" on="0"/>
        <pt x="317" y="78" on="0"/>
        <pt x="332" y="75" on="1"/>
        <pt x="335" y="55" on="0"/>
        <pt x="336" y="18" on="0"/>
        <pt x="334" y="-3" on="1"/>
        <pt x="313" y="-2" on="0"/>
        <pt x="279" y="-1" on="0"/>
        <pt x="246" y="0" on="0"/>
        <pt x="209" y="0" on="0"/>
        <pt x="185" y="0" on="1"/>
        <pt x="130" y="0" on="0"/>
        <pt x="45" y="-1" on="0"/>
        <pt x="10" y="-3" on="1"/>
        <pt x="12" y="19" on="0"/>
        <pt x="21" y="55" on="0"/>
        <pt x="29" y="75" on="1"/>
        <pt x="47" y="76" on="0"/>
        <pt x="71" y="86" on="0"/>
        <pt x="87" y="112" on="0"/>
        <pt x="100" y="159" on="0"/>
        <pt x="106" y="197" on="1"/>
      </contour>
      <contour>
        <pt x="332" y="348" on="1"/>
        <pt x="338" y="347" on="0"/>
        <pt x="349" y="347" on="0"/>
        <pt x="354" y="347" on="1"/>
        <pt x="377" y="347" on="0"/>
        <pt x="424" y="365" on="0"/>
        <pt x="465" y="401" on="0"/>
        <pt x="495" y="454" on="0"/>
        <pt x="501" y="489" on="1"/>
        <pt x="512" y="546" on="0"/>
        <pt x="470" y="603" on="0"/>
        <pt x="426" y="603" on="1"/>
        <pt x="412" y="603" on="0"/>
        <pt x="387" y="597" on="0"/>
        <pt x="374" y="592" on="1"/>
      </contour>
    </TTGlyph>
    <TTGlyph name="S" xMin="-7" yMin="-9" xMax="526" yMax="685">
      <contour>
        <pt x="343" y="685" on="1"/>
        <pt x="408" y="685" on="0"/>
        <pt x="501" y="656" on="0"/>
        <pt x="526" y="636" on="1"/>
        <pt x="521" y="597" on="0"/>
        <pt x="514" y="510" on="0"/>
        <pt x="515" y="481" on="1"/>
        <pt x="465" y="465" on="0"/>
        <pt x="404" y="471" on="1"/>
        <pt x="402" y="536" on="0"/>
        <pt x="353" y="605" on="0"/>
        <pt x="305" y="605" on="1"/>
        <pt x="277" y="605" on="0"/>
        <pt x="240" y="583" on="0"/>
        <pt x="235" y="558" on="1"/>
        <pt x="230" y="532" on="0"/>
        <pt x="251" y="493" on="0"/>
        <pt x="291" y="460" on="0"/>
        <pt x="345" y="430" on="0"/>
        <pt x="401" y="396" on="0"/>
        <pt x="454" y="356" on="0"/>
        <pt x="491" y="301" on="0"/>
        <pt x="507" y="230" on="0"/>
        <pt x="499" y="183" on="1"/>
        <pt x="491" y="139" on="0"/>
        <pt x="442" y="68" on="0"/>
        <pt x="366" y="18" on="0"/>
        <pt x="268" y="-9" on="0"/>
        <pt x="213" y="-9" on="1"/>
        <pt x="172" y="-9" on="0"/>
        <pt x="111" y="-1" on="0"/>
        <pt x="62" y="16" on="0"/>
        <pt x="17" y="43" on="0"/>
        <pt x="-7" y="62" on="1"/>
        <pt x="21" y="136" on="0"/>
        <pt x="31" y="218" on="1"/>
        <pt x="60" y="223" on="0"/>
        <pt x="120" y="225" on="0"/>
        <pt x="149" y="219" on="1"/>
        <pt x="136" y="73" on="0"/>
        <pt x="240" y="73" on="1"/>
        <pt x="270" y="73" on="0"/>
        <pt x="320" y="105" on="0"/>
        <pt x="325" y="131" on="1"/>
        <pt x="330" y="163" on="0"/>
        <pt x="292" y="207" on="0"/>
        <pt x="230" y="247" on="0"/>
        <pt x="158" y="292" on="0"/>
        <pt x="101" y="357" on="0"/>
        <pt x="72" y="451" on="0"/>
        <pt x="85" y="520" on="1"/>
        <pt x="92" y="561" on="0"/>
        <pt x="139" y="623" on="0"/>
        <pt x="208" y="664" on="0"/>
        <pt x="295" y="685" on="0"/>
      </contour>
    </TTGlyph>
    <TTGlyph name="T" xMin="62" yMin="-3" xMax="683" yMax="679">
      <contour>
        <pt x="290" y="601" on="1"/>
        <pt x="250" y="601" on="0"/>
        <pt x="181" y="537" on="0"/>
        <pt x="157" y="472" on="1"/>
        <pt x="128" y="472" on="0"/>
        <pt x="82" y="481" on="0"/>
        <pt x="62" y="493" on="1"/>
        <pt x="69" y="511" on="0"/>
        <pt x="83" y="558" on="0"/>
        <pt x="95" y="608" on="0"/>
        <pt x="104" y="658" on="0"/>
        <pt x="106" y="679" on="1"/>
        <pt x="136" y="678" on="0"/>
        <pt x="195" y="677" on="0"/>
        <pt x="261" y="676" on="0"/>
        <pt x="341" y="676" on="0"/>
        <pt x="393" y="676" on="1"/>
        <pt x="441" y="676" on="0"/>
        <pt x="514" y="676" on="0"/>
        <pt x="580" y="677" on="0"/>
        <pt x="645" y="678" on="0"/>
        <pt x="683" y="679" on="1"/>
        <pt x="678" y="637" on="0"/>
        <pt x="675" y="531" on="0"/>
        <pt x="680" y="483" on="1"/>
        <pt x="658" y="476" on="0"/>
        <pt x="607" y="471" on="0"/>
        <pt x="580" y="473" on="1"/>
        <pt x="575" y="544" on="0"/>
        <pt x="534" y="601" on="0"/>
        <pt x="492" y="601" on="1"/>
        <pt x="491" y="601" on="1"/>
        <pt x="419" y="187" on="1"/>
        <pt x="414" y="157" on="0"/>
        <pt x="413" y="118" on="0"/>
        <pt x="429" y="93" on="0"/>
        <pt x="467" y="80" on="0"/>
        <pt x="500" y="75" on="1"/>
        <pt x="504" y="56" on="0"/>
        <pt x="505" y="15" on="0"/>
        <pt x="503" y="-3" on="1"/>
        <pt x="470" y="-1" on="0"/>
        <pt x="368" y="0" on="0"/>
        <pt x="307" y="0" on="1"/>
        <pt x="240" y="0" on="0"/>
        <pt x="126" y="-1" on="0"/>
        <pt x="85" y="-3" on="1"/>
        <pt x="87" y="19" on="0"/>
        <pt x="97" y="60" on="0"/>
        <pt x="103" y="75" on="1"/>
        <pt x="136" y="79" on="0"/>
        <pt x="176" y="90" on="0"/>
        <pt x="201" y="116" on="0"/>
        <pt x="215" y="160" on="0"/>
        <pt x="221" y="197" on="1"/>
        <pt x="291" y="601" on="1"/>
      </contour>
    </TTGlyph>
    <TTGlyph name="Thorn" xMin="10" yMin="-3" xMax="667" yMax="679">
      <contour>
        <pt x="158" y="501" on="1"/>
        <pt x="163" y="530" on="0"/>
        <pt x="165" y="567" on="0"/>
        <pt x="155" y="588" on="0"/>
        <pt x="130" y="598" on="0"/>
        <pt x="109" y="601" on="1"/>
        <pt x="106" y="618" on="0"/>
        <pt x="105" y="659" on="0"/>
        <pt x="108" y="679" on="1"/>
        <pt x="145" y="677" on="0"/>
        <pt x="228" y="676" on="0"/>
        <pt x="276" y="676" on="1"/>
        <pt x="315" y="676" on="0"/>
        <pt x="403" y="677" on="0"/>
        <pt x="448" y="679" on="1"/>
        <pt x="448" y="639" on="0"/>
        <pt x="434" y="601" on="1"/>
        <pt x="404" y="598" on="0"/>
        <pt x="377" y="577" on="0"/>
        <pt x="368" y="544" on="1"/>
        <pt x="388" y="545" on="0"/>
        <pt x="435" y="545" on="0"/>
        <pt x="464" y="545" on="1"/>
        <pt x="527" y="545" on="0"/>
        <pt x="610" y="512" on="0"/>
        <pt x="655" y="457" on="0"/>
        <pt x="667" y="386" on="0"/>
        <pt x="661" y="349" on="1"/>
        <pt x="653" y="302" on="0"/>
        <pt x="608" y="228" on="0"/>
        <pt x="539" y="176" on="0"/>
        <pt x="450" y="149" on="0"/>
        <pt x="397" y="149" on="1"/>
        <pt x="371" y="149" on="0"/>
        <pt x="338" y="154" on="0"/>
        <pt x="326" y="162" on="1"/>
        <pt x="325" y="180" on="0"/>
        <pt x="332" y="218" on="0"/>
        <pt x="339" y="232" on="1"/>
        <pt x="346" y="229" on="0"/>
        <pt x="359" y="229" on="1"/>
        <pt x="397" y="229" on="0"/>
        <pt x="459" y="287" on="0"/>
        <pt x="470" y="346" on="1"/>
        <pt x="481" y="405" on="0"/>
        <pt x="443" y="466" on="0"/>
        <pt x="393" y="466" on="1"/>
        <pt x="372" y="466" on="0"/>
        <pt x="351" y="459" on="1"/>
        <pt x="303" y="180" on="1"/>
        <pt x="297" y="148" on="0"/>
        <pt x="296" y="110" on="0"/>
        <pt x="305" y="88" on="0"/>
        <pt x="328" y="78" on="0"/>
        <pt x="346" y="75" on="1"/>
        <pt x="349" y="55" on="0"/>
        <pt x="350" y="18" on="0"/>
        <pt x="348" y="-3" on="1"/>
        <pt x="305" y="-1" on="0"/>
        <pt x="234" y="0" on="0"/>
        <pt x="185" y="0" on="1"/>
        <pt x="130" y="0" on="0"/>
        <pt x="45" y="-1" on="0"/>
        <pt x="10" y="-3" on="1"/>
        <pt x="12" y="19" on="0"/>
        <pt x="21" y="55" on="0"/>
        <pt x="29" y="75" on="1"/>
        <pt x="47" y="78" on="0"/>
        <pt x="71" y="87" on="0"/>
        <pt x="87" y="108" on="0"/>
        <pt x="97" y="145" on="0"/>
        <pt x="103" y="177" on="1"/>
      </contour>
    </TTGlyph>
    <TTGlyph name="U" xMin="98" yMin="-9" xMax="745" yMax="679">
      <contour>
        <pt x="153" y="501" on="1"/>
        <pt x="158" y="530" on="0"/>
        <pt x="160" y="567" on="0"/>
        <pt x="150" y="588" on="0"/>
        <pt x="125" y="598" on="0"/>
        <pt x="104" y="601" on="1"/>
        <pt x="101" y="618" on="0"/>
        <pt x="100" y="659" on="0"/>
        <pt x="103" y="679" on="1"/>
        <pt x="140" y="677" on="0"/>
        <pt x="223" y="676" on="0"/>
        <pt x="271" y="676" on="1"/>
        <pt x="310" y="676" on="0"/>
        <pt x="398" y="677" on="0"/>
        <pt x="443" y="679" on="1"/>
        <pt x="443" y="639" on="0"/>
        <pt x="429" y="601" on="1"/>
        <pt x="408" y="599" on="0"/>
        <pt x="384" y="589" on="0"/>
        <pt x="368" y="564" on="0"/>
        <pt x="357" y="519" on="0"/>
        <pt x="350" y="481" on="1"/>
        <pt x="311" y="266" on="1"/>
        <pt x="293" y="164" on="0"/>
        <pt x="332" y="72" on="0"/>
        <pt x="385" y="72" on="1"/>
        <pt x="418" y="72" on="0"/>
        <pt x="466" y="100" on="0"/>
        <pt x="502" y="152" on="0"/>
        <pt x="526" y="223" on="0"/>
        <pt x="534" y="267" on="1"/>
        <pt x="571" y="477" on="1"/>
        <pt x="578" y="516" on="0"/>
        <pt x="583" y="562" on="0"/>
        <pt x="576" y="586" on="0"/>
        <pt x="554" y="596" on="0"/>
        <pt x="534" y="601" on="1"/>
        <pt x="531" y="619" on="0"/>
        <pt x="530" y="656" on="0"/>
        <pt x="533" y="679" on="1"/>
        <pt x="565" y="677" on="0"/>
        <pt x="622" y="676" on="0"/>
        <pt x="641" y="676" on="1"/>
        <pt x="673" y="676" on="0"/>
        <pt x="718" y="677" on="0"/>
        <pt x="745" y="679" on="1"/>
        <pt x="744" y="659" on="0"/>
        <pt x="737" y="618" on="0"/>
        <pt x="731" y="601" on="1"/>
        <pt x="710" y="598" on="0"/>
        <pt x="685" y="590" on="0"/>
        <pt x="669" y="563" on="0"/>
        <pt x="657" y="512" on="0"/>
        <pt x="649" y="466" on="1"/>
        <pt x="616" y="277" on="1"/>
        <pt x="602" y="200" on="0"/>
        <pt x="560" y="91" on="0"/>
        <pt x="495" y="22" on="0"/>
        <pt x="402" y="-9" on="0"/>
        <pt x="337" y="-9" on="1"/>
        <pt x="264" y="-9" on="0"/>
        <pt x="166" y="26" on="0"/>
        <pt x="112" y="93" on="0"/>
        <pt x="98" y="193" on="0"/>
        <pt x="110" y="259" on="1"/>
      </contour>
    </TTGlyph>
    <TTGlyph name="Uacute" xMin="98" yMin="-9" xMax="745" yMax="944">
      <component glyphName="U" x="0" y="0" flags="0x204"/>
      <component glyphName="acute" x="215" y="218" flags="0x4"/>
    </TTGlyph>
    <TTGlyph name="Ucircumflex" xMin="98" yMin="-9" xMax="745" yMax="940">
      <component glyphName="U" x="0" y="0" flags="0x204"/>
      <component glyphName="circumflex" x="261" y="218" flags="0x4"/>
    </TTGlyph>
    <TTGlyph name="Udieresis" xMin="98" yMin="-9" xMax="745" yMax="897">
      <component glyphName="U" x="0" y="0" flags="0x204"/>
      <component glyphName="dieresis" x="166" y="218" flags="0x4"/>
    </TTGlyph>
    <TTGlyph name="Ugrave" xMin="98" yMin="-9" xMax="745" yMax="931">
      <component glyphName="U" x="0" y="0" flags="0x204"/>
      <component glyphName="grave" x="234" y="218" flags="0x4"/>
    </TTGlyph>
    <TTGlyph name="V" xMin="90" yMin="-9" xMax="768" yMax="679">
      <contour>
        <pt x="665" y="676" on="1"/>
        <pt x="693" y="676" on="0"/>
        <pt x="736" y="677" on="0"/>
        <pt x="768" y="679" on="1"/>
        <pt x="766" y="637" on="0"/>
        <pt x="754" y="601" on="1"/>
        <pt x="741" y="598" on="0"/>
        <pt x="721" y="585" on="0"/>
        <pt x="700" y="558" on="0"/>
        <pt x="677" y="515" on="0"/>
        <pt x="661" y="482" on="1"/>
        <pt x="632" y="423" on="0"/>
        <pt x="571" y="306" on="0"/>
        <pt x="505" y="187" on="0"/>
        <pt x="434" y="64" on="0"/>
        <pt x="395" y="0" on="1"/>
        <pt x="375" y="-6" on="0"/>
        <pt x="326" y="-9" on="0"/>
        <pt x="304" y="-9" on="1"/>
        <pt x="272" y="120" on="0"/>
        <pt x="202" y="377" on="0"/>
        <pt x="166" y="500" on="1"/>
        <pt x="157" y="531" on="0"/>
        <pt x="142" y="568" on="0"/>
        <pt x="127" y="589" on="0"/>
        <pt x="108" y="598" on="0"/>
        <pt x="94" y="601" on="1"/>
        <pt x="91" y="615" on="0"/>
        <pt x="90" y="656" on="0"/>
        <pt x="93" y="679" on="1"/>
        <pt x="112" y="678" on="0"/>
        <pt x="158" y="677" on="0"/>
        <pt x="202" y="676" on="0"/>
        <pt x="239" y="676" on="0"/>
        <pt x="250" y="676" on="1"/>
        <pt x="263" y="676" on="0"/>
        <pt x="305" y="676" on="0"/>
        <pt x="353" y="677" on="0"/>
        <pt x="404" y="678" on="0"/>
        <pt x="428" y="679" on="1"/>
        <pt x="427" y="655" on="0"/>
        <pt x="419" y="615" on="0"/>
        <pt x="414" y="601" on="1"/>
        <pt x="371" y="596" on="0"/>
        <pt x="357" y="546" on="0"/>
        <pt x="371" y="494" on="1"/>
        <pt x="390" y="425" on="0"/>
        <pt x="419" y="295" on="0"/>
        <pt x="432" y="219" on="1"/>
        <pt x="483" y="304" on="0"/>
        <pt x="550" y="433" on="0"/>
        <pt x="572" y="485" on="1"/>
        <pt x="586" y="518" on="0"/>
        <pt x="595" y="560" on="0"/>
        <pt x="588" y="586" on="0"/>
        <pt x="566" y="598" on="0"/>
        <pt x="549" y="601" on="1"/>
        <pt x="542" y="636" on="0"/>
        <pt x="548" y="679" on="1"/>
        <pt x="573" y="677" on="0"/>
        <pt x="643" y="676" on="0"/>
      </contour>
    </TTGlyph>
    <TTGlyph name="W" xMin="90" yMin="-7" xMax="1056" yMax="685">
      <contour>
        <pt x="953" y="676" on="1"/>
        <pt x="981" y="676" on="0"/>
        <pt x="1024" y="677" on="0"/>
        <pt x="1056" y="679" on="1"/>
        <pt x="1054" y="637" on="0"/>
        <pt x="1042" y="601" on="1"/>
        <pt x="1029" y="598" on="0"/>
        <pt x="1005" y="583" on="0"/>
        <pt x="979" y="549" on="0"/>
        <pt x="950" y="492" on="0"/>
        <pt x="931" y="448" on="1"/>
        <pt x="883" y="335" on="0"/>
        <pt x="781" y="110" on="0"/>
        <pt x="725" y="-3" on="1"/>
        <pt x="717" y="-5" on="0"/>
        <pt x="691" y="-6" on="0"/>
        <pt x="661" y="-5" on="0"/>
        <pt x="631" y="0" on="0"/>
        <pt x="619" y="3" on="1"/>
        <pt x="608" y="57" on="0"/>
        <pt x="588" y="154" on="0"/>
        <pt x="567" y="249" on="0"/>
        <pt x="543" y="344" on="0"/>
        <pt x="529" y="396" on="1"/>
        <pt x="481" y="294" on="0"/>
        <pt x="378" y="96" on="0"/>
        <pt x="324" y="-4" on="1"/>
        <pt x="314" y="-6" on="0"/>
        <pt x="286" y="-7" on="0"/>
        <pt x="257" y="-4" on="0"/>
        <pt x="231" y="1" on="0"/>
        <pt x="222" y="5" on="1"/>
        <pt x="205" y="137" on="0"/>
        <pt x="169" y="383" on="0"/>
        <pt x="150" y="485" on="1"/>
        <pt x="143" y="521" on="0"/>
        <pt x="134" y="563" on="0"/>
        <pt x="122" y="587" on="0"/>
        <pt x="107" y="598" on="0"/>
        <pt x="94" y="601" on="1"/>
        <pt x="91" y="615" on="0"/>
        <pt x="90" y="656" on="0"/>
        <pt x="93" y="679" on="1"/>
        <pt x="112" y="678" on="0"/>
        <pt x="158" y="677" on="0"/>
        <pt x="202" y="676" on="0"/>
        <pt x="239" y="676" on="0"/>
        <pt x="250" y="676" on="1"/>
        <pt x="263" y="676" on="0"/>
        <pt x="305" y="676" on="0"/>
        <pt x="353" y="677" on="0"/>
        <pt x="404" y="678" on="0"/>
        <pt x="428" y="679" on="1"/>
        <pt x="427" y="655" on="0"/>
        <pt x="419" y="615" on="0"/>
        <pt x="414" y="601" on="1"/>
        <pt x="364" y="595" on="0"/>
        <pt x="341" y="526" on="0"/>
        <pt x="351" y="466" on="1"/>
        <pt x="357" y="427" on="0"/>
        <pt x="373" y="333" on="0"/>
        <pt x="380" y="273" on="1"/>
        <pt x="434" y="373" on="0"/>
        <pt x="537" y="573" on="0"/>
        <pt x="586" y="676" on="1"/>
        <pt x="626" y="685" on="0"/>
        <pt x="666" y="682" on="1"/>
        <pt x="697" y="572" on="0"/>
        <pt x="746" y="372" on="0"/>
        <pt x="766" y="266" on="1"/>
        <pt x="791" y="317" on="0"/>
        <pt x="835" y="417" on="0"/>
        <pt x="855" y="468" on="1"/>
        <pt x="882" y="536" on="0"/>
        <pt x="871" y="596" on="0"/>
        <pt x="837" y="601" on="1"/>
        <pt x="830" y="636" on="0"/>
        <pt x="836" y="679" on="1"/>
        <pt x="861" y="677" on="0"/>
        <pt x="931" y="676" on="0"/>
      </contour>
    </TTGlyph>
    <TTGlyph name="X" xMin="-36" yMin="-3" xMax="744" yMax="679">
      <contour>
        <pt x="301" y="256" on="1"/>
        <pt x="284" y="234" on="0"/>
        <pt x="246" y="188" on="0"/>
        <pt x="226" y="165" on="1"/>
        <pt x="191" y="126" on="0"/>
        <pt x="187" y="80" on="0"/>
        <pt x="210" y="75" on="1"/>
        <pt x="217" y="40" on="0"/>
        <pt x="211" y="-3" on="1"/>
        <pt x="186" y="-1" on="0"/>
        <pt x="116" y="0" on="0"/>
        <pt x="94" y="0" on="1"/>
        <pt x="66" y="0" on="0"/>
        <pt x="-4" y="-1" on="0"/>
        <pt x="-36" y="-3" on="1"/>
        <pt x="-34" y="39" on="0"/>
        <pt x="-22" y="75" on="1"/>
        <pt x="2" y="78" on="0"/>
        <pt x="41" y="91" on="0"/>
        <pt x="74" y="110" on="0"/>
        <pt x="105" y="138" on="0"/>
        <pt x="122" y="158" on="1"/>
        <pt x="163" y="204" on="0"/>
        <pt x="240" y="298" on="0"/>
        <pt x="266" y="336" on="1"/>
        <pt x="248" y="376" on="0"/>
        <pt x="206" y="464" on="0"/>
        <pt x="183" y="508" on="1"/>
        <pt x="169" y="535" on="0"/>
        <pt x="149" y="568" on="0"/>
        <pt x="129" y="588" on="0"/>
        <pt x="109" y="598" on="0"/>
        <pt x="95" y="601" on="1"/>
        <pt x="92" y="615" on="0"/>
        <pt x="91" y="656" on="0"/>
        <pt x="94" y="679" on="1"/>
        <pt x="113" y="678" on="0"/>
        <pt x="162" y="677" on="0"/>
        <pt x="209" y="676" on="0"/>
        <pt x="249" y="676" on="0"/>
        <pt x="260" y="676" on="1"/>
        <pt x="273" y="676" on="0"/>
        <pt x="315" y="676" on="0"/>
        <pt x="363" y="677" on="0"/>
        <pt x="414" y="678" on="0"/>
        <pt x="438" y="679" on="1"/>
        <pt x="437" y="655" on="0"/>
        <pt x="429" y="615" on="0"/>
        <pt x="424" y="601" on="1"/>
        <pt x="403" y="598" on="0"/>
        <pt x="379" y="587" on="0"/>
        <pt x="374" y="564" on="0"/>
        <pt x="385" y="527" on="0"/>
        <pt x="399" y="498" on="1"/>
        <pt x="407" y="480" on="0"/>
        <pt x="424" y="442" on="0"/>
        <pt x="432" y="423" on="1"/>
        <pt x="448" y="442" on="0"/>
        <pt x="479" y="481" on="0"/>
        <pt x="493" y="498" on="1"/>
        <pt x="517" y="528" on="0"/>
        <pt x="537" y="566" on="0"/>
        <pt x="538" y="588" on="0"/>
        <pt x="523" y="599" on="0"/>
        <pt x="512" y="601" on="1"/>
        <pt x="505" y="636" on="0"/>
        <pt x="511" y="679" on="1"/>
        <pt x="536" y="677" on="0"/>
        <pt x="606" y="676" on="0"/>
        <pt x="628" y="676" on="1"/>
        <pt x="656" y="676" on="0"/>
        <pt x="712" y="677" on="0"/>
        <pt x="744" y="679" on="1"/>
        <pt x="742" y="637" on="0"/>
        <pt x="730" y="601" on="1"/>
        <pt x="713" y="598" on="0"/>
        <pt x="685" y="589" on="0"/>
        <pt x="658" y="572" on="0"/>
        <pt x="630" y="543" on="0"/>
        <pt x="612" y="520" on="1"/>
        <pt x="567" y="462" on="0"/>
        <pt x="499" y="378" on="0"/>
        <pt x="467" y="343" on="1"/>
        <pt x="483" y="305" on="0"/>
        <pt x="510" y="239" on="0"/>
        <pt x="520" y="215" on="1"/>
        <pt x="537" y="173" on="0"/>
        <pt x="562" y="122" on="0"/>
        <pt x="586" y="93" on="0"/>
        <pt x="613" y="79" on="0"/>
        <pt x="632" y="75" on="1"/>
        <pt x="635" y="61" on="0"/>
        <pt x="636" y="20" on="0"/>
        <pt x="633" y="-3" on="1"/>
        <pt x="614" y="-2" on="0"/>
        <pt x="565" y="-1" on="0"/>
        <pt x="518" y="0" on="0"/>
        <pt x="477" y="0" on="0"/>
        <pt x="467" y="0" on="1"/>
        <pt x="453" y="0" on="0"/>
        <pt x="412" y="0" on="0"/>
        <pt x="364" y="-1" on="0"/>
        <pt x="313" y="-2" on="0"/>
        <pt x="289" y="-3" on="1"/>
        <pt x="290" y="21" on="0"/>
        <pt x="298" y="61" on="0"/>
        <pt x="303" y="75" on="1"/>
        <pt x="340" y="79" on="0"/>
        <pt x="350" y="124" on="0"/>
        <pt x="328" y="183" on="1"/>
      </contour>
    </TTGlyph>
    <TTGlyph name="Y" xMin="86" yMin="-3" xMax="684" yMax="679">
      <contour>
        <pt x="238" y="292" on="1"/>
        <pt x="230" y="318" on="0"/>
        <pt x="215" y="365" on="0"/>
        <pt x="197" y="415" on="0"/>
        <pt x="177" y="468" on="0"/>
        <pt x="165" y="500" on="1"/>
        <pt x="153" y="531" on="0"/>
        <pt x="136" y="568" on="0"/>
        <pt x="120" y="589" on="0"/>
        <pt x="104" y="598" on="0"/>
        <pt x="94" y="601" on="1"/>
        <pt x="91" y="615" on="0"/>
        <pt x="90" y="656" on="0"/>
        <pt x="93" y="679" on="1"/>
        <pt x="112" y="678" on="0"/>
        <pt x="158" y="677" on="0"/>
        <pt x="202" y="676" on="0"/>
        <pt x="239" y="676" on="0"/>
        <pt x="250" y="676" on="1"/>
        <pt x="263" y="676" on="0"/>
        <pt x="305" y="676" on="0"/>
        <pt x="353" y="677" on="0"/>
        <pt x="404" y="678" on="0"/>
        <pt x="428" y="679" on="1"/>
        <pt x="427" y="655" on="0"/>
        <pt x="419" y="615" on="0"/>
        <pt x="414" y="601" on="1"/>
        <pt x="371" y="596" on="0"/>
        <pt x="354" y="556" on="0"/>
        <pt x="367" y="521" on="1"/>
        <pt x="378" y="492" on="0"/>
        <pt x="401" y="417" on="0"/>
        <pt x="411" y="375" on="1"/>
        <pt x="436" y="415" on="0"/>
        <pt x="476" y="487" on="0"/>
        <pt x="494" y="526" on="1"/>
        <pt x="511" y="561" on="0"/>
        <pt x="499" y="596" on="0"/>
        <pt x="465" y="601" on="1"/>
        <pt x="458" y="636" on="0"/>
        <pt x="464" y="679" on="1"/>
        <pt x="489" y="677" on="0"/>
        <pt x="559" y="676" on="0"/>
        <pt x="581" y="676" on="1"/>
        <pt x="609" y="676" on="0"/>
        <pt x="652" y="677" on="0"/>
        <pt x="684" y="679" on="1"/>
        <pt x="682" y="637" on="0"/>
        <pt x="670" y="601" on="1"/>
        <pt x="662" y="599" on="0"/>
        <pt x="648" y="593" on="0"/>
        <pt x="630" y="574" on="0"/>
        <pt x="605" y="539" on="0"/>
        <pt x="586" y="508" on="1"/>
        <pt x="544" y="441" on="0"/>
        <pt x="471" y="331" on="0"/>
        <pt x="436" y="279" on="1"/>
        <pt x="420" y="187" on="1"/>
        <pt x="415" y="157" on="0"/>
        <pt x="414" y="118" on="0"/>
        <pt x="430" y="93" on="0"/>
        <pt x="468" y="80" on="0"/>
        <pt x="501" y="75" on="1"/>
        <pt x="505" y="56" on="0"/>
        <pt x="506" y="15" on="0"/>
        <pt x="504" y="-3" on="1"/>
        <pt x="471" y="-1" on="0"/>
        <pt x="369" y="0" on="0"/>
        <pt x="308" y="0" on="1"/>
        <pt x="241" y="0" on="0"/>
        <pt x="127" y="-1" on="0"/>
        <pt x="86" y="-3" on="1"/>
        <pt x="88" y="19" on="0"/>
        <pt x="98" y="60" on="0"/>
        <pt x="104" y="75" on="1"/>
        <pt x="137" y="79" on="0"/>
        <pt x="177" y="90" on="0"/>
        <pt x="202" y="116" on="0"/>
        <pt x="216" y="160" on="0"/>
        <pt x="222" y="197" on="1"/>
      </contour>
    </TTGlyph>
    <TTGlyph name="Yacute" xMin="86" yMin="-3" xMax="684" yMax="944">
      <component glyphName="Y" x="0" y="0" flags="0x204"/>
      <component glyphName="acute" x="144" y="218" flags="0x4"/>
    </TTGlyph>
    <TTGlyph name="Z" xMin="-15" yMin="-3" xMax="608" yMax="679">
      <contour>
        <pt x="323" y="601" on="1"/>
        <pt x="300" y="601" on="0"/>
        <pt x="263" y="587" on="0"/>
        <pt x="231" y="553" on="0"/>
        <pt x="201" y="495" on="0"/>
        <pt x="185" y="451" on="1"/>
        <pt x="117" y="454" on="0"/>
        <pt x="79" y="482" on="1"/>
        <pt x="88" y="503" on="0"/>
        <pt x="106" y="554" on="0"/>
        <pt x="121" y="607" on="0"/>
        <pt x="132" y="658" on="0"/>
        <pt x="136" y="679" on="1"/>
        <pt x="155" y="678" on="0"/>
        <pt x="213" y="677" on="0"/>
        <pt x="276" y="676" on="0"/>
        <pt x="339" y="676" on="0"/>
        <pt x="362" y="676" on="1"/>
        <pt x="388" y="676" on="0"/>
        <pt x="449" y="676" on="0"/>
        <pt x="510" y="677" on="0"/>
        <pt x="566" y="678" on="0"/>
        <pt x="588" y="679" on="1"/>
        <pt x="599" y="663" on="0"/>
        <pt x="608" y="626" on="0"/>
        <pt x="606" y="600" on="1"/>
        <pt x="559" y="531" on="0"/>
        <pt x="470" y="402" on="0"/>
        <pt x="380" y="274" on="0"/>
        <pt x="287" y="144" on="0"/>
        <pt x="235" y="75" on="1"/>
        <pt x="259" y="75" on="1"/>
        <pt x="292" y="75" on="0"/>
        <pt x="341" y="89" on="0"/>
        <pt x="380" y="123" on="0"/>
        <pt x="413" y="179" on="0"/>
        <pt x="430" y="221" on="1"/>
        <pt x="462" y="216" on="0"/>
        <pt x="511" y="197" on="0"/>
        <pt x="534" y="180" on="1"/>
        <pt x="526" y="161" on="0"/>
        <pt x="509" y="114" on="0"/>
        <pt x="494" y="65" on="0"/>
        <pt x="482" y="17" on="0"/>
        <pt x="479" y="-3" on="1"/>
        <pt x="451" y="-2" on="0"/>
        <pt x="385" y="-1" on="0"/>
        <pt x="319" y="0" on="0"/>
        <pt x="255" y="0" on="0"/>
        <pt x="228" y="0" on="1"/>
        <pt x="165" y="0" on="0"/>
        <pt x="50" y="-1" on="0"/>
        <pt x="6" y="-3" on="1"/>
        <pt x="-4" y="12" on="0"/>
        <pt x="-15" y="53" on="0"/>
        <pt x="-14" y="78" on="1"/>
        <pt x="40" y="148" on="0"/>
        <pt x="138" y="278" on="0"/>
        <pt x="229" y="404" on="0"/>
        <pt x="318" y="532" on="0"/>
        <pt x="365" y="601" on="1"/>
      </contour>
    </TTGlyph>
    <TTGlyph name="a" xMin="4" yMin="-9" xMax="586" yMax="467">
      <contour>
        <pt x="519" y="184" on="1"/>
        <pt x="513" y="158" on="0"/>
        <pt x="508" y="127" on="0"/>
        <pt x="509" y="110" on="0"/>
        <pt x="515" y="104" on="0"/>
        <pt x="520" y="104" on="1"/>
        <pt x="527" y="104" on="0"/>
        <pt x="541" y="110" on="0"/>
        <pt x="554" y="118" on="1"/>
        <pt x="564" y="108" on="0"/>
        <pt x="584" y="69" on="0"/>
        <pt x="586" y="52" on="1"/>
        <pt x="553" y="20" on="0"/>
        <pt x="477" y="-9" on="0"/>
        <pt x="430" y="-9" on="1"/>
        <pt x="398" y="-9" on="0"/>
        <pt x="356" y="10" on="0"/>
        <pt x="333" y="43" on="0"/>
        <pt x="327" y="86" on="0"/>
        <pt x="330" y="110" on="1"/>
        <pt x="329" y="110" on="1"/>
        <pt x="288" y="52" on="0"/>
        <pt x="188" y="-9" on="0"/>
        <pt x="135" y="-9" on="1"/>
        <pt x="87" y="-9" on="0"/>
        <pt x="30" y="40" on="0"/>
        <pt x="5" y="113" on="0"/>
        <pt x="4" y="197" on="0"/>
        <pt x="11" y="232" on="1"/>
        <pt x="20" y="278" on="0"/>
        <pt x="62" y="363" on="0"/>
        <pt x="135" y="428" on="0"/>
        <pt x="242" y="467" on="0"/>
        <pt x="314" y="467" on="1"/>
        <pt x="349" y="467" on="0"/>
        <pt x="406" y="458" on="0"/>
        <pt x="429" y="450" on="1"/>
        <pt x="458" y="453" on="0"/>
        <pt x="512" y="461" on="0"/>
        <pt x="538" y="467" on="1"/>
        <pt x="559" y="450" on="0"/>
        <pt x="571" y="410" on="0"/>
        <pt x="564" y="379" on="1"/>
      </contour>
      <contour>
        <pt x="368" y="382" on="1"/>
        <pt x="356" y="387" on="0"/>
        <pt x="319" y="393" on="0"/>
        <pt x="307" y="393" on="1"/>
        <pt x="288" y="393" on="0"/>
        <pt x="259" y="373" on="0"/>
        <pt x="237" y="339" on="0"/>
        <pt x="222" y="291" on="0"/>
        <pt x="216" y="264" on="1"/>
        <pt x="203" y="196" on="0"/>
        <pt x="211" y="124" on="0"/>
        <pt x="240" y="124" on="1"/>
        <pt x="252" y="124" on="0"/>
        <pt x="283" y="144" on="0"/>
        <pt x="315" y="192" on="0"/>
        <pt x="345" y="274" on="0"/>
        <pt x="357" y="336" on="1"/>
      </contour>
    </TTGlyph>
    <TTGlyph name="aacute" xMin="4" yMin="-9" xMax="586" yMax="726">
      <component glyphName="a" x="0" y="0" flags="0x204"/>
      <component glyphName="acute" x="81" y="0" flags="0x4"/>
    </TTGlyph>
    <TTGlyph name="acircumflex" xMin="4" yMin="-9" xMax="586" yMax="722">
      <component glyphName="a" x="0" y="0" flags="0x204"/>
      <component glyphName="circumflex" x="129" y="0" flags="0x4"/>
    </TTGlyph>
    <TTGlyph name="acute" xMin="199" yMin="521" xMax="449" yMax="726">
      <contour>
        <pt x="281" y="719" on="1"/>
        <pt x="331" y="726" on="0"/>
        <pt x="423" y="716" on="0"/>
        <pt x="449" y="702" on="1"/>
        <pt x="400" y="654" on="0"/>
        <pt x="319" y="561" on="0"/>
        <pt x="293" y="521" on="1"/>
        <pt x="241" y="526" on="0"/>
        <pt x="199" y="554" on="1"/>
        <pt x="212" y="575" on="0"/>
        <pt x="237" y="621" on="0"/>
        <pt x="259" y="666" on="0"/>
        <pt x="276" y="705" on="0"/>
      </contour>
    </TTGlyph>
    <TTGlyph name="adieresis" xMin="4" yMin="-9" xMax="586" yMax="679">
      <component glyphName="a" x="0" y="0" flags="0x204"/>
      <component glyphName="dieresis" x="32" y="0" flags="0x4"/>
    </TTGlyph>
    <TTGlyph name="ae" xMin="4" yMin="-9" xMax="806" yMax="467">
      <contour>
        <pt x="333" y="114" on="1"/>
        <pt x="291" y="54" on="0"/>
        <pt x="189" y="-9" on="0"/>
        <pt x="135" y="-9" on="1"/>
        <pt x="87" y="-9" on="0"/>
        <pt x="30" y="40" on="0"/>
        <pt x="5" y="113" on="0"/>
        <pt x="4" y="197" on="0"/>
        <pt x="11" y="232" on="1"/>
        <pt x="20" y="278" on="0"/>
        <pt x="62" y="363" on="0"/>
        <pt x="135" y="428" on="0"/>
        <pt x="242" y="467" on="0"/>
        <pt x="314" y="467" on="1"/>
        <pt x="348" y="467" on="0"/>
        <pt x="402" y="458" on="0"/>
        <pt x="425" y="451" on="1"/>
        <pt x="445" y="453" on="0"/>
        <pt x="485" y="462" on="0"/>
        <pt x="508" y="467" on="1"/>
        <pt x="513" y="463" on="0"/>
        <pt x="520" y="456" on="0"/>
        <pt x="523" y="452" on="1"/>
        <pt x="569" y="467" on="0"/>
        <pt x="626" y="467" on="1"/>
        <pt x="718" y="467" on="0"/>
        <pt x="806" y="393" on="0"/>
        <pt x="796" y="336" on="1"/>
        <pt x="791" y="310" on="0"/>
        <pt x="750" y="255" on="0"/>
        <pt x="680" y="208" on="0"/>
        <pt x="583" y="176" on="0"/>
        <pt x="523" y="173" on="1"/>
        <pt x="526" y="139" on="0"/>
        <pt x="561" y="98" on="0"/>
        <pt x="602" y="98" on="1"/>
        <pt x="635" y="98" on="0"/>
        <pt x="693" y="118" on="0"/>
        <pt x="714" y="129" on="1"/>
        <pt x="725" y="110" on="0"/>
        <pt x="733" y="72" on="0"/>
        <pt x="731" y="47" on="1"/>
        <pt x="708" y="31" on="0"/>
        <pt x="663" y="10" on="0"/>
        <pt x="613" y="-3" on="0"/>
        <pt x="556" y="-9" on="0"/>
        <pt x="521" y="-9" on="1"/>
        <pt x="476" y="-9" on="0"/>
        <pt x="411" y="9" on="0"/>
        <pt x="366" y="42" on="0"/>
        <pt x="340" y="87" on="0"/>
        <pt x="334" y="114" on="1"/>
      </contour>
      <contour>
        <pt x="528" y="250" on="1"/>
        <pt x="585" y="255" on="0"/>
        <pt x="660" y="299" on="0"/>
        <pt x="666" y="333" on="1"/>
        <pt x="678" y="395" on="0"/>
        <pt x="624" y="395" on="1"/>
        <pt x="595" y="395" on="0"/>
        <pt x="543" y="337" on="0"/>
        <pt x="531" y="271" on="1"/>
      </contour>
      <contour>
        <pt x="368" y="382" on="1"/>
        <pt x="357" y="387" on="0"/>
        <pt x="319" y="393" on="0"/>
        <pt x="307" y="393" on="1"/>
        <pt x="288" y="393" on="0"/>
        <pt x="259" y="373" on="0"/>
        <pt x="237" y="339" on="0"/>
        <pt x="222" y="291" on="0"/>
        <pt x="216" y="264" on="1"/>
        <pt x="203" y="196" on="0"/>
        <pt x="211" y="124" on="0"/>
        <pt x="240" y="124" on="1"/>
        <pt x="252" y="124" on="0"/>
        <pt x="283" y="144" on="0"/>
        <pt x="315" y="192" on="0"/>
        <pt x="345" y="274" on="0"/>
        <pt x="357" y="336" on="1"/>
      </contour>
    </TTGlyph>
    <TTGlyph name="agrave" xMin="4" yMin="-9" xMax="586" yMax="713">
      <component glyphName="a" x="0" y="0" flags="0x204"/>
      <component glyphName="grave" x="100" y="0" flags="0x4"/>
    </TTGlyph>
    <TTGlyph name="ampersand" xMin="-4" yMin="-9" xMax="823" yMax="717">
      <contour>
        <pt x="790" y="130" on="1"/>
        <pt x="796" y="125" on="0"/>
        <pt x="807" y="109" on="0"/>
        <pt x="817" y="90" on="0"/>
        <pt x="823" y="72" on="0"/>
        <pt x="823" y="65" on="1"/>
        <pt x="814" y="53" on="0"/>
        <pt x="778" y="27" on="0"/>
        <pt x="730" y="5" on="0"/>
        <pt x="674" y="-9" on="0"/>
        <pt x="645" y="-9" on="1"/>
        <pt x="598" y="-9" on="0"/>
        <pt x="531" y="3" on="0"/>
        <pt x="496" y="27" on="1"/>
        <pt x="448" y="10" on="0"/>
        <pt x="342" y="-9" on="0"/>
        <pt x="285" y="-9" on="1"/>
        <pt x="211" y="-9" on="0"/>
        <pt x="98" y="16" on="0"/>
        <pt x="25" y="70" on="0"/>
        <pt x="-4" y="153" on="0"/>
        <pt x="7" y="211" on="1"/>
        <pt x="14" y="249" on="0"/>
        <pt x="51" y="304" on="0"/>
        <pt x="104" y="345" on="0"/>
        <pt x="168" y="373" on="0"/>
        <pt x="203" y="384" on="1"/>
        <pt x="180" y="421" on="0"/>
        <pt x="155" y="478" on="0"/>
        <pt x="143" y="527" on="0"/>
        <pt x="143" y="570" on="0"/>
        <pt x="147" y="593" on="1"/>
        <pt x="151" y="617" on="0"/>
        <pt x="181" y="662" on="0"/>
        <pt x="242" y="697" on="0"/>
        <pt x="338" y="717" on="0"/>
        <pt x="408" y="717" on="1"/>
        <pt x="526" y="717" on="0"/>
        <pt x="634" y="632" on="0"/>
        <pt x="619" y="556" on="1"/>
        <pt x="611" y="517" on="0"/>
        <pt x="575" y="463" on="0"/>
        <pt x="524" y="425" on="0"/>
        <pt x="462" y="398" on="0"/>
        <pt x="430" y="386" on="1"/>
        <pt x="444" y="368" on="0"/>
        <pt x="475" y="327" on="0"/>
        <pt x="493" y="304" on="1"/>
        <pt x="529" y="258" on="0"/>
        <pt x="583" y="194" on="0"/>
        <pt x="604" y="172" on="1"/>
        <pt x="635" y="210" on="0"/>
        <pt x="644" y="254" on="1"/>
        <pt x="654" y="305" on="0"/>
        <pt x="598" y="350" on="0"/>
        <pt x="540" y="350" on="1"/>
        <pt x="540" y="393" on="0"/>
        <pt x="552" y="426" on="1"/>
        <pt x="572" y="427" on="0"/>
        <pt x="624" y="436" on="0"/>
        <pt x="676" y="448" on="0"/>
        <pt x="724" y="461" on="0"/>
        <pt x="739" y="467" on="1"/>
        <pt x="773" y="456" on="0"/>
        <pt x="804" y="383" on="0"/>
        <pt x="791" y="315" on="1"/>
        <pt x="781" y="262" on="0"/>
        <pt x="717" y="164" on="0"/>
        <pt x="667" y="122" on="1"/>
        <pt x="682" y="115" on="0"/>
        <pt x="709" y="112" on="0"/>
        <pt x="726" y="112" on="1"/>
        <pt x="758" y="112" on="0"/>
      </contour>
      <contour>
        <pt x="335" y="593" on="1"/>
        <pt x="330" y="566" on="0"/>
        <pt x="351" y="502" on="0"/>
        <pt x="385" y="450" on="1"/>
        <pt x="415" y="467" on="0"/>
        <pt x="456" y="515" on="0"/>
        <pt x="463" y="550" on="1"/>
        <pt x="471" y="588" on="0"/>
        <pt x="437" y="642" on="0"/>
        <pt x="398" y="642" on="1"/>
        <pt x="372" y="642" on="0"/>
        <pt x="339" y="615" on="0"/>
      </contour>
      <contour>
        <pt x="210" y="201" on="1"/>
        <pt x="204" y="168" on="0"/>
        <pt x="219" y="118" on="0"/>
        <pt x="253" y="83" on="0"/>
        <pt x="304" y="66" on="0"/>
        <pt x="333" y="66" on="1"/>
        <pt x="386" y="66" on="0"/>
        <pt x="437" y="78" on="1"/>
        <pt x="412" y="104" on="0"/>
        <pt x="354" y="174" on="0"/>
        <pt x="317" y="222" on="1"/>
        <pt x="301" y="243" on="0"/>
        <pt x="273" y="282" on="0"/>
        <pt x="260" y="299" on="1"/>
        <pt x="242" y="281" on="0"/>
        <pt x="216" y="233" on="0"/>
      </contour>
    </TTGlyph>
    <TTGlyph name="apostrophe" xMin="118" yMin="411" xMax="271" yMax="717">
      <contour>
        <pt x="246" y="717" on="1"/>
        <pt x="264" y="709" on="0"/>
        <pt x="271" y="666" on="0"/>
        <pt x="258" y="635" on="1"/>
        <pt x="243" y="599" on="0"/>
        <pt x="209" y="483" on="0"/>
        <pt x="192" y="411" on="1"/>
        <pt x="172" y="411" on="0"/>
        <pt x="134" y="418" on="0"/>
        <pt x="118" y="426" on="1"/>
        <pt x="129" y="493" on="0"/>
        <pt x="140" y="630" on="0"/>
        <pt x="140" y="687" on="1"/>
        <pt x="170" y="690" on="0"/>
        <pt x="224" y="705" on="0"/>
      </contour>
    </TTGlyph>
    <TTGlyph name="aring" xMin="4" yMin="-9" xMax="586" yMax="729">
      <component glyphName="a" x="0" y="0" flags="0x204"/>
      <component glyphName="ring" x="87" y="0" flags="0x4"/>
    </TTGlyph>
    <TTGlyph name="asciicircum" xMin="107" yMin="383" xMax="522" yMax="701">
      <contour>
        <pt x="331" y="692" on="1"/>
        <pt x="346" y="699" on="0"/>
        <pt x="391" y="701" on="0"/>
        <pt x="408" y="696" on="1"/>
        <pt x="419" y="665" on="0"/>
        <pt x="447" y="590" on="0"/>
        <pt x="478" y="513" on="0"/>
        <pt x="508" y="438" on="0"/>
        <pt x="522" y="407" on="1"/>
        <pt x="516" y="403" on="0"/>
        <pt x="497" y="397" on="0"/>
        <pt x="474" y="393" on="0"/>
        <pt x="452" y="392" on="0"/>
        <pt x="443" y="394" on="1"/>
        <pt x="358" y="613" on="1"/>
        <pt x="307" y="554" on="0"/>
        <pt x="208" y="434" on="0"/>
        <pt x="168" y="383" on="1"/>
        <pt x="145" y="385" on="0"/>
        <pt x="114" y="409" on="0"/>
        <pt x="107" y="428" on="1"/>
      </contour>
    </TTGlyph>
    <TTGlyph name="asciitilde" xMin="28" yMin="172" xMax="578" yMax="374">
      <contour>
        <pt x="215" y="374" on="1"/>
        <pt x="248" y="374" on="0"/>
        <pt x="300" y="348" on="0"/>
        <pt x="347" y="317" on="0"/>
        <pt x="391" y="291" on="0"/>
        <pt x="417" y="291" on="1"/>
        <pt x="445" y="291" on="0"/>
        <pt x="496" y="321" on="0"/>
        <pt x="527" y="359" on="1"/>
        <pt x="547" y="350" on="0"/>
        <pt x="575" y="313" on="0"/>
        <pt x="578" y="292" on="1"/>
        <pt x="533" y="230" on="0"/>
        <pt x="451" y="172" on="0"/>
        <pt x="409" y="172" on="1"/>
        <pt x="374" y="172" on="0"/>
        <pt x="322" y="199" on="0"/>
        <pt x="277" y="232" on="0"/>
        <pt x="231" y="259" on="0"/>
        <pt x="202" y="259" on="1"/>
        <pt x="137" y="259" on="0"/>
        <pt x="78" y="183" on="1"/>
        <pt x="58" y="190" on="0"/>
        <pt x="31" y="221" on="0"/>
        <pt x="28" y="244" on="1"/>
        <pt x="58" y="283" on="0"/>
        <pt x="112" y="334" on="0"/>
        <pt x="159" y="363" on="0"/>
        <pt x="199" y="374" on="0"/>
      </contour>
    </TTGlyph>
    <TTGlyph name="asterisk" xMin="109" yMin="289" xMax="504" yMax="687">
      <contour>
        <pt x="410" y="652" on="1"/>
        <pt x="389" y="622" on="0"/>
        <pt x="351" y="556" on="0"/>
        <pt x="335" y="523" on="1"/>
        <pt x="375" y="535" on="0"/>
        <pt x="445" y="562" on="0"/>
        <pt x="478" y="578" on="1"/>
        <pt x="498" y="543" on="0"/>
        <pt x="504" y="473" on="0"/>
        <pt x="493" y="430" on="1"/>
        <pt x="450" y="443" on="0"/>
        <pt x="381" y="459" on="0"/>
        <pt x="339" y="465" on="1"/>
        <pt x="365" y="433" on="0"/>
        <pt x="413" y="380" on="0"/>
        <pt x="444" y="350" on="1"/>
        <pt x="420" y="322" on="0"/>
        <pt x="349" y="289" on="0"/>
        <pt x="305" y="290" on="1"/>
        <pt x="304" y="332" on="0"/>
        <pt x="297" y="402" on="0"/>
        <pt x="289" y="444" on="1"/>
        <pt x="266" y="412" on="0"/>
        <pt x="228" y="354" on="0"/>
        <pt x="206" y="315" on="1"/>
        <pt x="133" y="341" on="0"/>
        <pt x="118" y="422" on="1"/>
        <pt x="156" y="437" on="0"/>
        <pt x="219" y="467" on="0"/>
        <pt x="253" y="486" on="1"/>
        <pt x="218" y="499" on="0"/>
        <pt x="153" y="515" on="0"/>
        <pt x="109" y="523" on="1"/>
        <pt x="113" y="560" on="0"/>
        <pt x="148" y="622" on="0"/>
        <pt x="179" y="641" on="1"/>
        <pt x="204" y="608" on="0"/>
        <pt x="248" y="560" on="0"/>
        <pt x="281" y="530" on="1"/>
        <pt x="281" y="569" on="0"/>
        <pt x="277" y="640" on="0"/>
        <pt x="272" y="682" on="1"/>
        <pt x="312" y="687" on="0"/>
        <pt x="384" y="672" on="0"/>
      </contour>
    </TTGlyph>
    <TTGlyph name="at" xMin="12" yMin="-202" xMax="892" yMax="660">
      <contour>
        <pt x="500" y="110" on="1"/>
        <pt x="459" y="52" on="0"/>
        <pt x="359" y="-9" on="0"/>
        <pt x="306" y="-9" on="1"/>
        <pt x="258" y="-9" on="0"/>
        <pt x="201" y="40" on="0"/>
        <pt x="176" y="113" on="0"/>
        <pt x="175" y="197" on="0"/>
        <pt x="182" y="232" on="1"/>
        <pt x="191" y="278" on="0"/>
        <pt x="233" y="363" on="0"/>
        <pt x="306" y="428" on="0"/>
        <pt x="413" y="467" on="0"/>
        <pt x="485" y="467" on="1"/>
        <pt x="520" y="467" on="0"/>
        <pt x="577" y="458" on="0"/>
        <pt x="600" y="450" on="1"/>
        <pt x="629" y="453" on="0"/>
        <pt x="683" y="461" on="0"/>
        <pt x="709" y="467" on="1"/>
        <pt x="730" y="450" on="0"/>
        <pt x="742" y="410" on="0"/>
        <pt x="735" y="379" on="1"/>
        <pt x="690" y="184" on="1"/>
        <pt x="684" y="158" on="0"/>
        <pt x="680" y="127" on="0"/>
        <pt x="683" y="110" on="0"/>
        <pt x="691" y="104" on="0"/>
        <pt x="696" y="104" on="1"/>
        <pt x="722" y="104" on="0"/>
        <pt x="770" y="186" on="0"/>
        <pt x="786" y="263" on="1"/>
        <pt x="813" y="419" on="0"/>
        <pt x="667" y="586" on="0"/>
        <pt x="503" y="586" on="1"/>
        <pt x="431" y="586" on="0"/>
        <pt x="305" y="542" on="0"/>
        <pt x="207" y="460" on="0"/>
        <pt x="141" y="344" on="0"/>
        <pt x="129" y="272" on="1"/>
        <pt x="96" y="81" on="0"/>
        <pt x="264" y="-124" on="0"/>
        <pt x="453" y="-124" on="1"/>
        <pt x="525" y="-124" on="0"/>
        <pt x="663" y="-75" on="0"/>
        <pt x="720" y="-35" on="1"/>
        <pt x="736" y="-41" on="0"/>
        <pt x="755" y="-69" on="0"/>
        <pt x="758" y="-83" on="1"/>
        <pt x="701" y="-137" on="0"/>
        <pt x="537" y="-202" on="0"/>
        <pt x="436" y="-202" on="1"/>
        <pt x="327" y="-202" on="0"/>
        <pt x="159" y="-140" on="0"/>
        <pt x="52" y="-21" on="0"/>
        <pt x="12" y="152" on="0"/>
        <pt x="32" y="264" on="1"/>
        <pt x="48" y="353" on="0"/>
        <pt x="135" y="499" on="0"/>
        <pt x="265" y="603" on="0"/>
        <pt x="433" y="660" on="0"/>
        <pt x="529" y="660" on="1"/>
        <pt x="628" y="660" on="0"/>
        <pt x="773" y="609" on="0"/>
        <pt x="862" y="513" on="0"/>
        <pt x="892" y="373" on="0"/>
        <pt x="877" y="284" on="1"/>
        <pt x="866" y="224" on="0"/>
        <pt x="814" y="117" on="0"/>
        <pt x="740" y="38" on="0"/>
        <pt x="650" y="-9" on="0"/>
        <pt x="601" y="-9" on="1"/>
        <pt x="569" y="-9" on="0"/>
        <pt x="527" y="10" on="0"/>
        <pt x="504" y="43" on="0"/>
        <pt x="498" y="86" on="0"/>
        <pt x="501" y="110" on="1"/>
      </contour>
      <contour>
        <pt x="539" y="382" on="1"/>
        <pt x="527" y="387" on="0"/>
        <pt x="490" y="393" on="0"/>
        <pt x="478" y="393" on="1"/>
        <pt x="459" y="393" on="0"/>
        <pt x="430" y="373" on="0"/>
        <pt x="408" y="339" on="0"/>
        <pt x="393" y="291" on="0"/>
        <pt x="387" y="264" on="1"/>
        <pt x="374" y="196" on="0"/>
        <pt x="382" y="124" on="0"/>
        <pt x="411" y="124" on="1"/>
        <pt x="423" y="124" on="0"/>
        <pt x="454" y="144" on="0"/>
        <pt x="486" y="192" on="0"/>
        <pt x="516" y="274" on="0"/>
        <pt x="528" y="336" on="1"/>
      </contour>
    </TTGlyph>
    <TTGlyph name="atilde" xMin="4" yMin="-9" xMax="589" yMax="687">
      <component glyphName="a" x="0" y="0" flags="0x204"/>
      <component glyphName="tilde" x="118" y="0" flags="0x4"/>
    </TTGlyph>
    <TTGlyph name="b" xMin="6" yMin="-9" xMax="578" yMax="710">
      <contour>
        <pt x="103" y="506" on="1"/>
        <pt x="107" y="533" on="0"/>
        <pt x="110" y="567" on="0"/>
        <pt x="100" y="586" on="0"/>
        <pt x="74" y="594" on="0"/>
        <pt x="50" y="594" on="1"/>
        <pt x="50" y="612" on="0"/>
        <pt x="56" y="652" on="0"/>
        <pt x="63" y="669" on="1"/>
        <pt x="125" y="671" on="0"/>
        <pt x="241" y="690" on="0"/>
        <pt x="291" y="710" on="1"/>
        <pt x="301" y="701" on="0"/>
        <pt x="314" y="686" on="0"/>
        <pt x="320" y="667" on="0"/>
        <pt x="320" y="641" on="0"/>
        <pt x="317" y="622" on="1"/>
        <pt x="295" y="501" on="1"/>
        <pt x="290" y="474" on="0"/>
        <pt x="280" y="432" on="0"/>
        <pt x="269" y="395" on="0"/>
        <pt x="256" y="361" on="0"/>
        <pt x="248" y="342" on="1"/>
        <pt x="249" y="342" on="1"/>
        <pt x="291" y="403" on="0"/>
        <pt x="393" y="467" on="0"/>
        <pt x="447" y="467" on="1"/>
        <pt x="495" y="467" on="0"/>
        <pt x="552" y="418" on="0"/>
        <pt x="577" y="345" on="0"/>
        <pt x="578" y="261" on="0"/>
        <pt x="571" y="226" on="1"/>
        <pt x="562" y="179" on="0"/>
        <pt x="519" y="94" on="0"/>
        <pt x="446" y="30" on="0"/>
        <pt x="338" y="-9" on="0"/>
        <pt x="265" y="-9" on="1"/>
        <pt x="184" y="-9" on="0"/>
        <pt x="48" y="38" on="0"/>
        <pt x="6" y="80" on="1"/>
        <pt x="19" y="101" on="0"/>
        <pt x="42" y="161" on="0"/>
        <pt x="52" y="217" on="1"/>
      </contour>
      <contour>
        <pt x="216" y="76" on="1"/>
        <pt x="230" y="69" on="0"/>
        <pt x="257" y="65" on="0"/>
        <pt x="270" y="65" on="1"/>
        <pt x="311" y="65" on="0"/>
        <pt x="355" y="139" on="0"/>
        <pt x="366" y="194" on="1"/>
        <pt x="379" y="262" on="0"/>
        <pt x="371" y="334" on="0"/>
        <pt x="342" y="334" on="1"/>
        <pt x="330" y="334" on="0"/>
        <pt x="299" y="314" on="0"/>
        <pt x="267" y="266" on="0"/>
        <pt x="237" y="184" on="0"/>
        <pt x="225" y="122" on="1"/>
      </contour>
    </TTGlyph>
    <TTGlyph name="backslash" xMin="94" yMin="-14" xMax="260" yMax="724">
      <contour>
        <pt x="260" y="0" on="1"/>
        <pt x="243" y="-8" on="0"/>
        <pt x="195" y="-14" on="0"/>
        <pt x="172" y="-9" on="1"/>
        <pt x="158" y="163" on="0"/>
        <pt x="118" y="530" on="0"/>
        <pt x="94" y="702" on="1"/>
        <pt x="134" y="724" on="0"/>
        <pt x="180" y="713" on="1"/>
      </contour>
    </TTGlyph>
    <TTGlyph name="bar" xMin="-21" yMin="-250" xMax="248" yMax="716">
      <contour>
        <pt x="162" y="716" on="1"/>
        <pt x="186" y="716" on="0"/>
        <pt x="227" y="710" on="0"/>
        <pt x="248" y="701" on="1"/>
        <pt x="199" y="465" on="0"/>
        <pt x="109" y="-8" on="0"/>
        <pt x="66" y="-250" on="1"/>
        <pt x="43" y="-250" on="0"/>
        <pt x="-2" y="-242" on="0"/>
        <pt x="-21" y="-231" on="1"/>
      </contour>
    </TTGlyph>
    <TTGlyph name="braceleft" xMin="27" yMin="-283" xMax="449" yMax="754">
      <contour>
        <pt x="431" y="754" on="1"/>
        <pt x="442" y="743" on="0"/>
        <pt x="449" y="700" on="0"/>
        <pt x="445" y="682" on="1"/>
        <pt x="399" y="671" on="0"/>
        <pt x="352" y="625" on="0"/>
        <pt x="332" y="564" on="0"/>
        <pt x="331" y="493" on="0"/>
        <pt x="330" y="421" on="0"/>
        <pt x="323" y="353" on="0"/>
        <pt x="290" y="299" on="0"/>
        <pt x="224" y="263" on="0"/>
        <pt x="165" y="259" on="1"/>
        <pt x="219" y="247" on="0"/>
        <pt x="270" y="200" on="0"/>
        <pt x="284" y="136" on="0"/>
        <pt x="269" y="62" on="0"/>
        <pt x="245" y="-15" on="0"/>
        <pt x="222" y="-89" on="0"/>
        <pt x="219" y="-153" on="0"/>
        <pt x="246" y="-201" on="0"/>
        <pt x="284" y="-213" on="1"/>
        <pt x="286" y="-232" on="0"/>
        <pt x="274" y="-269" on="0"/>
        <pt x="260" y="-283" on="1"/>
        <pt x="184" y="-269" on="0"/>
        <pt x="104" y="-219" on="0"/>
        <pt x="71" y="-154" on="0"/>
        <pt x="74" y="-77" on="0"/>
        <pt x="91" y="2" on="0"/>
        <pt x="110" y="81" on="0"/>
        <pt x="107" y="151" on="0"/>
        <pt x="73" y="209" on="0"/>
        <pt x="28" y="227" on="1"/>
        <pt x="27" y="242" on="0"/>
        <pt x="35" y="277" on="0"/>
        <pt x="44" y="289" on="1"/>
        <pt x="93" y="300" on="0"/>
        <pt x="143" y="347" on="0"/>
        <pt x="164" y="409" on="0"/>
        <pt x="168" y="482" on="0"/>
        <pt x="175" y="557" on="0"/>
        <pt x="195" y="630" on="0"/>
        <pt x="250" y="693" on="0"/>
        <pt x="349" y="741" on="0"/>
      </contour>
    </TTGlyph>
    <TTGlyph name="braceright" xMin="-73" yMin="-283" xMax="358" yMax="754">
      <contour>
        <pt x="135" y="754" on="1"/>
        <pt x="202" y="732" on="0"/>
        <pt x="273" y="679" on="0"/>
        <pt x="302" y="620" on="0"/>
        <pt x="300" y="556" on="0"/>
        <pt x="286" y="491" on="0"/>
        <pt x="271" y="427" on="0"/>
        <pt x="276" y="367" on="0"/>
        <pt x="310" y="313" on="0"/>
        <pt x="352" y="291" on="1"/>
        <pt x="358" y="276" on="0"/>
        <pt x="357" y="243" on="0"/>
        <pt x="352" y="229" on="1"/>
        <pt x="304" y="213" on="0"/>
        <pt x="254" y="153" on="0"/>
        <pt x="229" y="78" on="0"/>
        <pt x="220" y="-8" on="0"/>
        <pt x="207" y="-94" on="0"/>
        <pt x="181" y="-175" on="0"/>
        <pt x="122" y="-238" on="0"/>
        <pt x="20" y="-279" on="0"/>
        <pt x="-62" y="-283" on="1"/>
        <pt x="-73" y="-264" on="0"/>
        <pt x="-71" y="-227" on="0"/>
        <pt x="-61" y="-208" on="1"/>
        <pt x="-14" y="-203" on="0"/>
        <pt x="35" y="-164" on="0"/>
        <pt x="55" y="-104" on="0"/>
        <pt x="57" y="-30" on="0"/>
        <pt x="57" y="49" on="0"/>
        <pt x="65" y="127" on="0"/>
        <pt x="98" y="194" on="0"/>
        <pt x="165" y="244" on="0"/>
        <pt x="224" y="256" on="1"/>
        <pt x="166" y="269" on="0"/>
        <pt x="109" y="313" on="0"/>
        <pt x="92" y="367" on="0"/>
        <pt x="105" y="430" on="0"/>
        <pt x="129" y="495" on="0"/>
        <pt x="153" y="560" on="0"/>
        <pt x="159" y="620" on="0"/>
        <pt x="136" y="671" on="0"/>
        <pt x="101" y="690" on="1"/>
        <pt x="103" y="708" on="0"/>
        <pt x="120" y="743" on="0"/>
      </contour>
    </TTGlyph>
    <TTGlyph name="bracketleft" xMin="-38" yMin="-268" xMax="363" yMax="742">
      <contour>
        <pt x="140" y="742" on="1"/>
        <pt x="249" y="737" on="0"/>
        <pt x="357" y="742" on="1"/>
        <pt x="363" y="723" on="0"/>
        <pt x="361" y="681" on="0"/>
        <pt x="355" y="659" on="1"/>
        <pt x="322" y="656" on="0"/>
        <pt x="280" y="648" on="0"/>
        <pt x="255" y="630" on="0"/>
        <pt x="242" y="599" on="0"/>
        <pt x="238" y="575" on="1"/>
        <pt x="119" y="-96" on="1"/>
        <pt x="114" y="-122" on="0"/>
        <pt x="116" y="-155" on="0"/>
        <pt x="132" y="-174" on="0"/>
        <pt x="167" y="-183" on="0"/>
        <pt x="196" y="-184" on="1"/>
        <pt x="203" y="-225" on="0"/>
        <pt x="189" y="-268" on="1"/>
        <pt x="168" y="-267" on="0"/>
        <pt x="110" y="-266" on="0"/>
        <pt x="48" y="-266" on="0"/>
        <pt x="-13" y="-267" on="0"/>
        <pt x="-38" y="-268" on="1"/>
      </contour>
    </TTGlyph>
    <TTGlyph name="bracketright" xMin="-40" yMin="-269" xMax="367" yMax="742">
      <contour>
        <pt x="189" y="-269" on="1"/>
        <pt x="163" y="-268" on="0"/>
        <pt x="104" y="-266" on="0"/>
        <pt x="44" y="-266" on="0"/>
        <pt x="-14" y="-268" on="0"/>
        <pt x="-39" y="-269" on="1"/>
        <pt x="-40" y="-249" on="0"/>
        <pt x="-30" y="-201" on="0"/>
        <pt x="-19" y="-184" on="1"/>
        <pt x="11" y="-183" on="0"/>
        <pt x="49" y="-174" on="0"/>
        <pt x="74" y="-155" on="0"/>
        <pt x="87" y="-122" on="0"/>
        <pt x="92" y="-96" on="1"/>
        <pt x="211" y="575" on="1"/>
        <pt x="215" y="599" on="0"/>
        <pt x="214" y="630" on="0"/>
        <pt x="197" y="648" on="0"/>
        <pt x="159" y="656" on="0"/>
        <pt x="127" y="659" on="1"/>
        <pt x="127" y="682" on="0"/>
        <pt x="138" y="727" on="0"/>
        <pt x="149" y="742" on="1"/>
        <pt x="202" y="740" on="0"/>
        <pt x="305" y="740" on="0"/>
        <pt x="367" y="742" on="1"/>
      </contour>
    </TTGlyph>
    <TTGlyph name="brokenbar" xMin="-21" yMin="-250" xMax="248" yMax="716">
      <contour>
        <pt x="162" y="716" on="1"/>
        <pt x="186" y="716" on="0"/>
        <pt x="227" y="710" on="0"/>
        <pt x="248" y="701" on="1"/>
        <pt x="226" y="601" on="0"/>
        <pt x="188" y="400" on="0"/>
        <pt x="171" y="297" on="1"/>
        <pt x="148" y="297" on="0"/>
        <pt x="103" y="305" on="0"/>
        <pt x="84" y="316" on="1"/>
      </contour>
      <contour>
        <pt x="59" y="177" on="1"/>
        <pt x="83" y="177" on="0"/>
        <pt x="124" y="171" on="0"/>
        <pt x="145" y="162" on="1"/>
        <pt x="123" y="60" on="0"/>
        <pt x="83" y="-145" on="0"/>
        <pt x="66" y="-250" on="1"/>
        <pt x="43" y="-250" on="0"/>
        <pt x="-2" y="-242" on="0"/>
        <pt x="-21" y="-231" on="1"/>
      </contour>
    </TTGlyph>
    <TTGlyph name="bullet" xMin="29" yMin="102" xMax="354" yMax="410">
      <contour>
        <pt x="347" y="236" on="1"/>
        <pt x="335" y="176" on="0"/>
        <pt x="248" y="102" on="0"/>
        <pt x="188" y="102" on="1"/>
        <pt x="147" y="102" on="0"/>
        <pt x="83" y="130" on="0"/>
        <pt x="43" y="179" on="0"/>
        <pt x="29" y="247" on="0"/>
        <pt x="37" y="288" on="1"/>
        <pt x="49" y="346" on="0"/>
        <pt x="140" y="410" on="0"/>
        <pt x="206" y="410" on="1"/>
        <pt x="244" y="410" on="0"/>
        <pt x="303" y="384" on="0"/>
        <pt x="341" y="337" on="0"/>
        <pt x="354" y="273" on="0"/>
      </contour>
    </TTGlyph>
    <TTGlyph name="c" xMin="3" yMin="-9" xMax="452" yMax="467">
      <contour>
        <pt x="313" y="467" on="1"/>
        <pt x="355" y="467" on="0"/>
        <pt x="430" y="446" on="0"/>
        <pt x="452" y="431" on="1"/>
        <pt x="432" y="373" on="0"/>
        <pt x="432" y="322" on="1"/>
        <pt x="391" y="307" on="0"/>
        <pt x="345" y="316" on="1"/>
        <pt x="347" y="348" on="0"/>
        <pt x="330" y="391" on="0"/>
        <pt x="303" y="391" on="1"/>
        <pt x="278" y="391" on="0"/>
        <pt x="230" y="337" on="0"/>
        <pt x="218" y="271" on="1"/>
        <pt x="210" y="235" on="0"/>
        <pt x="207" y="171" on="0"/>
        <pt x="221" y="125" on="0"/>
        <pt x="257" y="98" on="0"/>
        <pt x="289" y="98" on="1"/>
        <pt x="322" y="98" on="0"/>
        <pt x="380" y="118" on="0"/>
        <pt x="401" y="129" on="1"/>
        <pt x="412" y="110" on="0"/>
        <pt x="420" y="72" on="0"/>
        <pt x="418" y="47" on="1"/>
        <pt x="395" y="31" on="0"/>
        <pt x="350" y="10" on="0"/>
        <pt x="300" y="-3" on="0"/>
        <pt x="243" y="-9" on="0"/>
        <pt x="208" y="-9" on="1"/>
        <pt x="140" y="-9" on="0"/>
        <pt x="55" y="31" on="0"/>
        <pt x="11" y="98" on="0"/>
        <pt x="3" y="186" on="0"/>
        <pt x="12" y="234" on="1"/>
        <pt x="19" y="271" on="0"/>
        <pt x="56" y="353" on="0"/>
        <pt x="126" y="422" on="0"/>
        <pt x="234" y="467" on="0"/>
      </contour>
    </TTGlyph>
    <TTGlyph name="ccedilla" xMin="4" yMin="-244" xMax="452" yMax="467">
      <contour>
        <pt x="149" y="-4" on="1"/>
        <pt x="100" y="5" on="0"/>
        <pt x="39" y="49" on="0"/>
        <pt x="8" y="113" on="0"/>
        <pt x="4" y="192" on="0"/>
        <pt x="12" y="234" on="1"/>
        <pt x="19" y="271" on="0"/>
        <pt x="56" y="353" on="0"/>
        <pt x="126" y="422" on="0"/>
        <pt x="234" y="467" on="0"/>
        <pt x="313" y="467" on="1"/>
        <pt x="355" y="467" on="0"/>
        <pt x="430" y="446" on="0"/>
        <pt x="452" y="431" on="1"/>
        <pt x="432" y="373" on="0"/>
        <pt x="432" y="322" on="1"/>
        <pt x="391" y="307" on="0"/>
        <pt x="345" y="316" on="1"/>
        <pt x="347" y="348" on="0"/>
        <pt x="330" y="391" on="0"/>
        <pt x="303" y="391" on="1"/>
        <pt x="278" y="391" on="0"/>
        <pt x="230" y="337" on="0"/>
        <pt x="218" y="271" on="1"/>
        <pt x="210" y="235" on="0"/>
        <pt x="207" y="171" on="0"/>
        <pt x="221" y="125" on="0"/>
        <pt x="257" y="98" on="0"/>
        <pt x="289" y="98" on="1"/>
        <pt x="322" y="98" on="0"/>
        <pt x="380" y="118" on="0"/>
        <pt x="401" y="129" on="1"/>
        <pt x="412" y="110" on="0"/>
        <pt x="420" y="72" on="0"/>
        <pt x="418" y="47" on="1"/>
        <pt x="377" y="18" on="0"/>
        <pt x="294" y="-7" on="0"/>
        <pt x="236" y="-9" on="1"/>
        <pt x="200" y="-46" on="1"/>
        <pt x="237" y="-58" on="0"/>
        <pt x="262" y="-112" on="0"/>
        <pt x="255" y="-148" on="1"/>
        <pt x="246" y="-195" on="0"/>
        <pt x="148" y="-244" on="0"/>
        <pt x="61" y="-242" on="1"/>
        <pt x="57" y="-231" on="0"/>
        <pt x="59" y="-202" on="0"/>
        <pt x="62" y="-191" on="1"/>
        <pt x="95" y="-192" on="0"/>
        <pt x="147" y="-172" on="0"/>
        <pt x="150" y="-155" on="1"/>
        <pt x="155" y="-132" on="0"/>
        <pt x="123" y="-110" on="0"/>
        <pt x="98" y="-110" on="1"/>
        <pt x="86" y="-89" on="0"/>
        <pt x="89" y="-63" on="1"/>
      </contour>
    </TTGlyph>
    <TTGlyph name="cedilla" xMin="162" yMin="-244" xMax="367" yMax="16">
      <contour>
        <pt x="305" y="-46" on="1"/>
        <pt x="342" y="-58" on="0"/>
        <pt x="367" y="-112" on="0"/>
        <pt x="360" y="-148" on="1"/>
        <pt x="351" y="-195" on="0"/>
        <pt x="253" y="-244" on="0"/>
        <pt x="166" y="-242" on="1"/>
        <pt x="162" y="-231" on="0"/>
        <pt x="164" y="-202" on="0"/>
        <pt x="167" y="-191" on="1"/>
        <pt x="200" y="-192" on="0"/>
        <pt x="252" y="-172" on="0"/>
        <pt x="255" y="-155" on="1"/>
        <pt x="260" y="-132" on="0"/>
        <pt x="228" y="-110" on="0"/>
        <pt x="203" y="-110" on="1"/>
        <pt x="191" y="-89" on="0"/>
        <pt x="194" y="-63" on="1"/>
        <pt x="274" y="16" on="1"/>
        <pt x="364" y="16" on="1"/>
      </contour>
    </TTGlyph>
    <TTGlyph name="cent" xMin="4" yMin="-135" xMax="452" yMax="607">
      <contour>
        <pt x="321" y="467" on="1"/>
        <pt x="361" y="465" on="0"/>
        <pt x="431" y="445" on="0"/>
        <pt x="452" y="431" on="1"/>
        <pt x="432" y="373" on="0"/>
        <pt x="432" y="322" on="1"/>
        <pt x="391" y="307" on="0"/>
        <pt x="345" y="316" on="1"/>
        <pt x="347" y="348" on="0"/>
        <pt x="330" y="391" on="0"/>
        <pt x="303" y="391" on="1"/>
        <pt x="278" y="391" on="0"/>
        <pt x="230" y="337" on="0"/>
        <pt x="218" y="271" on="1"/>
        <pt x="210" y="235" on="0"/>
        <pt x="207" y="171" on="0"/>
        <pt x="221" y="125" on="0"/>
        <pt x="257" y="98" on="0"/>
        <pt x="289" y="98" on="1"/>
        <pt x="322" y="98" on="0"/>
        <pt x="380" y="118" on="0"/>
        <pt x="401" y="129" on="1"/>
        <pt x="412" y="110" on="0"/>
        <pt x="420" y="72" on="0"/>
        <pt x="418" y="47" on="1"/>
        <pt x="380" y="21" on="0"/>
        <pt x="302" y="-5" on="0"/>
        <pt x="250" y="-8" on="1"/>
        <pt x="228" y="-135" on="1"/>
        <pt x="205" y="-135" on="0"/>
        <pt x="160" y="-127" on="0"/>
        <pt x="141" y="-116" on="1"/>
        <pt x="163" y="-6" on="1"/>
        <pt x="109" y="1" on="0"/>
        <pt x="43" y="45" on="0"/>
        <pt x="9" y="109" on="0"/>
        <pt x="4" y="190" on="0"/>
        <pt x="12" y="234" on="1"/>
        <pt x="18" y="265" on="0"/>
        <pt x="47" y="336" on="0"/>
        <pt x="99" y="399" on="0"/>
        <pt x="177" y="449" on="0"/>
        <pt x="233" y="460" on="1"/>
        <pt x="261" y="607" on="1"/>
        <pt x="285" y="607" on="0"/>
        <pt x="326" y="601" on="0"/>
        <pt x="347" y="592" on="1"/>
      </contour>
    </TTGlyph>
    <TTGlyph name="circumflex" xMin="37" yMin="511" xMax="447" yMax="722">
      <contour>
        <pt x="228" y="719" on="1"/>
        <pt x="248" y="722" on="0"/>
        <pt x="293" y="719" on="0"/>
        <pt x="313" y="712" on="1"/>
        <pt x="339" y="675" on="0"/>
        <pt x="403" y="599" on="0"/>
        <pt x="447" y="552" on="1"/>
        <pt x="433" y="538" on="0"/>
        <pt x="387" y="523" on="0"/>
        <pt x="359" y="521" on="1"/>
        <pt x="331" y="544" on="0"/>
        <pt x="268" y="584" on="0"/>
        <pt x="239" y="598" on="1"/>
        <pt x="222" y="590" on="0"/>
        <pt x="182" y="567" on="0"/>
        <pt x="142" y="543" on="0"/>
        <pt x="106" y="520" on="0"/>
        <pt x="94" y="511" on="1"/>
        <pt x="69" y="521" on="0"/>
        <pt x="40" y="564" on="0"/>
        <pt x="37" y="581" on="1"/>
        <pt x="61" y="594" on="0"/>
        <pt x="113" y="628" on="0"/>
        <pt x="164" y="665" on="0"/>
        <pt x="210" y="702" on="0"/>
      </contour>
    </TTGlyph>
    <TTGlyph name="colon" xMin="3" yMin="-1" xMax="283" yMax="467">
      <contour>
        <pt x="277" y="345" on="1"/>
        <pt x="269" y="306" on="0"/>
        <pt x="217" y="261" on="0"/>
        <pt x="169" y="261" on="1"/>
        <pt x="113" y="261" on="0"/>
        <pt x="54" y="324" on="0"/>
        <pt x="66" y="384" on="1"/>
        <pt x="74" y="424" on="0"/>
        <pt x="130" y="467" on="0"/>
        <pt x="181" y="467" on="1"/>
        <pt x="202" y="467" on="0"/>
        <pt x="242" y="451" on="0"/>
        <pt x="270" y="420" on="0"/>
        <pt x="283" y="375" on="0"/>
      </contour>
      <contour>
        <pt x="226" y="83" on="1"/>
        <pt x="218" y="44" on="0"/>
        <pt x="166" y="-1" on="0"/>
        <pt x="118" y="-1" on="1"/>
        <pt x="62" y="-1" on="0"/>
        <pt x="3" y="62" on="0"/>
        <pt x="15" y="122" on="1"/>
        <pt x="23" y="162" on="0"/>
        <pt x="79" y="205" on="0"/>
        <pt x="130" y="205" on="1"/>
        <pt x="151" y="205" on="0"/>
        <pt x="191" y="189" on="0"/>
        <pt x="219" y="158" on="0"/>
        <pt x="232" y="113" on="0"/>
      </contour>
    </TTGlyph>
    <TTGlyph name="comma" xMin="-16" yMin="-184" xMax="215" yMax="185">
      <contour>
        <pt x="174" y="185" on="1"/>
        <pt x="193" y="177" on="0"/>
        <pt x="215" y="123" on="0"/>
        <pt x="204" y="65" on="1"/>
        <pt x="190" y="-14" on="0"/>
        <pt x="105" y="-141" on="0"/>
        <pt x="46" y="-184" on="1"/>
        <pt x="1" y="-178" on="0"/>
        <pt x="-16" y="-147" on="1"/>
        <pt x="20" y="-113" on="0"/>
        <pt x="64" y="-50" on="0"/>
        <pt x="72" y="-1" on="0"/>
        <pt x="41" y="33" on="0"/>
        <pt x="3" y="38" on="1"/>
        <pt x="3" y="99" on="0"/>
        <pt x="34" y="148" on="1"/>
        <pt x="74" y="150" on="0"/>
        <pt x="148" y="170" on="0"/>
      </contour>
    </TTGlyph>
    <TTGlyph name="copyright" xMin="18" yMin="-117" xMax="729" yMax="577">
      <contour>
        <pt x="399" y="577" on="1"/>
        <pt x="486" y="577" on="0"/>
        <pt x="618" y="518" on="0"/>
        <pt x="701" y="412" on="0"/>
        <pt x="729" y="266" on="0"/>
        <pt x="712" y="179" on="1"/>
        <pt x="699" y="108" on="0"/>
        <pt x="635" y="-2" on="0"/>
        <pt x="540" y="-77" on="0"/>
        <pt x="418" y="-117" on="0"/>
        <pt x="348" y="-117" on="1"/>
        <pt x="261" y="-117" on="0"/>
        <pt x="128" y="-60" on="0"/>
        <pt x="46" y="44" on="0"/>
        <pt x="18" y="191" on="0"/>
        <pt x="35" y="280" on="1"/>
        <pt x="48" y="349" on="0"/>
        <pt x="113" y="460" on="0"/>
        <pt x="209" y="536" on="0"/>
        <pt x="330" y="577" on="0"/>
      </contour>
      <contour>
        <pt x="358" y="-46" on="1"/>
        <pt x="413" y="-46" on="0"/>
        <pt x="510" y="-13" on="0"/>
        <pt x="584" y="47" on="0"/>
        <pt x="633" y="131" on="0"/>
        <pt x="641" y="182" on="1"/>
        <pt x="655" y="257" on="0"/>
        <pt x="635" y="377" on="0"/>
        <pt x="570" y="462" on="0"/>
        <pt x="462" y="507" on="0"/>
        <pt x="389" y="507" on="1"/>
        <pt x="334" y="507" on="0"/>
        <pt x="238" y="474" on="0"/>
        <pt x="163" y="414" on="0"/>
        <pt x="114" y="329" on="0"/>
        <pt x="105" y="278" on="1"/>
        <pt x="90" y="204" on="0"/>
        <pt x="111" y="84" on="0"/>
        <pt x="177" y="0" on="0"/>
        <pt x="286" y="-46" on="0"/>
      </contour>
      <contour>
        <pt x="425" y="444" on="1"/>
        <pt x="463" y="444" on="0"/>
        <pt x="530" y="425" on="0"/>
        <pt x="550" y="411" on="1"/>
        <pt x="542" y="385" on="0"/>
        <pt x="532" y="336" on="0"/>
        <pt x="532" y="313" on="1"/>
        <pt x="494" y="299" on="0"/>
        <pt x="454" y="308" on="1"/>
        <pt x="456" y="337" on="0"/>
        <pt x="441" y="375" on="0"/>
        <pt x="416" y="375" on="1"/>
        <pt x="393" y="375" on="0"/>
        <pt x="351" y="327" on="0"/>
        <pt x="340" y="267" on="1"/>
        <pt x="333" y="234" on="0"/>
        <pt x="330" y="177" on="0"/>
        <pt x="342" y="135" on="0"/>
        <pt x="375" y="111" on="0"/>
        <pt x="404" y="111" on="1"/>
        <pt x="433" y="111" on="0"/>
        <pt x="485" y="129" on="0"/>
        <pt x="504" y="139" on="1"/>
        <pt x="515" y="122" on="0"/>
        <pt x="522" y="88" on="0"/>
        <pt x="520" y="65" on="1"/>
        <pt x="479" y="37" on="0"/>
        <pt x="393" y="15" on="0"/>
        <pt x="331" y="15" on="1"/>
        <pt x="269" y="15" on="0"/>
        <pt x="193" y="51" on="0"/>
        <pt x="153" y="111" on="0"/>
        <pt x="146" y="190" on="0"/>
        <pt x="154" y="234" on="1"/>
        <pt x="160" y="267" on="0"/>
        <pt x="193" y="341" on="0"/>
        <pt x="256" y="403" on="0"/>
        <pt x="354" y="444" on="0"/>
      </contour>
    </TTGlyph>
    <TTGlyph name="currency" xMin="-10" yMin="47" xMax="480" yMax="462">
      <contour>
        <pt x="394" y="355" on="1"/>
        <pt x="407" y="331" on="0"/>
        <pt x="415" y="274" on="0"/>
        <pt x="409" y="242" on="1"/>
        <pt x="400" y="190" on="0"/>
        <pt x="369" y="151" on="1"/>
        <pt x="440" y="76" on="1"/>
        <pt x="430" y="64" on="0"/>
        <pt x="388" y="49" on="0"/>
        <pt x="369" y="47" on="1"/>
        <pt x="317" y="106" on="1"/>
        <pt x="273" y="80" on="0"/>
        <pt x="217" y="80" on="1"/>
        <pt x="188" y="80" on="0"/>
        <pt x="139" y="95" on="0"/>
        <pt x="119" y="109" on="1"/>
        <pt x="57" y="50" on="1"/>
        <pt x="38" y="51" on="0"/>
        <pt x="1" y="71" on="0"/>
        <pt x="-10" y="85" on="1"/>
        <pt x="75" y="159" on="1"/>
        <pt x="60" y="186" on="0"/>
        <pt x="50" y="254" on="0"/>
        <pt x="57" y="291" on="1"/>
        <pt x="64" y="333" on="0"/>
        <pt x="89" y="365" on="1"/>
        <pt x="23" y="436" on="1"/>
        <pt x="34" y="447" on="0"/>
        <pt x="76" y="461" on="0"/>
        <pt x="94" y="461" on="1"/>
        <pt x="140" y="410" on="1"/>
        <pt x="184" y="436" on="0"/>
        <pt x="241" y="436" on="1"/>
        <pt x="308" y="436" on="0"/>
        <pt x="353" y="402" on="1"/>
        <pt x="421" y="462" on="1"/>
        <pt x="438" y="458" on="0"/>
        <pt x="471" y="436" on="0"/>
        <pt x="480" y="422" on="1"/>
      </contour>
      <contour>
        <pt x="136" y="277" on="1"/>
        <pt x="131" y="251" on="0"/>
        <pt x="140" y="205" on="0"/>
        <pt x="163" y="171" on="0"/>
        <pt x="201" y="151" on="0"/>
        <pt x="225" y="151" on="1"/>
        <pt x="265" y="151" on="0"/>
        <pt x="322" y="199" on="0"/>
        <pt x="329" y="238" on="1"/>
        <pt x="338" y="292" on="0"/>
        <pt x="284" y="365" on="0"/>
        <pt x="233" y="365" on="1"/>
        <pt x="196" y="365" on="0"/>
        <pt x="144" y="317" on="0"/>
      </contour>
    </TTGlyph>
    <TTGlyph name="d" xMin="4" yMin="-9" xMax="593" yMax="710">
      <contour>
        <pt x="512" y="182" on="1"/>
        <pt x="508" y="158" on="0"/>
        <pt x="504" y="127" on="0"/>
        <pt x="504" y="110" on="0"/>
        <pt x="510" y="104" on="0"/>
        <pt x="515" y="104" on="1"/>
        <pt x="522" y="104" on="0"/>
        <pt x="536" y="110" on="0"/>
        <pt x="549" y="118" on="1"/>
        <pt x="559" y="108" on="0"/>
        <pt x="579" y="69" on="0"/>
        <pt x="581" y="52" on="1"/>
        <pt x="548" y="20" on="0"/>
        <pt x="472" y="-9" on="0"/>
        <pt x="427" y="-9" on="1"/>
        <pt x="395" y="-9" on="0"/>
        <pt x="355" y="12" on="0"/>
        <pt x="332" y="45" on="0"/>
        <pt x="327" y="88" on="0"/>
        <pt x="331" y="111" on="1"/>
        <pt x="330" y="111" on="1"/>
        <pt x="288" y="52" on="0"/>
        <pt x="188" y="-9" on="0"/>
        <pt x="135" y="-9" on="1"/>
        <pt x="87" y="-9" on="0"/>
        <pt x="30" y="40" on="0"/>
        <pt x="5" y="113" on="0"/>
        <pt x="4" y="197" on="0"/>
        <pt x="11" y="232" on="1"/>
        <pt x="20" y="278" on="0"/>
        <pt x="62" y="363" on="0"/>
        <pt x="135" y="428" on="0"/>
        <pt x="242" y="467" on="0"/>
        <pt x="314" y="467" on="1"/>
        <pt x="331" y="467" on="0"/>
        <pt x="359" y="465" on="0"/>
        <pt x="373" y="463" on="1"/>
        <pt x="373" y="476" on="0"/>
        <pt x="375" y="498" on="0"/>
        <pt x="376" y="506" on="1"/>
        <pt x="380" y="533" on="0"/>
        <pt x="383" y="567" on="0"/>
        <pt x="373" y="586" on="0"/>
        <pt x="347" y="594" on="0"/>
        <pt x="323" y="594" on="1"/>
        <pt x="323" y="612" on="0"/>
        <pt x="329" y="652" on="0"/>
        <pt x="336" y="669" on="1"/>
        <pt x="398" y="671" on="0"/>
        <pt x="514" y="690" on="0"/>
        <pt x="564" y="710" on="1"/>
        <pt x="574" y="701" on="0"/>
        <pt x="587" y="686" on="0"/>
        <pt x="593" y="667" on="0"/>
        <pt x="593" y="641" on="0"/>
        <pt x="590" y="622" on="1"/>
      </contour>
      <contour>
        <pt x="368" y="382" on="1"/>
        <pt x="357" y="387" on="0"/>
        <pt x="319" y="393" on="0"/>
        <pt x="307" y="393" on="1"/>
        <pt x="288" y="393" on="0"/>
        <pt x="259" y="373" on="0"/>
        <pt x="237" y="339" on="0"/>
        <pt x="222" y="291" on="0"/>
        <pt x="216" y="264" on="1"/>
        <pt x="203" y="196" on="0"/>
        <pt x="211" y="124" on="0"/>
        <pt x="240" y="124" on="1"/>
        <pt x="252" y="124" on="0"/>
        <pt x="283" y="144" on="0"/>
        <pt x="315" y="192" on="0"/>
        <pt x="345" y="274" on="0"/>
        <pt x="357" y="336" on="1"/>
      </contour>
    </TTGlyph>
    <TTGlyph name="dagger" xMin="66" yMin="-250" xMax="485" yMax="674">
      <contour>
        <pt x="485" y="458" on="1"/>
        <pt x="483" y="427" on="0"/>
        <pt x="466" y="368" on="0"/>
        <pt x="451" y="344" on="1"/>
        <pt x="419" y="354" on="0"/>
        <pt x="360" y="365" on="0"/>
        <pt x="322" y="368" on="1"/>
        <pt x="286" y="217" on="0"/>
        <pt x="223" y="-89" on="0"/>
        <pt x="197" y="-250" on="1"/>
        <pt x="174" y="-248" on="0"/>
        <pt x="139" y="-237" on="0"/>
        <pt x="125" y="-221" on="1"/>
        <pt x="152" y="-77" on="0"/>
        <pt x="197" y="216" on="0"/>
        <pt x="215" y="366" on="1"/>
        <pt x="172" y="361" on="0"/>
        <pt x="103" y="351" on="0"/>
        <pt x="66" y="343" on="1"/>
        <pt x="66" y="410" on="0"/>
        <pt x="90" y="458" on="1"/>
        <pt x="226" y="458" on="1"/>
        <pt x="244" y="645" on="1"/>
        <pt x="281" y="646" on="0"/>
        <pt x="333" y="660" on="0"/>
        <pt x="360" y="674" on="1"/>
        <pt x="383" y="664" on="0"/>
        <pt x="391" y="634" on="0"/>
        <pt x="383" y="604" on="1"/>
        <pt x="373" y="568" on="0"/>
        <pt x="354" y="495" on="0"/>
        <pt x="345" y="458" on="1"/>
      </contour>
    </TTGlyph>
    <TTGlyph name="daggerdbl" xMin="2" yMin="-217" xMax="485" yMax="674">
      <contour>
        <pt x="231" y="458" on="1"/>
        <pt x="234" y="496" on="0"/>
        <pt x="240" y="588" on="0"/>
        <pt x="244" y="645" on="1"/>
        <pt x="281" y="646" on="0"/>
        <pt x="333" y="660" on="0"/>
        <pt x="360" y="674" on="1"/>
        <pt x="383" y="664" on="0"/>
        <pt x="392" y="634" on="0"/>
        <pt x="383" y="604" on="1"/>
        <pt x="369" y="561" on="0"/>
        <pt x="348" y="489" on="0"/>
        <pt x="339" y="458" on="1"/>
        <pt x="485" y="458" on="1"/>
        <pt x="483" y="427" on="0"/>
        <pt x="466" y="368" on="0"/>
        <pt x="451" y="344" on="1"/>
        <pt x="418" y="355" on="0"/>
        <pt x="356" y="366" on="0"/>
        <pt x="316" y="369" on="1"/>
        <pt x="311" y="348" on="1"/>
        <pt x="300" y="299" on="0"/>
        <pt x="300" y="244" on="0"/>
        <pt x="308" y="224" on="1"/>
        <pt x="295" y="211" on="0"/>
        <pt x="277" y="163" on="0"/>
        <pt x="269" y="115" on="1"/>
        <pt x="266" y="92" on="1"/>
        <pt x="311" y="97" on="0"/>
        <pt x="383" y="107" on="0"/>
        <pt x="421" y="115" on="1"/>
        <pt x="421" y="48" on="0"/>
        <pt x="397" y="0" on="1"/>
        <pt x="256" y="0" on="1"/>
        <pt x="253" y="-38" on="0"/>
        <pt x="247" y="-131" on="0"/>
        <pt x="243" y="-188" on="1"/>
        <pt x="206" y="-189" on="0"/>
        <pt x="154" y="-203" on="0"/>
        <pt x="127" y="-217" on="1"/>
        <pt x="104" y="-207" on="0"/>
        <pt x="95" y="-177" on="0"/>
        <pt x="104" y="-147" on="1"/>
        <pt x="118" y="-104" on="0"/>
        <pt x="139" y="-31" on="0"/>
        <pt x="148" y="0" on="1"/>
        <pt x="2" y="0" on="1"/>
        <pt x="4" y="31" on="0"/>
        <pt x="21" y="90" on="0"/>
        <pt x="36" y="114" on="1"/>
        <pt x="69" y="103" on="0"/>
        <pt x="131" y="92" on="0"/>
        <pt x="171" y="89" on="1"/>
        <pt x="177" y="116" on="1"/>
        <pt x="186" y="161" on="0"/>
        <pt x="187" y="214" on="0"/>
        <pt x="179" y="233" on="1"/>
        <pt x="193" y="247" on="0"/>
        <pt x="211" y="299" on="0"/>
        <pt x="219" y="351" on="1"/>
        <pt x="221" y="366" on="1"/>
        <pt x="176" y="361" on="0"/>
        <pt x="104" y="351" on="0"/>
        <pt x="66" y="343" on="1"/>
        <pt x="66" y="410" on="0"/>
        <pt x="90" y="458" on="1"/>
      </contour>
    </TTGlyph>
    <TTGlyph name="degree" xMin="113" yMin="415" xMax="433" yMax="699">
      <contour>
        <pt x="284" y="699" on="1"/>
        <pt x="323" y="699" on="0"/>
        <pt x="382" y="676" on="0"/>
        <pt x="419" y="634" on="0"/>
        <pt x="433" y="575" on="0"/>
        <pt x="427" y="539" on="1"/>
        <pt x="416" y="478" on="0"/>
        <pt x="327" y="415" on="0"/>
        <pt x="256" y="415" on="1"/>
        <pt x="218" y="415" on="0"/>
        <pt x="162" y="439" on="0"/>
        <pt x="126" y="483" on="0"/>
        <pt x="113" y="544" on="0"/>
        <pt x="119" y="580" on="1"/>
        <pt x="129" y="641" on="0"/>
        <pt x="218" y="699" on="0"/>
      </contour>
      <contour>
        <pt x="277" y="641" on="1"/>
        <pt x="260" y="641" on="0"/>
        <pt x="234" y="611" on="0"/>
        <pt x="230" y="587" on="1"/>
        <pt x="221" y="536" on="0"/>
        <pt x="239" y="475" on="0"/>
        <pt x="263" y="475" on="1"/>
        <pt x="283" y="475" on="0"/>
        <pt x="312" y="509" on="0"/>
        <pt x="317" y="538" on="1"/>
        <pt x="325" y="585" on="0"/>
        <pt x="303" y="641" on="0"/>
      </contour>
    </TTGlyph>
    <TTGlyph name="dieresis" xMin="127" yMin="497" xMax="548" yMax="679">
      <contour>
        <pt x="137" y="604" on="1"/>
        <pt x="144" y="640" on="0"/>
        <pt x="189" y="679" on="0"/>
        <pt x="230" y="679" on="1"/>
        <pt x="277" y="679" on="0"/>
        <pt x="319" y="622" on="0"/>
        <pt x="308" y="574" on="1"/>
        <pt x="299" y="537" on="0"/>
        <pt x="254" y="497" on="0"/>
        <pt x="216" y="497" on="1"/>
        <pt x="169" y="497" on="0"/>
        <pt x="127" y="556" on="0"/>
      </contour>
      <contour>
        <pt x="538" y="576" on="1"/>
        <pt x="523" y="497" on="0"/>
        <pt x="443" y="497" on="1"/>
        <pt x="396" y="497" on="0"/>
        <pt x="353" y="552" on="0"/>
        <pt x="362" y="598" on="1"/>
        <pt x="368" y="637" on="0"/>
        <pt x="416" y="679" on="0"/>
        <pt x="461" y="679" on="1"/>
        <pt x="506" y="679" on="0"/>
        <pt x="548" y="624" on="0"/>
      </contour>
    </TTGlyph>
    <TTGlyph name="divide" xMin="25" yMin="-3" xMax="513" yMax="525">
      <contour>
        <pt x="387" y="431" on="1"/>
        <pt x="381" y="400" on="0"/>
        <pt x="338" y="361" on="0"/>
        <pt x="302" y="361" on="1"/>
        <pt x="257" y="361" on="0"/>
        <pt x="209" y="413" on="0"/>
        <pt x="218" y="459" on="1"/>
        <pt x="224" y="491" on="0"/>
        <pt x="270" y="525" on="0"/>
        <pt x="311" y="525" on="1"/>
        <pt x="347" y="525" on="0"/>
        <pt x="395" y="475" on="0"/>
      </contour>
      <contour>
        <pt x="513" y="306" on="1"/>
        <pt x="512" y="283" on="0"/>
        <pt x="499" y="236" on="0"/>
        <pt x="486" y="219" on="1"/>
        <pt x="430" y="219" on="0"/>
        <pt x="323" y="219" on="0"/>
        <pt x="213" y="218" on="0"/>
        <pt x="94" y="216" on="0"/>
        <pt x="25" y="215" on="1"/>
        <pt x="26" y="239" on="0"/>
        <pt x="40" y="287" on="0"/>
        <pt x="53" y="306" on="1"/>
      </contour>
      <contour>
        <pt x="331" y="67" on="1"/>
        <pt x="325" y="34" on="0"/>
        <pt x="283" y="-3" on="0"/>
        <pt x="244" y="-3" on="1"/>
        <pt x="202" y="-3" on="0"/>
        <pt x="153" y="48" on="0"/>
        <pt x="163" y="97" on="1"/>
        <pt x="169" y="126" on="0"/>
        <pt x="212" y="161" on="0"/>
        <pt x="253" y="161" on="1"/>
        <pt x="271" y="161" on="0"/>
        <pt x="303" y="149" on="0"/>
        <pt x="325" y="125" on="0"/>
        <pt x="335" y="90" on="0"/>
      </contour>
    </TTGlyph>
    <TTGlyph name="dollar" xMin="-7" yMin="-85" xMax="526" yMax="758">
      <contour>
        <pt x="390" y="683" on="1"/>
        <pt x="437" y="678" on="0"/>
        <pt x="506" y="653" on="0"/>
        <pt x="526" y="636" on="1"/>
        <pt x="521" y="597" on="0"/>
        <pt x="514" y="510" on="0"/>
        <pt x="515" y="481" on="1"/>
        <pt x="465" y="465" on="0"/>
        <pt x="404" y="471" on="1"/>
        <pt x="403" y="546" on="0"/>
        <pt x="369" y="581" on="1"/>
        <pt x="361" y="542" on="0"/>
        <pt x="347" y="469" on="0"/>
        <pt x="339" y="433" on="1"/>
        <pt x="371" y="415" on="0"/>
        <pt x="436" y="373" on="0"/>
        <pt x="485" y="316" on="0"/>
        <pt x="508" y="237" on="0"/>
        <pt x="499" y="183" on="1"/>
        <pt x="492" y="143" on="0"/>
        <pt x="450" y="78" on="0"/>
        <pt x="387" y="29" on="0"/>
        <pt x="304" y="-2" on="0"/>
        <pt x="257" y="-7" on="1"/>
        <pt x="243" y="-85" on="1"/>
        <pt x="220" y="-85" on="0"/>
        <pt x="175" y="-77" on="0"/>
        <pt x="156" y="-66" on="1"/>
        <pt x="167" y="-8" on="1"/>
        <pt x="138" y="-6" on="0"/>
        <pt x="92" y="5" on="0"/>
        <pt x="51" y="22" on="0"/>
        <pt x="14" y="46" on="0"/>
        <pt x="-7" y="62" on="1"/>
        <pt x="21" y="136" on="0"/>
        <pt x="31" y="218" on="1"/>
        <pt x="60" y="223" on="0"/>
        <pt x="120" y="225" on="0"/>
        <pt x="149" y="219" on="1"/>
        <pt x="140" y="117" on="0"/>
        <pt x="186" y="87" on="1"/>
        <pt x="218" y="254" on="1"/>
        <pt x="189" y="272" on="0"/>
        <pt x="132" y="316" on="0"/>
        <pt x="92" y="378" on="0"/>
        <pt x="74" y="462" on="0"/>
        <pt x="85" y="520" on="1"/>
        <pt x="99" y="593" on="0"/>
        <pt x="218" y="675" on="0"/>
        <pt x="301" y="683" on="1"/>
        <pt x="316" y="758" on="1"/>
        <pt x="340" y="758" on="0"/>
        <pt x="381" y="752" on="0"/>
        <pt x="402" y="743" on="1"/>
      </contour>
      <contour>
        <pt x="286" y="604" on="1"/>
        <pt x="266" y="600" on="0"/>
        <pt x="239" y="578" on="0"/>
        <pt x="235" y="558" on="1"/>
        <pt x="230" y="535" on="0"/>
        <pt x="246" y="499" on="0"/>
        <pt x="263" y="484" on="1"/>
      </contour>
      <contour>
        <pt x="272" y="78" on="1"/>
        <pt x="292" y="85" on="0"/>
        <pt x="322" y="112" on="0"/>
        <pt x="325" y="131" on="1"/>
        <pt x="329" y="154" on="0"/>
        <pt x="312" y="188" on="0"/>
        <pt x="295" y="202" on="1"/>
      </contour>
    </TTGlyph>
    <TTGlyph name="dotlessi" xMin="18" yMin="-9" xMax="315" yMax="467">
      <contour>
        <pt x="70" y="262" on="1"/>
        <pt x="76" y="289" on="0"/>
        <pt x="79" y="324" on="0"/>
        <pt x="68" y="343" on="0"/>
        <pt x="42" y="351" on="0"/>
        <pt x="18" y="351" on="1"/>
        <pt x="18" y="369" on="0"/>
        <pt x="24" y="409" on="0"/>
        <pt x="31" y="426" on="1"/>
        <pt x="152" y="429" on="0"/>
        <pt x="249" y="467" on="1"/>
        <pt x="271" y="455" on="0"/>
        <pt x="292" y="413" on="0"/>
        <pt x="284" y="371" on="1"/>
        <pt x="248" y="184" on="1"/>
        <pt x="238" y="133" on="0"/>
        <pt x="240" y="104" on="0"/>
        <pt x="251" y="104" on="1"/>
        <pt x="257" y="104" on="0"/>
        <pt x="272" y="110" on="0"/>
        <pt x="283" y="118" on="1"/>
        <pt x="293" y="108" on="0"/>
        <pt x="313" y="69" on="0"/>
        <pt x="315" y="52" on="1"/>
        <pt x="282" y="20" on="0"/>
        <pt x="197" y="-9" on="0"/>
        <pt x="152" y="-9" on="1"/>
        <pt x="109" y="-9" on="0"/>
        <pt x="61" y="17" on="0"/>
        <pt x="40" y="65" on="0"/>
        <pt x="42" y="131" on="0"/>
        <pt x="51" y="172" on="1"/>
      </contour>
    </TTGlyph>
    <TTGlyph name="dotlessj" xMin="-98" yMin="-246" xMax="298" yMax="467">
      <contour>
        <pt x="81" y="263" on="1"/>
        <pt x="85" y="290" on="0"/>
        <pt x="88" y="324" on="0"/>
        <pt x="78" y="343" on="0"/>
        <pt x="52" y="351" on="0"/>
        <pt x="28" y="351" on="1"/>
        <pt x="28" y="369" on="0"/>
        <pt x="34" y="409" on="0"/>
        <pt x="41" y="426" on="1"/>
        <pt x="103" y="428" on="0"/>
        <pt x="219" y="447" on="0"/>
        <pt x="269" y="467" on="1"/>
        <pt x="279" y="458" on="0"/>
        <pt x="292" y="443" on="0"/>
        <pt x="298" y="424" on="0"/>
        <pt x="298" y="398" on="0"/>
        <pt x="295" y="379" on="1"/>
        <pt x="250" y="125" on="1"/>
        <pt x="235" y="40" on="0"/>
        <pt x="186" y="-80" on="0"/>
        <pt x="111" y="-164" on="0"/>
        <pt x="5" y="-222" on="0"/>
        <pt x="-67" y="-246" on="1"/>
        <pt x="-98" y="-219" on="0"/>
        <pt x="-98" y="-167" on="1"/>
        <pt x="-72" y="-154" on="0"/>
        <pt x="-27" y="-116" on="0"/>
        <pt x="10" y="-64" on="0"/>
        <pt x="37" y="6" on="0"/>
        <pt x="45" y="52" on="1"/>
      </contour>
    </TTGlyph>
    <TTGlyph name="e" xMin="3" yMin="-9" xMax="493" yMax="467">
      <contour>
        <pt x="313" y="467" on="1"/>
        <pt x="405" y="467" on="0"/>
        <pt x="493" y="393" on="0"/>
        <pt x="483" y="336" on="1"/>
        <pt x="478" y="310" on="0"/>
        <pt x="437" y="256" on="0"/>
        <pt x="368" y="209" on="0"/>
        <pt x="271" y="176" on="0"/>
        <pt x="209" y="173" on="1"/>
        <pt x="212" y="138" on="0"/>
        <pt x="248" y="98" on="0"/>
        <pt x="289" y="98" on="1"/>
        <pt x="322" y="98" on="0"/>
        <pt x="380" y="118" on="0"/>
        <pt x="401" y="129" on="1"/>
        <pt x="412" y="110" on="0"/>
        <pt x="420" y="72" on="0"/>
        <pt x="418" y="47" on="1"/>
        <pt x="395" y="31" on="0"/>
        <pt x="350" y="10" on="0"/>
        <pt x="300" y="-3" on="0"/>
        <pt x="243" y="-9" on="0"/>
        <pt x="208" y="-9" on="1"/>
        <pt x="140" y="-9" on="0"/>
        <pt x="55" y="31" on="0"/>
        <pt x="11" y="98" on="0"/>
        <pt x="3" y="186" on="0"/>
        <pt x="12" y="234" on="1"/>
        <pt x="22" y="286" on="0"/>
        <pt x="74" y="372" on="0"/>
        <pt x="152" y="434" on="0"/>
        <pt x="253" y="467" on="0"/>
      </contour>
      <contour>
        <pt x="214" y="250" on="1"/>
        <pt x="273" y="255" on="0"/>
        <pt x="347" y="300" on="0"/>
        <pt x="353" y="333" on="1"/>
        <pt x="365" y="395" on="0"/>
        <pt x="311" y="395" on="1"/>
        <pt x="282" y="395" on="0"/>
        <pt x="231" y="337" on="0"/>
        <pt x="218" y="271" on="1"/>
      </contour>
    </TTGlyph>
    <TTGlyph name="eacute" xMin="3" yMin="-9" xMax="493" yMax="726">
      <component glyphName="e" x="0" y="0" flags="0x204"/>
      <component glyphName="acute" x="38" y="0" flags="0x4"/>
    </TTGlyph>
    <TTGlyph name="ecircumflex" xMin="3" yMin="-9" xMax="532" yMax="722">
      <component glyphName="e" x="0" y="0" flags="0x204"/>
      <component glyphName="circumflex" x="85" y="0" flags="0x4"/>
    </TTGlyph>
    <TTGlyph name="edieresis" xMin="3" yMin="-9" xMax="538" yMax="679">
      <component glyphName="e" x="0" y="0" flags="0x204"/>
      <component glyphName="dieresis" x="-10" y="0" flags="0x4"/>
    </TTGlyph>
    <TTGlyph name="egrave" xMin="3" yMin="-9" xMax="493" yMax="713">
      <component glyphName="e" x="0" y="0" flags="0x204"/>
      <component glyphName="grave" x="57" y="0" flags="0x4"/>
    </TTGlyph>
    <TTGlyph name="eight" xMin="-3" yMin="-9" xMax="559" yMax="637">
      <contour>
        <pt x="547" y="492" on="1"/>
        <pt x="531" y="410" on="0"/>
        <pt x="416" y="364" on="1"/>
        <pt x="481" y="315" on="0"/>
        <pt x="521" y="211" on="0"/>
        <pt x="508" y="142" on="1"/>
        <pt x="502" y="109" on="0"/>
        <pt x="462" y="54" on="0"/>
        <pt x="395" y="14" on="0"/>
        <pt x="303" y="-9" on="0"/>
        <pt x="244" y="-9" on="1"/>
        <pt x="113" y="-9" on="0"/>
        <pt x="-3" y="80" on="0"/>
        <pt x="15" y="174" on="1"/>
        <pt x="20" y="201" on="0"/>
        <pt x="48" y="247" on="0"/>
        <pt x="86" y="286" on="0"/>
        <pt x="132" y="316" on="0"/>
        <pt x="156" y="327" on="1"/>
        <pt x="116" y="362" on="0"/>
        <pt x="84" y="450" on="0"/>
        <pt x="95" y="501" on="1"/>
        <pt x="108" y="564" on="0"/>
        <pt x="240" y="637" on="0"/>
        <pt x="342" y="637" on="1"/>
        <pt x="463" y="637" on="0"/>
        <pt x="559" y="559" on="0"/>
      </contour>
      <contour>
        <pt x="279" y="526" on="1"/>
        <pt x="272" y="494" on="0"/>
        <pt x="296" y="442" on="0"/>
        <pt x="336" y="415" on="1"/>
        <pt x="369" y="446" on="0"/>
        <pt x="376" y="491" on="1"/>
        <pt x="383" y="526" on="0"/>
        <pt x="359" y="569" on="0"/>
        <pt x="332" y="569" on="1"/>
        <pt x="311" y="569" on="0"/>
        <pt x="283" y="543" on="0"/>
      </contour>
      <contour>
        <pt x="316" y="130" on="1"/>
        <pt x="324" y="169" on="0"/>
        <pt x="290" y="233" on="0"/>
        <pt x="237" y="271" on="1"/>
        <pt x="227" y="257" on="0"/>
        <pt x="212" y="220" on="0"/>
        <pt x="207" y="196" on="1"/>
        <pt x="202" y="170" on="0"/>
        <pt x="204" y="124" on="0"/>
        <pt x="217" y="90" on="0"/>
        <pt x="241" y="69" on="0"/>
        <pt x="257" y="69" on="1"/>
        <pt x="280" y="69" on="0"/>
        <pt x="311" y="103" on="0"/>
      </contour>
    </TTGlyph>
    <TTGlyph name="ellipsis" xMin="1" yMin="-9" xMax="890" yMax="197">
      <contour>
        <pt x="224" y="75" on="1"/>
        <pt x="216" y="36" on="0"/>
        <pt x="164" y="-9" on="0"/>
        <pt x="116" y="-9" on="1"/>
        <pt x="60" y="-9" on="0"/>
        <pt x="1" y="54" on="0"/>
        <pt x="13" y="114" on="1"/>
        <pt x="21" y="154" on="0"/>
        <pt x="77" y="197" on="0"/>
        <pt x="128" y="197" on="1"/>
        <pt x="149" y="197" on="0"/>
        <pt x="189" y="181" on="0"/>
        <pt x="217" y="150" on="0"/>
        <pt x="230" y="105" on="0"/>
      </contour>
      <contour>
        <pt x="554" y="75" on="1"/>
        <pt x="546" y="36" on="0"/>
        <pt x="494" y="-9" on="0"/>
        <pt x="446" y="-9" on="1"/>
        <pt x="390" y="-9" on="0"/>
        <pt x="331" y="54" on="0"/>
        <pt x="343" y="114" on="1"/>
        <pt x="351" y="154" on="0"/>
        <pt x="407" y="197" on="0"/>
        <pt x="458" y="197" on="1"/>
        <pt x="479" y="197" on="0"/>
        <pt x="519" y="181" on="0"/>
        <pt x="547" y="150" on="0"/>
        <pt x="560" y="105" on="0"/>
      </contour>
      <contour>
        <pt x="884" y="75" on="1"/>
        <pt x="876" y="36" on="0"/>
        <pt x="824" y="-9" on="0"/>
        <pt x="776" y="-9" on="1"/>
        <pt x="720" y="-9" on="0"/>
        <pt x="661" y="54" on="0"/>
        <pt x="673" y="114" on="1"/>
        <pt x="681" y="154" on="0"/>
        <pt x="737" y="197" on="0"/>
        <pt x="788" y="197" on="1"/>
        <pt x="809" y="197" on="0"/>
        <pt x="849" y="181" on="0"/>
        <pt x="877" y="150" on="0"/>
        <pt x="890" y="105" on="0"/>
      </contour>
    </TTGlyph>
    <TTGlyph name="emdash" xMin="28" yMin="231" xMax="976" yMax="320">
      <contour>
        <pt x="976" y="320" on="1"/>
        <pt x="974" y="296" on="0"/>
        <pt x="962" y="252" on="0"/>
        <pt x="950" y="235" on="1"/>
        <pt x="840" y="235" on="0"/>
        <pt x="621" y="235" on="0"/>
        <pt x="394" y="234" on="0"/>
        <pt x="156" y="232" on="0"/>
        <pt x="28" y="231" on="1"/>
        <pt x="30" y="284" on="0"/>
        <pt x="55" y="320" on="1"/>
      </contour>
    </TTGlyph>
    <TTGlyph name="endash" xMin="28" yMin="229" xMax="516" yMax="320">
      <contour>
        <pt x="516" y="320" on="1"/>
        <pt x="515" y="297" on="0"/>
        <pt x="502" y="250" on="0"/>
        <pt x="489" y="233" on="1"/>
        <pt x="433" y="233" on="0"/>
        <pt x="326" y="233" on="0"/>
        <pt x="216" y="232" on="0"/>
        <pt x="97" y="230" on="0"/>
        <pt x="28" y="229" on="1"/>
        <pt x="29" y="253" on="0"/>
        <pt x="43" y="301" on="0"/>
        <pt x="56" y="320" on="1"/>
      </contour>
    </TTGlyph>
    <TTGlyph name="equal" xMin="10" yMin="116" xMax="529" yMax="390">
      <contour>
        <pt x="529" y="390" on="1"/>
        <pt x="528" y="367" on="0"/>
        <pt x="515" y="320" on="0"/>
        <pt x="502" y="303" on="1"/>
        <pt x="446" y="303" on="0"/>
        <pt x="339" y="303" on="0"/>
        <pt x="229" y="302" on="0"/>
        <pt x="110" y="300" on="0"/>
        <pt x="41" y="299" on="1"/>
        <pt x="42" y="323" on="0"/>
        <pt x="56" y="371" on="0"/>
        <pt x="69" y="390" on="1"/>
      </contour>
      <contour>
        <pt x="498" y="207" on="1"/>
        <pt x="497" y="184" on="0"/>
        <pt x="484" y="137" on="0"/>
        <pt x="471" y="120" on="1"/>
        <pt x="415" y="120" on="0"/>
        <pt x="308" y="120" on="0"/>
        <pt x="198" y="119" on="0"/>
        <pt x="79" y="117" on="0"/>
        <pt x="10" y="116" on="1"/>
        <pt x="11" y="140" on="0"/>
        <pt x="25" y="188" on="0"/>
        <pt x="38" y="207" on="1"/>
      </contour>
    </TTGlyph>
    <TTGlyph name="eth" xMin="3" yMin="-9" xMax="555" yMax="728">
      <contour>
        <pt x="508" y="728" on="1"/>
        <pt x="513" y="711" on="0"/>
        <pt x="513" y="665" on="0"/>
        <pt x="510" y="646" on="1"/>
        <pt x="497" y="641" on="0"/>
        <pt x="448" y="624" on="0"/>
        <pt x="417" y="612" on="1"/>
        <pt x="494" y="554" on="0"/>
        <pt x="555" y="391" on="0"/>
        <pt x="532" y="273" on="1"/>
        <pt x="518" y="204" on="0"/>
        <pt x="450" y="99" on="0"/>
        <pt x="359" y="27" on="0"/>
        <pt x="254" y="-9" on="0"/>
        <pt x="205" y="-9" on="1"/>
        <pt x="134" y="-9" on="0"/>
        <pt x="50" y="37" on="0"/>
        <pt x="9" y="108" on="0"/>
        <pt x="3" y="193" on="0"/>
        <pt x="11" y="232" on="1"/>
        <pt x="20" y="278" on="0"/>
        <pt x="62" y="363" on="0"/>
        <pt x="135" y="428" on="0"/>
        <pt x="242" y="467" on="0"/>
        <pt x="314" y="467" on="1"/>
        <pt x="340" y="467" on="0"/>
        <pt x="363" y="464" on="1"/>
        <pt x="358" y="497" on="0"/>
        <pt x="331" y="548" on="0"/>
        <pt x="308" y="569" on="1"/>
        <pt x="257" y="549" on="0"/>
        <pt x="170" y="511" on="0"/>
        <pt x="146" y="500" on="1"/>
        <pt x="140" y="516" on="0"/>
        <pt x="138" y="564" on="0"/>
        <pt x="143" y="582" on="1"/>
        <pt x="234" y="618" on="1"/>
        <pt x="216" y="628" on="0"/>
        <pt x="175" y="647" on="0"/>
        <pt x="151" y="657" on="1"/>
        <pt x="157" y="678" on="0"/>
        <pt x="178" y="707" on="0"/>
        <pt x="196" y="717" on="1"/>
        <pt x="277" y="691" on="0"/>
        <pt x="339" y="660" on="1"/>
      </contour>
      <contour>
        <pt x="251" y="84" on="1"/>
        <pt x="276" y="84" on="0"/>
        <pt x="330" y="176" on="0"/>
        <pt x="350" y="278" on="1"/>
        <pt x="362" y="338" on="0"/>
        <pt x="365" y="384" on="1"/>
        <pt x="353" y="388" on="0"/>
        <pt x="318" y="393" on="0"/>
        <pt x="307" y="393" on="1"/>
        <pt x="288" y="393" on="0"/>
        <pt x="259" y="373" on="0"/>
        <pt x="237" y="339" on="0"/>
        <pt x="222" y="291" on="0"/>
        <pt x="216" y="264" on="1"/>
        <pt x="209" y="229" on="0"/>
        <pt x="206" y="164" on="0"/>
        <pt x="214" y="114" on="0"/>
        <pt x="234" y="84" on="0"/>
      </contour>
    </TTGlyph>
    <TTGlyph name="exclam" xMin="39" yMin="-9" xMax="354" yMax="717">
      <contour>
        <pt x="339" y="623" on="1"/>
        <pt x="329" y="593" on="0"/>
        <pt x="304" y="505" on="0"/>
        <pt x="275" y="404" on="0"/>
        <pt x="247" y="296" on="0"/>
        <pt x="234" y="245" on="1"/>
        <pt x="207" y="243" on="0"/>
        <pt x="153" y="248" on="0"/>
        <pt x="133" y="258" on="1"/>
        <pt x="143" y="364" on="0"/>
        <pt x="152" y="572" on="0"/>
        <pt x="152" y="675" on="1"/>
        <pt x="194" y="680" on="0"/>
        <pt x="283" y="701" on="0"/>
        <pt x="318" y="717" on="1"/>
        <pt x="341" y="710" on="0"/>
        <pt x="354" y="669" on="0"/>
      </contour>
      <contour>
        <pt x="262" y="75" on="1"/>
        <pt x="254" y="36" on="0"/>
        <pt x="202" y="-9" on="0"/>
        <pt x="154" y="-9" on="1"/>
        <pt x="98" y="-9" on="0"/>
        <pt x="39" y="54" on="0"/>
        <pt x="51" y="114" on="1"/>
        <pt x="59" y="154" on="0"/>
        <pt x="115" y="197" on="0"/>
        <pt x="166" y="197" on="1"/>
        <pt x="187" y="197" on="0"/>
        <pt x="227" y="181" on="0"/>
        <pt x="255" y="150" on="0"/>
        <pt x="268" y="105" on="0"/>
      </contour>
    </TTGlyph>
    <TTGlyph name="exclamdown" xMin="3" yMin="-259" xMax="318" yMax="467">
      <contour>
        <pt x="95" y="383" on="1"/>
        <pt x="103" y="422" on="0"/>
        <pt x="155" y="467" on="0"/>
        <pt x="203" y="467" on="1"/>
        <pt x="259" y="467" on="0"/>
        <pt x="318" y="404" on="0"/>
        <pt x="306" y="344" on="1"/>
        <pt x="298" y="304" on="0"/>
        <pt x="242" y="261" on="0"/>
        <pt x="191" y="261" on="1"/>
        <pt x="170" y="261" on="0"/>
        <pt x="130" y="277" on="0"/>
        <pt x="102" y="308" on="0"/>
        <pt x="89" y="353" on="0"/>
      </contour>
      <contour>
        <pt x="18" y="-165" on="1"/>
        <pt x="28" y="-135" on="0"/>
        <pt x="53" y="-47" on="0"/>
        <pt x="82" y="54" on="0"/>
        <pt x="110" y="162" on="0"/>
        <pt x="123" y="213" on="1"/>
        <pt x="150" y="215" on="0"/>
        <pt x="204" y="210" on="0"/>
        <pt x="224" y="200" on="1"/>
        <pt x="214" y="94" on="0"/>
        <pt x="205" y="-114" on="0"/>
        <pt x="205" y="-217" on="1"/>
        <pt x="163" y="-222" on="0"/>
        <pt x="74" y="-243" on="0"/>
        <pt x="39" y="-259" on="1"/>
        <pt x="16" y="-252" on="0"/>
        <pt x="3" y="-211" on="0"/>
      </contour>
    </TTGlyph>
    <TTGlyph name="f" xMin="-157" yMin="-248" xMax="550" yMax="714">
      <contour>
        <pt x="123" y="454" on="1"/>
        <pt x="135" y="515" on="0"/>
        <pt x="170" y="612" on="0"/>
        <pt x="236" y="679" on="0"/>
        <pt x="342" y="714" on="0"/>
        <pt x="424" y="714" on="1"/>
        <pt x="466" y="714" on="0"/>
        <pt x="534" y="704" on="0"/>
        <pt x="550" y="696" on="1"/>
        <pt x="545" y="681" on="0"/>
        <pt x="536" y="639" on="0"/>
        <pt x="528" y="594" on="0"/>
        <pt x="524" y="552" on="0"/>
        <pt x="524" y="537" on="1"/>
        <pt x="518" y="534" on="0"/>
        <pt x="493" y="529" on="0"/>
        <pt x="465" y="526" on="0"/>
        <pt x="435" y="524" on="0"/>
        <pt x="423" y="524" on="1"/>
        <pt x="423" y="541" on="0"/>
        <pt x="423" y="581" on="0"/>
        <pt x="419" y="616" on="0"/>
        <pt x="407" y="639" on="0"/>
        <pt x="395" y="639" on="1"/>
        <pt x="381" y="639" on="0"/>
        <pt x="361" y="622" on="0"/>
        <pt x="344" y="578" on="0"/>
        <pt x="327" y="505" on="0"/>
        <pt x="317" y="448" on="1"/>
        <pt x="409" y="448" on="1"/>
        <pt x="409" y="424" on="0"/>
        <pt x="405" y="378" on="0"/>
        <pt x="399" y="365" on="1"/>
        <pt x="372" y="365" on="0"/>
        <pt x="326" y="360" on="0"/>
        <pt x="299" y="352" on="1"/>
        <pt x="291" y="304" on="0"/>
        <pt x="277" y="216" on="0"/>
        <pt x="269" y="167" on="1"/>
        <pt x="257" y="86" on="0"/>
        <pt x="202" y="-64" on="0"/>
        <pt x="121" y="-179" on="0"/>
        <pt x="16" y="-248" on="0"/>
        <pt x="-47" y="-248" on="1"/>
        <pt x="-79" y="-248" on="0"/>
        <pt x="-134" y="-225" on="0"/>
        <pt x="-157" y="-199" on="1"/>
        <pt x="-157" y="-176" on="0"/>
        <pt x="-145" y="-116" on="0"/>
        <pt x="-134" y="-95" on="1"/>
        <pt x="-110" y="-107" on="0"/>
        <pt x="-56" y="-117" on="0"/>
        <pt x="-27" y="-117" on="1"/>
        <pt x="-3" y="-117" on="0"/>
        <pt x="30" y="-106" on="0"/>
        <pt x="51" y="-74" on="0"/>
        <pt x="64" y="-14" on="0"/>
        <pt x="69" y="35" on="1"/>
        <pt x="74" y="89" on="0"/>
        <pt x="93" y="255" on="0"/>
        <pt x="108" y="355" on="1"/>
        <pt x="83" y="363" on="0"/>
        <pt x="42" y="369" on="0"/>
        <pt x="27" y="369" on="1"/>
        <pt x="27" y="390" on="0"/>
        <pt x="33" y="434" on="0"/>
        <pt x="41" y="448" on="1"/>
        <pt x="122" y="448" on="1"/>
      </contour>
    </TTGlyph>
    <TTGlyph name="f.calt" xMin="-157" yMin="-248" xMax="501" yMax="714">
      <contour>
        <pt x="123" y="454" on="1"/>
        <pt x="148" y="590" on="0"/>
        <pt x="263" y="714" on="0"/>
        <pt x="364" y="714" on="1"/>
        <pt x="411" y="714" on="0"/>
        <pt x="477" y="705" on="0"/>
        <pt x="501" y="696" on="1"/>
        <pt x="496" y="681" on="0"/>
        <pt x="488" y="638" on="0"/>
        <pt x="482" y="592" on="0"/>
        <pt x="479" y="550" on="0"/>
        <pt x="479" y="535" on="1"/>
        <pt x="463" y="527" on="0"/>
        <pt x="406" y="521" on="0"/>
        <pt x="378" y="524" on="1"/>
        <pt x="378" y="557" on="0"/>
        <pt x="376" y="601" on="0"/>
        <pt x="370" y="627" on="0"/>
        <pt x="359" y="638" on="0"/>
        <pt x="350" y="638" on="1"/>
        <pt x="341" y="638" on="0"/>
        <pt x="328" y="626" on="0"/>
        <pt x="319" y="595" on="0"/>
        <pt x="312" y="540" on="0"/>
        <pt x="309" y="498" on="1"/>
        <pt x="305" y="448" on="1"/>
        <pt x="409" y="448" on="1"/>
        <pt x="409" y="424" on="0"/>
        <pt x="405" y="378" on="0"/>
        <pt x="399" y="365" on="1"/>
        <pt x="371" y="365" on="0"/>
        <pt x="324" y="359" on="0"/>
        <pt x="295" y="351" on="1"/>
        <pt x="290" y="315" on="0"/>
        <pt x="279" y="230" on="0"/>
        <pt x="271" y="177" on="1"/>
        <pt x="258" y="92" on="0"/>
        <pt x="202" y="-62" on="0"/>
        <pt x="121" y="-179" on="0"/>
        <pt x="16" y="-248" on="0"/>
        <pt x="-47" y="-248" on="1"/>
        <pt x="-79" y="-248" on="0"/>
        <pt x="-134" y="-225" on="0"/>
        <pt x="-157" y="-199" on="1"/>
        <pt x="-157" y="-176" on="0"/>
        <pt x="-145" y="-116" on="0"/>
        <pt x="-134" y="-95" on="1"/>
        <pt x="-110" y="-107" on="0"/>
        <pt x="-56" y="-117" on="0"/>
        <pt x="-27" y="-117" on="1"/>
        <pt x="-3" y="-117" on="0"/>
        <pt x="30" y="-106" on="0"/>
        <pt x="51" y="-74" on="0"/>
        <pt x="64" y="-14" on="0"/>
        <pt x="69" y="35" on="1"/>
        <pt x="74" y="89" on="0"/>
        <pt x="93" y="255" on="0"/>
        <pt x="108" y="355" on="1"/>
        <pt x="83" y="363" on="0"/>
        <pt x="42" y="369" on="0"/>
        <pt x="27" y="369" on="1"/>
        <pt x="27" y="390" on="0"/>
        <pt x="33" y="434" on="0"/>
        <pt x="41" y="448" on="1"/>
        <pt x="122" y="448" on="1"/>
      </contour>
    </TTGlyph>
    <TTGlyph name="f_f" xMin="-157" yMin="-248" xMax="954" yMax="714">
      <contour>
        <pt x="130" y="448" on="1"/>
        <pt x="146" y="508" on="0"/>
        <pt x="200" y="599" on="0"/>
        <pt x="282" y="660" on="0"/>
        <pt x="395" y="692" on="0"/>
        <pt x="469" y="692" on="1"/>
        <pt x="511" y="692" on="0"/>
        <pt x="589" y="677" on="0"/>
        <pt x="624" y="660" on="1"/>
        <pt x="657" y="686" on="0"/>
        <pt x="756" y="714" on="0"/>
        <pt x="828" y="714" on="1"/>
        <pt x="870" y="714" on="0"/>
        <pt x="938" y="704" on="0"/>
        <pt x="954" y="696" on="1"/>
        <pt x="949" y="681" on="0"/>
        <pt x="940" y="639" on="0"/>
        <pt x="932" y="594" on="0"/>
        <pt x="928" y="552" on="0"/>
        <pt x="928" y="537" on="1"/>
        <pt x="922" y="534" on="0"/>
        <pt x="897" y="529" on="0"/>
        <pt x="869" y="526" on="0"/>
        <pt x="839" y="524" on="0"/>
        <pt x="827" y="524" on="1"/>
        <pt x="827" y="541" on="0"/>
        <pt x="827" y="581" on="0"/>
        <pt x="823" y="616" on="0"/>
        <pt x="811" y="639" on="0"/>
        <pt x="799" y="639" on="1"/>
        <pt x="785" y="639" on="0"/>
        <pt x="765" y="622" on="0"/>
        <pt x="748" y="578" on="0"/>
        <pt x="731" y="505" on="0"/>
        <pt x="721" y="448" on="1"/>
        <pt x="813" y="448" on="1"/>
        <pt x="813" y="424" on="0"/>
        <pt x="809" y="378" on="0"/>
        <pt x="803" y="365" on="1"/>
        <pt x="776" y="365" on="0"/>
        <pt x="730" y="358" on="0"/>
        <pt x="703" y="352" on="1"/>
        <pt x="694" y="302" on="0"/>
        <pt x="674" y="208" on="0"/>
        <pt x="653" y="128" on="0"/>
        <pt x="631" y="65" on="0"/>
        <pt x="622" y="47" on="1"/>
        <pt x="593" y="-9" on="0"/>
        <pt x="513" y="-101" on="0"/>
        <pt x="422" y="-167" on="0"/>
        <pt x="326" y="-204" on="0"/>
        <pt x="283" y="-204" on="1"/>
        <pt x="237" y="-204" on="0"/>
        <pt x="165" y="-172" on="0"/>
        <pt x="140" y="-148" on="1"/>
        <pt x="103" y="-193" on="0"/>
        <pt x="10" y="-248" on="0"/>
        <pt x="-47" y="-248" on="1"/>
        <pt x="-79" y="-248" on="0"/>
        <pt x="-134" y="-225" on="0"/>
        <pt x="-157" y="-199" on="1"/>
        <pt x="-157" y="-176" on="0"/>
        <pt x="-145" y="-116" on="0"/>
        <pt x="-134" y="-95" on="1"/>
        <pt x="-110" y="-107" on="0"/>
        <pt x="-56" y="-117" on="0"/>
        <pt x="-27" y="-117" on="1"/>
        <pt x="-3" y="-117" on="0"/>
        <pt x="30" y="-106" on="0"/>
        <pt x="51" y="-74" on="0"/>
        <pt x="64" y="-14" on="0"/>
        <pt x="69" y="35" on="1"/>
        <pt x="71" y="62" on="0"/>
        <pt x="79" y="133" on="0"/>
        <pt x="91" y="216" on="0"/>
        <pt x="105" y="308" on="0"/>
        <pt x="114" y="355" on="1"/>
        <pt x="89" y="363" on="0"/>
        <pt x="48" y="369" on="0"/>
        <pt x="33" y="369" on="1"/>
        <pt x="33" y="390" on="0"/>
        <pt x="39" y="434" on="0"/>
        <pt x="47" y="448" on="1"/>
      </contour>
      <contour>
        <pt x="527" y="454" on="1"/>
        <pt x="534" y="489" on="0"/>
        <pt x="550" y="549" on="0"/>
        <pt x="561" y="575" on="1"/>
        <pt x="543" y="596" on="0"/>
        <pt x="493" y="619" on="0"/>
        <pt x="457" y="619" on="1"/>
        <pt x="433" y="619" on="0"/>
        <pt x="394" y="604" on="0"/>
        <pt x="361" y="565" on="0"/>
        <pt x="335" y="499" on="0"/>
        <pt x="325" y="448" on="1"/>
        <pt x="526" y="448" on="1"/>
      </contour>
      <contour>
        <pt x="455" y="39" on="1"/>
        <pt x="464" y="68" on="0"/>
        <pt x="480" y="142" on="0"/>
        <pt x="495" y="225" on="0"/>
        <pt x="508" y="313" on="0"/>
        <pt x="512" y="355" on="1"/>
        <pt x="477" y="367" on="0"/>
        <pt x="411" y="367" on="1"/>
        <pt x="382" y="367" on="0"/>
        <pt x="334" y="360" on="0"/>
        <pt x="305" y="352" on="1"/>
        <pt x="296" y="302" on="0"/>
        <pt x="276" y="197" on="0"/>
        <pt x="261" y="124" on="1"/>
        <pt x="251" y="76" on="0"/>
        <pt x="218" y="-21" on="0"/>
        <pt x="194" y="-66" on="1"/>
        <pt x="216" y="-76" on="0"/>
        <pt x="265" y="-86" on="0"/>
        <pt x="295" y="-86" on="1"/>
        <pt x="332" y="-86" on="0"/>
        <pt x="382" y="-77" on="0"/>
        <pt x="418" y="-50" on="0"/>
        <pt x="443" y="-1" on="0"/>
      </contour>
    </TTGlyph>
    <TTGlyph name="f_f.calt" xMin="-157" yMin="-248" xMax="905" yMax="714">
      <contour>
        <pt x="130" y="448" on="1"/>
        <pt x="146" y="508" on="0"/>
        <pt x="200" y="599" on="0"/>
        <pt x="282" y="660" on="0"/>
        <pt x="395" y="692" on="0"/>
        <pt x="469" y="692" on="1"/>
        <pt x="509" y="692" on="0"/>
        <pt x="585" y="678" on="0"/>
        <pt x="620" y="662" on="1"/>
        <pt x="675" y="714" on="0"/>
        <pt x="768" y="714" on="1"/>
        <pt x="815" y="714" on="0"/>
        <pt x="881" y="705" on="0"/>
        <pt x="905" y="696" on="1"/>
        <pt x="900" y="681" on="0"/>
        <pt x="892" y="638" on="0"/>
        <pt x="886" y="592" on="0"/>
        <pt x="883" y="550" on="0"/>
        <pt x="883" y="535" on="1"/>
        <pt x="867" y="527" on="0"/>
        <pt x="810" y="521" on="0"/>
        <pt x="782" y="524" on="1"/>
        <pt x="782" y="557" on="0"/>
        <pt x="780" y="601" on="0"/>
        <pt x="774" y="627" on="0"/>
        <pt x="763" y="638" on="0"/>
        <pt x="754" y="638" on="1"/>
        <pt x="745" y="638" on="0"/>
        <pt x="732" y="626" on="0"/>
        <pt x="723" y="595" on="0"/>
        <pt x="716" y="540" on="0"/>
        <pt x="713" y="498" on="1"/>
        <pt x="709" y="448" on="1"/>
        <pt x="813" y="448" on="1"/>
        <pt x="813" y="424" on="0"/>
        <pt x="809" y="378" on="0"/>
        <pt x="803" y="365" on="1"/>
        <pt x="776" y="365" on="0"/>
        <pt x="730" y="358" on="0"/>
        <pt x="703" y="352" on="1"/>
        <pt x="694" y="302" on="0"/>
        <pt x="674" y="208" on="0"/>
        <pt x="653" y="128" on="0"/>
        <pt x="631" y="65" on="0"/>
        <pt x="622" y="47" on="1"/>
        <pt x="593" y="-9" on="0"/>
        <pt x="513" y="-101" on="0"/>
        <pt x="422" y="-167" on="0"/>
        <pt x="326" y="-204" on="0"/>
        <pt x="283" y="-204" on="1"/>
        <pt x="237" y="-204" on="0"/>
        <pt x="165" y="-172" on="0"/>
        <pt x="140" y="-148" on="1"/>
        <pt x="103" y="-193" on="0"/>
        <pt x="10" y="-248" on="0"/>
        <pt x="-47" y="-248" on="1"/>
        <pt x="-79" y="-248" on="0"/>
        <pt x="-134" y="-225" on="0"/>
        <pt x="-157" y="-199" on="1"/>
        <pt x="-157" y="-176" on="0"/>
        <pt x="-145" y="-116" on="0"/>
        <pt x="-134" y="-95" on="1"/>
        <pt x="-110" y="-107" on="0"/>
        <pt x="-56" y="-117" on="0"/>
        <pt x="-27" y="-117" on="1"/>
        <pt x="-3" y="-117" on="0"/>
        <pt x="30" y="-106" on="0"/>
        <pt x="51" y="-74" on="0"/>
        <pt x="64" y="-14" on="0"/>
        <pt x="69" y="35" on="1"/>
        <pt x="71" y="62" on="0"/>
        <pt x="79" y="133" on="0"/>
        <pt x="91" y="216" on="0"/>
        <pt x="105" y="308" on="0"/>
        <pt x="114" y="355" on="1"/>
        <pt x="89" y="363" on="0"/>
        <pt x="48" y="369" on="0"/>
        <pt x="33" y="369" on="1"/>
        <pt x="33" y="390" on="0"/>
        <pt x="39" y="434" on="0"/>
        <pt x="47" y="448" on="1"/>
      </contour>
      <contour>
        <pt x="528" y="461" on="1"/>
        <pt x="535" y="493" on="0"/>
        <pt x="550" y="550" on="0"/>
        <pt x="561" y="574" on="1"/>
        <pt x="543" y="596" on="0"/>
        <pt x="493" y="619" on="0"/>
        <pt x="457" y="619" on="1"/>
        <pt x="433" y="619" on="0"/>
        <pt x="394" y="604" on="0"/>
        <pt x="361" y="565" on="0"/>
        <pt x="335" y="499" on="0"/>
        <pt x="325" y="448" on="1"/>
        <pt x="526" y="448" on="1"/>
      </contour>
      <contour>
        <pt x="455" y="39" on="1"/>
        <pt x="464" y="68" on="0"/>
        <pt x="480" y="142" on="0"/>
        <pt x="495" y="225" on="0"/>
        <pt x="508" y="313" on="0"/>
        <pt x="512" y="355" on="1"/>
        <pt x="477" y="367" on="0"/>
        <pt x="411" y="367" on="1"/>
        <pt x="382" y="367" on="0"/>
        <pt x="334" y="360" on="0"/>
        <pt x="305" y="352" on="1"/>
        <pt x="296" y="302" on="0"/>
        <pt x="276" y="197" on="0"/>
        <pt x="261" y="124" on="1"/>
        <pt x="251" y="76" on="0"/>
        <pt x="218" y="-21" on="0"/>
        <pt x="194" y="-66" on="1"/>
        <pt x="216" y="-76" on="0"/>
        <pt x="265" y="-86" on="0"/>
        <pt x="295" y="-86" on="1"/>
        <pt x="332" y="-86" on="0"/>
        <pt x="382" y="-77" on="0"/>
        <pt x="418" y="-50" on="0"/>
        <pt x="443" y="-1" on="0"/>
      </contour>
    </TTGlyph>
    <TTGlyph name="f_f_i" xMin="-157" yMin="-248" xMax="1096" yMax="714">
      <contour>
        <pt x="130" y="448" on="1"/>
        <pt x="146" y="508" on="0"/>
        <pt x="200" y="599" on="0"/>
        <pt x="282" y="660" on="0"/>
        <pt x="395" y="692" on="0"/>
        <pt x="469" y="692" on="1"/>
        <pt x="515" y="692" on="0"/>
        <pt x="602" y="672" on="0"/>
        <pt x="640" y="651" on="1"/>
        <pt x="680" y="681" on="0"/>
        <pt x="793" y="714" on="0"/>
        <pt x="865" y="714" on="1"/>
        <pt x="931" y="714" on="0"/>
        <pt x="1037" y="700" on="0"/>
        <pt x="1071" y="686" on="1"/>
        <pt x="1059" y="649" on="0"/>
        <pt x="1045" y="567" on="0"/>
        <pt x="1045" y="537" on="1"/>
        <pt x="1034" y="532" on="0"/>
        <pt x="999" y="525" on="0"/>
        <pt x="962" y="522" on="0"/>
        <pt x="926" y="522" on="0"/>
        <pt x="914" y="524" on="1"/>
        <pt x="913" y="575" on="0"/>
        <pt x="876" y="639" on="0"/>
        <pt x="841" y="639" on="1"/>
        <pt x="818" y="639" on="0"/>
        <pt x="782" y="621" on="0"/>
        <pt x="754" y="578" on="0"/>
        <pt x="731" y="504" on="0"/>
        <pt x="721" y="448" on="1"/>
        <pt x="791" y="448" on="1"/>
        <pt x="851" y="448" on="0"/>
        <pt x="930" y="450" on="0"/>
        <pt x="982" y="454" on="0"/>
        <pt x="1016" y="461" on="0"/>
        <pt x="1030" y="467" on="1"/>
        <pt x="1052" y="455" on="0"/>
        <pt x="1073" y="413" on="0"/>
        <pt x="1065" y="371" on="1"/>
        <pt x="1029" y="184" on="1"/>
        <pt x="1019" y="133" on="0"/>
        <pt x="1021" y="104" on="0"/>
        <pt x="1032" y="104" on="1"/>
        <pt x="1038" y="104" on="0"/>
        <pt x="1053" y="110" on="0"/>
        <pt x="1064" y="118" on="1"/>
        <pt x="1074" y="108" on="0"/>
        <pt x="1094" y="69" on="0"/>
        <pt x="1096" y="52" on="1"/>
        <pt x="1063" y="20" on="0"/>
        <pt x="978" y="-9" on="0"/>
        <pt x="933" y="-9" on="1"/>
        <pt x="890" y="-9" on="0"/>
        <pt x="842" y="17" on="0"/>
        <pt x="821" y="65" on="0"/>
        <pt x="823" y="131" on="0"/>
        <pt x="832" y="172" on="1"/>
        <pt x="851" y="262" on="1"/>
        <pt x="857" y="291" on="0"/>
        <pt x="859" y="331" on="0"/>
        <pt x="847" y="355" on="0"/>
        <pt x="817" y="365" on="0"/>
        <pt x="792" y="365" on="1"/>
        <pt x="777" y="365" on="0"/>
        <pt x="757" y="364" on="0"/>
        <pt x="738" y="361" on="0"/>
        <pt x="717" y="356" on="0"/>
        <pt x="703" y="352" on="1"/>
        <pt x="694" y="302" on="0"/>
        <pt x="674" y="208" on="0"/>
        <pt x="653" y="128" on="0"/>
        <pt x="631" y="65" on="0"/>
        <pt x="622" y="47" on="1"/>
        <pt x="593" y="-9" on="0"/>
        <pt x="513" y="-101" on="0"/>
        <pt x="422" y="-167" on="0"/>
        <pt x="326" y="-204" on="0"/>
        <pt x="283" y="-204" on="1"/>
        <pt x="237" y="-204" on="0"/>
        <pt x="165" y="-172" on="0"/>
        <pt x="140" y="-148" on="1"/>
        <pt x="103" y="-193" on="0"/>
        <pt x="10" y="-248" on="0"/>
        <pt x="-47" y="-248" on="1"/>
        <pt x="-79" y="-248" on="0"/>
        <pt x="-134" y="-225" on="0"/>
        <pt x="-157" y="-199" on="1"/>
        <pt x="-157" y="-176" on="0"/>
        <pt x="-145" y="-116" on="0"/>
        <pt x="-134" y="-95" on="1"/>
        <pt x="-110" y="-107" on="0"/>
        <pt x="-56" y="-117" on="0"/>
        <pt x="-27" y="-117" on="1"/>
        <pt x="-3" y="-117" on="0"/>
        <pt x="30" y="-106" on="0"/>
        <pt x="51" y="-74" on="0"/>
        <pt x="64" y="-14" on="0"/>
        <pt x="69" y="35" on="1"/>
        <pt x="71" y="62" on="0"/>
        <pt x="79" y="133" on="0"/>
        <pt x="91" y="216" on="0"/>
        <pt x="105" y="308" on="0"/>
        <pt x="114" y="355" on="1"/>
        <pt x="89" y="363" on="0"/>
        <pt x="48" y="369" on="0"/>
        <pt x="33" y="369" on="1"/>
        <pt x="33" y="390" on="0"/>
        <pt x="39" y="434" on="0"/>
        <pt x="47" y="448" on="1"/>
      </contour>
      <contour>
        <pt x="526" y="448" on="1"/>
        <pt x="540" y="516" on="0"/>
        <pt x="568" y="566" on="1"/>
        <pt x="550" y="592" on="0"/>
        <pt x="496" y="619" on="0"/>
        <pt x="457" y="619" on="1"/>
        <pt x="433" y="619" on="0"/>
        <pt x="394" y="604" on="0"/>
        <pt x="361" y="565" on="0"/>
        <pt x="335" y="499" on="0"/>
        <pt x="325" y="448" on="1"/>
      </contour>
      <contour>
        <pt x="411" y="367" on="1"/>
        <pt x="382" y="367" on="0"/>
        <pt x="334" y="360" on="0"/>
        <pt x="305" y="352" on="1"/>
        <pt x="296" y="302" on="0"/>
        <pt x="276" y="197" on="0"/>
        <pt x="261" y="124" on="1"/>
        <pt x="251" y="76" on="0"/>
        <pt x="218" y="-21" on="0"/>
        <pt x="194" y="-66" on="1"/>
        <pt x="216" y="-76" on="0"/>
        <pt x="265" y="-86" on="0"/>
        <pt x="295" y="-86" on="1"/>
        <pt x="332" y="-86" on="0"/>
        <pt x="382" y="-77" on="0"/>
        <pt x="418" y="-50" on="0"/>
        <pt x="443" y="-1" on="0"/>
        <pt x="455" y="39" on="1"/>
        <pt x="464" y="68" on="0"/>
        <pt x="480" y="142" on="0"/>
        <pt x="495" y="225" on="0"/>
        <pt x="508" y="313" on="0"/>
        <pt x="512" y="355" on="1"/>
        <pt x="477" y="367" on="0"/>
      </contour>
    </TTGlyph>
    <TTGlyph name="f_f_l" xMin="-157" yMin="-248" xMax="1108" yMax="714">
      <contour>
        <pt x="130" y="448" on="1"/>
        <pt x="146" y="508" on="0"/>
        <pt x="200" y="599" on="0"/>
        <pt x="282" y="660" on="0"/>
        <pt x="395" y="692" on="0"/>
        <pt x="469" y="692" on="1"/>
        <pt x="565" y="692" on="0"/>
        <pt x="640" y="651" on="1"/>
        <pt x="681" y="682" on="0"/>
        <pt x="791" y="714" on="0"/>
        <pt x="865" y="714" on="1"/>
        <pt x="912" y="714" on="0"/>
        <pt x="981" y="702" on="0"/>
        <pt x="1013" y="687" on="1"/>
        <pt x="1049" y="693" on="0"/>
        <pt x="1079" y="710" on="1"/>
        <pt x="1089" y="701" on="0"/>
        <pt x="1102" y="686" on="0"/>
        <pt x="1108" y="667" on="0"/>
        <pt x="1108" y="641" on="0"/>
        <pt x="1105" y="622" on="1"/>
        <pt x="1066" y="403" on="0"/>
        <pt x="1024" y="184" on="1"/>
        <pt x="1019" y="158" on="0"/>
        <pt x="1016" y="127" on="0"/>
        <pt x="1019" y="110" on="0"/>
        <pt x="1026" y="104" on="0"/>
        <pt x="1031" y="104" on="1"/>
        <pt x="1038" y="104" on="0"/>
        <pt x="1052" y="110" on="0"/>
        <pt x="1065" y="118" on="1"/>
        <pt x="1075" y="108" on="0"/>
        <pt x="1095" y="69" on="0"/>
        <pt x="1097" y="52" on="1"/>
        <pt x="1064" y="20" on="0"/>
        <pt x="979" y="-9" on="0"/>
        <pt x="934" y="-9" on="1"/>
        <pt x="901" y="-9" on="0"/>
        <pt x="857" y="7" on="0"/>
        <pt x="832" y="34" on="0"/>
        <pt x="821" y="71" on="0"/>
        <pt x="821" y="93" on="1"/>
        <pt x="821" y="107" on="0"/>
        <pt x="825" y="146" on="0"/>
        <pt x="840" y="232" on="0"/>
        <pt x="867" y="382" on="0"/>
        <pt x="891" y="506" on="1"/>
        <pt x="897" y="537" on="0"/>
        <pt x="900" y="586" on="0"/>
        <pt x="890" y="620" on="0"/>
        <pt x="864" y="639" on="0"/>
        <pt x="841" y="639" on="1"/>
        <pt x="818" y="639" on="0"/>
        <pt x="782" y="621" on="0"/>
        <pt x="754" y="578" on="0"/>
        <pt x="731" y="504" on="0"/>
        <pt x="721" y="448" on="1"/>
        <pt x="813" y="448" on="1"/>
        <pt x="813" y="424" on="0"/>
        <pt x="809" y="378" on="0"/>
        <pt x="803" y="365" on="1"/>
        <pt x="776" y="365" on="0"/>
        <pt x="730" y="360" on="0"/>
        <pt x="703" y="352" on="1"/>
        <pt x="694" y="302" on="0"/>
        <pt x="674" y="208" on="0"/>
        <pt x="653" y="128" on="0"/>
        <pt x="631" y="65" on="0"/>
        <pt x="622" y="47" on="1"/>
        <pt x="593" y="-9" on="0"/>
        <pt x="513" y="-101" on="0"/>
        <pt x="422" y="-167" on="0"/>
        <pt x="326" y="-204" on="0"/>
        <pt x="283" y="-204" on="1"/>
        <pt x="237" y="-204" on="0"/>
        <pt x="165" y="-172" on="0"/>
        <pt x="140" y="-148" on="1"/>
        <pt x="103" y="-193" on="0"/>
        <pt x="10" y="-248" on="0"/>
        <pt x="-47" y="-248" on="1"/>
        <pt x="-79" y="-248" on="0"/>
        <pt x="-134" y="-225" on="0"/>
        <pt x="-157" y="-199" on="1"/>
        <pt x="-157" y="-176" on="0"/>
        <pt x="-145" y="-116" on="0"/>
        <pt x="-134" y="-95" on="1"/>
        <pt x="-110" y="-107" on="0"/>
        <pt x="-56" y="-117" on="0"/>
        <pt x="-27" y="-117" on="1"/>
        <pt x="-3" y="-117" on="0"/>
        <pt x="30" y="-106" on="0"/>
        <pt x="51" y="-74" on="0"/>
        <pt x="64" y="-14" on="0"/>
        <pt x="69" y="35" on="1"/>
        <pt x="71" y="62" on="0"/>
        <pt x="79" y="133" on="0"/>
        <pt x="91" y="216" on="0"/>
        <pt x="105" y="308" on="0"/>
        <pt x="114" y="355" on="1"/>
        <pt x="89" y="363" on="0"/>
        <pt x="48" y="369" on="0"/>
        <pt x="33" y="369" on="1"/>
        <pt x="33" y="390" on="0"/>
        <pt x="39" y="434" on="0"/>
        <pt x="47" y="448" on="1"/>
      </contour>
      <contour>
        <pt x="526" y="448" on="1"/>
        <pt x="540" y="516" on="0"/>
        <pt x="568" y="566" on="1"/>
        <pt x="550" y="592" on="0"/>
        <pt x="496" y="619" on="0"/>
        <pt x="457" y="619" on="1"/>
        <pt x="433" y="619" on="0"/>
        <pt x="394" y="604" on="0"/>
        <pt x="361" y="565" on="0"/>
        <pt x="335" y="499" on="0"/>
        <pt x="325" y="448" on="1"/>
      </contour>
      <contour>
        <pt x="455" y="39" on="1"/>
        <pt x="464" y="68" on="0"/>
        <pt x="480" y="142" on="0"/>
        <pt x="495" y="225" on="0"/>
        <pt x="508" y="313" on="0"/>
        <pt x="512" y="355" on="1"/>
        <pt x="477" y="367" on="0"/>
        <pt x="411" y="367" on="1"/>
        <pt x="382" y="367" on="0"/>
        <pt x="334" y="360" on="0"/>
        <pt x="305" y="352" on="1"/>
        <pt x="296" y="302" on="0"/>
        <pt x="276" y="197" on="0"/>
        <pt x="261" y="124" on="1"/>
        <pt x="251" y="76" on="0"/>
        <pt x="218" y="-21" on="0"/>
        <pt x="194" y="-66" on="1"/>
        <pt x="216" y="-76" on="0"/>
        <pt x="265" y="-86" on="0"/>
        <pt x="295" y="-86" on="1"/>
        <pt x="332" y="-86" on="0"/>
        <pt x="382" y="-77" on="0"/>
        <pt x="418" y="-50" on="0"/>
        <pt x="443" y="-1" on="0"/>
      </contour>
    </TTGlyph>
    <TTGlyph name="f_f_t" xMin="-157" yMin="-248" xMax="1164" yMax="680">
      <contour>
        <pt x="1028" y="243" on="1"/>
        <pt x="1018" y="199" on="0"/>
        <pt x="1012" y="146" on="0"/>
        <pt x="1018" y="116" on="0"/>
        <pt x="1034" y="106" on="0"/>
        <pt x="1045" y="106" on="1"/>
        <pt x="1056" y="106" on="0"/>
        <pt x="1080" y="116" on="0"/>
        <pt x="1091" y="127" on="1"/>
        <pt x="1101" y="113" on="0"/>
        <pt x="1115" y="72" on="0"/>
        <pt x="1117" y="53" on="1"/>
        <pt x="1105" y="39" on="0"/>
        <pt x="1067" y="17" on="0"/>
        <pt x="1021" y="0" on="0"/>
        <pt x="973" y="-9" on="0"/>
        <pt x="951" y="-9" on="1"/>
        <pt x="904" y="-9" on="0"/>
        <pt x="845" y="26" on="0"/>
        <pt x="816" y="90" on="0"/>
        <pt x="817" y="178" on="0"/>
        <pt x="830" y="231" on="1"/>
        <pt x="861" y="359" on="1"/>
        <pt x="848" y="364" on="0"/>
        <pt x="826" y="366" on="0"/>
        <pt x="812" y="367" on="1"/>
        <pt x="810" y="387" on="0"/>
        <pt x="818" y="434" on="0"/>
        <pt x="826" y="448" on="1"/>
        <pt x="880" y="448" on="1"/>
        <pt x="889" y="485" on="0"/>
        <pt x="896" y="524" on="0"/>
        <pt x="896" y="541" on="1"/>
        <pt x="896" y="567" on="0"/>
        <pt x="867" y="605" on="0"/>
        <pt x="829" y="605" on="1"/>
        <pt x="809" y="605" on="0"/>
        <pt x="776" y="593" on="0"/>
        <pt x="750" y="558" on="0"/>
        <pt x="730" y="497" on="0"/>
        <pt x="721" y="448" on="1"/>
        <pt x="783" y="448" on="1"/>
        <pt x="785" y="429" on="0"/>
        <pt x="779" y="380" on="0"/>
        <pt x="773" y="367" on="1"/>
        <pt x="753" y="367" on="0"/>
        <pt x="723" y="360" on="0"/>
        <pt x="703" y="352" on="1"/>
        <pt x="694" y="302" on="0"/>
        <pt x="674" y="208" on="0"/>
        <pt x="653" y="128" on="0"/>
        <pt x="631" y="65" on="0"/>
        <pt x="622" y="47" on="1"/>
        <pt x="593" y="-9" on="0"/>
        <pt x="513" y="-101" on="0"/>
        <pt x="422" y="-167" on="0"/>
        <pt x="326" y="-204" on="0"/>
        <pt x="283" y="-204" on="1"/>
        <pt x="237" y="-204" on="0"/>
        <pt x="165" y="-172" on="0"/>
        <pt x="140" y="-148" on="1"/>
        <pt x="103" y="-193" on="0"/>
        <pt x="10" y="-248" on="0"/>
        <pt x="-47" y="-248" on="1"/>
        <pt x="-79" y="-248" on="0"/>
        <pt x="-134" y="-225" on="0"/>
        <pt x="-157" y="-199" on="1"/>
        <pt x="-157" y="-176" on="0"/>
        <pt x="-145" y="-116" on="0"/>
        <pt x="-134" y="-95" on="1"/>
        <pt x="-110" y="-107" on="0"/>
        <pt x="-56" y="-117" on="0"/>
        <pt x="-27" y="-117" on="1"/>
        <pt x="-3" y="-117" on="0"/>
        <pt x="30" y="-106" on="0"/>
        <pt x="51" y="-74" on="0"/>
        <pt x="64" y="-14" on="0"/>
        <pt x="69" y="35" on="1"/>
        <pt x="71" y="62" on="0"/>
        <pt x="79" y="133" on="0"/>
        <pt x="91" y="216" on="0"/>
        <pt x="105" y="308" on="0"/>
        <pt x="114" y="355" on="1"/>
        <pt x="89" y="363" on="0"/>
        <pt x="48" y="369" on="0"/>
        <pt x="33" y="369" on="1"/>
        <pt x="33" y="390" on="0"/>
        <pt x="39" y="434" on="0"/>
        <pt x="47" y="448" on="1"/>
        <pt x="130" y="448" on="1"/>
        <pt x="146" y="508" on="0"/>
        <pt x="200" y="594" on="0"/>
        <pt x="282" y="651" on="0"/>
        <pt x="395" y="678" on="0"/>
        <pt x="469" y="678" on="1"/>
        <pt x="514" y="678" on="0"/>
        <pt x="604" y="656" on="0"/>
        <pt x="645" y="636" on="1"/>
        <pt x="684" y="659" on="0"/>
        <pt x="787" y="680" on="0"/>
        <pt x="851" y="680" on="1"/>
        <pt x="901" y="680" on="0"/>
        <pt x="973" y="667" on="0"/>
        <pt x="1006" y="653" on="1"/>
        <pt x="1042" y="659" on="0"/>
        <pt x="1072" y="676" on="1"/>
        <pt x="1091" y="662" on="0"/>
        <pt x="1102" y="634" on="0"/>
        <pt x="1100" y="606" on="1"/>
        <pt x="1098" y="589" on="0"/>
        <pt x="1087" y="517" on="0"/>
        <pt x="1074" y="448" on="1"/>
        <pt x="1164" y="448" on="1"/>
        <pt x="1164" y="424" on="0"/>
        <pt x="1160" y="378" on="0"/>
        <pt x="1154" y="365" on="1"/>
        <pt x="1127" y="365" on="0"/>
        <pt x="1080" y="360" on="0"/>
        <pt x="1053" y="352" on="1"/>
      </contour>
      <contour>
        <pt x="526" y="448" on="1"/>
        <pt x="539" y="509" on="0"/>
        <pt x="565" y="555" on="1"/>
        <pt x="544" y="584" on="0"/>
        <pt x="489" y="605" on="0"/>
        <pt x="457" y="605" on="1"/>
        <pt x="433" y="605" on="0"/>
        <pt x="392" y="591" on="0"/>
        <pt x="360" y="556" on="0"/>
        <pt x="334" y="495" on="0"/>
        <pt x="325" y="448" on="1"/>
      </contour>
      <contour>
        <pt x="455" y="39" on="1"/>
        <pt x="464" y="68" on="0"/>
        <pt x="480" y="142" on="0"/>
        <pt x="495" y="225" on="0"/>
        <pt x="508" y="313" on="0"/>
        <pt x="512" y="355" on="1"/>
        <pt x="477" y="367" on="0"/>
        <pt x="411" y="367" on="1"/>
        <pt x="382" y="367" on="0"/>
        <pt x="334" y="360" on="0"/>
        <pt x="305" y="352" on="1"/>
        <pt x="296" y="302" on="0"/>
        <pt x="276" y="197" on="0"/>
        <pt x="261" y="124" on="1"/>
        <pt x="251" y="76" on="0"/>
        <pt x="218" y="-21" on="0"/>
        <pt x="194" y="-66" on="1"/>
        <pt x="216" y="-76" on="0"/>
        <pt x="265" y="-86" on="0"/>
        <pt x="295" y="-86" on="1"/>
        <pt x="332" y="-86" on="0"/>
        <pt x="382" y="-77" on="0"/>
        <pt x="418" y="-50" on="0"/>
        <pt x="443" y="-1" on="0"/>
      </contour>
    </TTGlyph>
</ttFont>
